{
.appVersion = "3414";
.formatVersion = 3;
DisplayStrings = (
"AÁĂÂÄÀĀ Ą ÅǺÃÆǼBCĆČÇĈĊDǱǄ/caroncomb.case ČǄĎĚĽŇŘŠTŤŽĎĐḌǲǅÐEÉĔĚÊËĖẸÈĒĘẼƏFGĞĜĢĠHĦĤḤIĲÍĬÎÏİỊÌĪĮĨJĴKĶLǇĹĽĻĿǈŁMNǊŃŇŅṄǋÑŊOÓŎÔÖỌÒŐŌǪØǾÕŒPÞQRŔŘŖṚSŚŠŞŜȘṢTŦŤŢȚṬUÚŬÛÜỤÙŰŪŲŮŨVWẂŴẄẀXYÝŶŸỲỸZŹŽŻẒ",
"AÁĂÂÄÀĀĄÅǺÃÆǼ
BCĆČÇĈĊ
DǱǄĎĐḌǲǅÐ
EÉĔĚÊËĖẸÈĒĘẼƏF
GĞĜĢĠ
HĦĤḤ
IĲÍĬÎÏİỊÌĪĮĨ
JĴKĶ
LǇĹĽĻĿǈŁ
MNǊŃŇŅṄǋÑŊ
OÓŎÔÖỌÒŐŌǪØǾÕ
ŒPÞQRŔŘŖṚ
SŚŠŞŜȘṢ
TŦŤŢȚṬ
UÚŬÛÜỤÙŰŪŲŮŨ
VWẂŴẄẀ
XYÝŶŸỲỸ
ZŹŽŻẒ



aáăâäàāąåǻãæǽbcćčçĉċdďđḍǳǆðeéĕěêëėẹèēęẽəfgğĝģġhħĥḥiıíĭîïịìīįĩĳjȷĵkķĸlĺľļŀǉłmnńŉňņṅǌñŋoóŏôöọòőōǫøǿõœpþqrŕřŗṛsśšşŝșṣßtŧťţțṭuúŭûüụùűūųůũvwẃŵẅẁxyýŷÿỳỹzźžżẓ"
);
axes = (
{
name = Weight;
tag = wght;
}
);
classes = (
{
code = "Euro bar cent colon comma degree divide dollar eight equal five four greater less minus multiply nine numbersign one paragraph percent period periodcentered plus plusminus quotedbl quotesingle section semicolon seven six slash sterling three two underscore yen zero";
name = tnum1;
},
{
code = "Euro.tnum bar.tnum cent.tnum colon.tnum comma.tnum degree.tnum divide.tnum dollar.tnum eight.tnum equal.tnum five.tnum four.tnum greater.tnum less.tnum minus.tnum multiply.tnum nine.tnum numbersign.tnum one.tnum paragraph.tnum percent.tnum period.tnum periodcentered.tnum plus.tnum plusminus.tnum quotedbl.tnum quotesingle.tnum section.tnum semicolon.tnum seven.tnum six.tnum slash.tnum sterling.tnum three.tnum two.tnum underscore.tnum yen.tnum zero.tnum";
name = tnum2;
}
);
customParameters = (
{
name = openTypeOS2Panose;
value = (
2,
2,
6,
2,
6,
3,
0,
0,
0,
4
);
},
{
name = fsType;
value = (
);
},
{
name = blueFuzz;
value = 0;
},
{
name = blueScale;
value = 0.01667;
},
{
name = blueShift;
value = 10;
},
{
name = "Use Typo Metrics";
value = 1;
},
{
name = "Write lastChange";
value = 0;
},
{
name = "Use Line Breaks";
value = 1;
}
);
date = "2020-04-22 21:30:29 +0000";
familyName = "Libre Caslon Condensed";
features = (
{
automatic = 1;
code = "feature frac;
feature tnum;
feature ordn;
feature sinf;
feature sups;
feature onum;
feature zero;

glyphs = (
{
glyphname = A;
kernLeft = A;
kernRight = A;
layers = (
{
anchors = (
{
name = bottom;
pos = (619,0);
},
{
name = ogonek;
pos = (1113,10);
},
{
name = top;
pos = (619,1523);
}
);
background = {
anchors = (
{
name = bottom;
pos = (970,0);
},
{
name = ogonekcap;
pos = (1275,0);
},
{
name = topcap;
pos = (618,1643);
}
);
shapes = (
{
closed = 1;
nodes = (
(188,292,ls),
(138,132,o),
(117,105,o),
(-31,73,c),
(-31,0,l),
(458,0,l),
(458,73,l),
(286,105,o),
(254,146,o),
(298,289,cs),
(522,1021,l),
(529,1021,l),
(762,226,ls),
(801,93,o),
(760,78,o),
(622,73,c),
(622,0,l),
(1275,0,l),
(1275,73,l),
(1159,83,o),
(1132,104,o),
(1103,193,cs),
(664,1523,l),
(574,1523,l)
);
},
{
closed = 1;
nodes = (
(802,440,l),
(802,552,l),
(291,552,l),
(291,440,l)
);
}
);
};
layerId = "FA6D65B5-4623-4FAC-A199-3F662257AC29";
shapes = (
{
closed = 1;
nodes = (
(188,292,ls),
(138,132,o),
(117,105,o),
(-31,73,c),
(-31,0,l),
(458,0,l),
(458,73,l),
(286,105,o),
(254,146,o),
(298,289,cs),
(522,1021,l),
(529,1021,l),
(762,226,ls),
(801,93,o),
(760,78,o),
(622,73,c),
(622,0,l),
(1275,0,l),
(1275,73,l),
(1159,83,o),
(1132,104,o),
(1103,193,cs),
(664,1523,l),
(574,1523,l)
);
},
{
closed = 1;
nodes = (
(802,440,l),
(802,552,l),
(291,552,l),
(291,440,l)
);
}
);
width = 1237;
},
{
anchors = (
{
name = bottom;
pos = (593,0);
},
{
name = ogonek;
pos = (1067,10);
},
{
name = top;
pos = (593,1523);
}
);
background = {
anchors = (
{
name = bottom;
pos = (950,0);
},
{
name = ogonekcap;
pos = (1203,0);
},
{
name = topcap;
pos = (598,1643);
}
);
shapes = (
{
closed = 1;
nodes = (
(190,269,ls),
(149,129,o),
(128,82,o),
(-37,48,c),
(-37,0,l),
(414,0,l),
(414,48,l),
(262,77,o),
(227,124,o),
(262,246,cs),
(533,1189,l),
(538,1189,l),
(826,202,ls),
(867,61,o),
(835,59,o),
(680,48,c),
(680,0,l),
(1203,0,l),
(1203,48,l),
(1092,59,o),
(1069,79,o),
(1041,170,cs),
(630,1523,l),
(554,1523,l)
);
},
{
closed = 1;
nodes = (
(760,544,l),
(760,628,l),
(322,628,l),
(322,544,l)
);
}
);
};
layerId = "7C8D72FA-6E62-4564-8BB2-D9F9BC4EB15A";
shapes = (
{
closed = 1;
nodes = (
(190,269,ls),
(149,129,o),
(128,82,o),
(-37,48,c),
(-37,0,l),
(414,0,l),
(414,48,l),
(262,77,o),
(227,124,o),
(262,246,cs),
(533,1189,l),
(538,1189,l),
(826,202,ls),
(867,61,o),
(835,59,o),
(680,48,c),
(680,0,l),
(1203,0,l),
(1203,48,l),
(1092,59,o),
(1069,79,o),
(1041,170,cs),
(630,1523,l),
(554,1523,l)
);
},
{
closed = 1;
nodes = (
(760,544,l),
(760,628,l),
(322,628,l),
(322,544,l)
);
}
);
width = 1186;
}
);
unicode = 65;
},
{
color = 4;
glyphname = Aacute;
kernLeft = A;
kernRight = A;
layers = (
{
background = {
anchors = (
{
name = bottom;
pos = (970,0);
},
{
name = ogonekcap;
pos = (1275,0);
},
{
name = topcap;
pos = (618,1643);
}
);
shapes = (
{
closed = 1;
nodes = (
(188,292,ls),
(138,132,o),
(117,105,o),
(-31,73,c),
(-31,0,l),
(458,0,l),
(458,73,l),
(286,105,o),
(254,146,o),
(298,289,cs),
(522,1021,l),
(529,1021,l),
(762,226,ls),
(801,93,o),
(760,78,o),
(622,73,c),
(622,0,l),
(1275,0,l),
(1275,73,l),
(1159,83,o),
(1132,104,o),
(1103,193,cs),
(664,1523,l),
(574,1523,l)
);
},
{
closed = 1;
nodes = (
(802,440,l),
(802,552,l),
(291,552,l),
(291,440,l)
);
},
{
closed = 1;
nodes = (
(764,1680,ls),
(830,1696,o),
(858,1750,o),
(858,1800,cs),
(858,1854,o),
(825,1906,o),
(770,1906,cs),
(744,1906,o),
(710,1893,o),
(674,1859,cs),
(477,1672,l),
(503,1617,l)
);
}
);
};
layerId = "FA6D65B5-4623-4FAC-A199-3F662257AC29";
shapes = (
{
ref = A;
},
{
pos = (402,0);
ref = acutecomb.case;
}
);
width = 1237;
},
{
associatedMasterId = "FA6D65B5-4623-4FAC-A199-3F662257AC29";
layerId = "CBD44848-52BD-4DC5-BFA6-577546B7224D";
shapes = (
{
alignment = -1;
ref = A;
},
{
alignment = -1;
pos = (504,0);
ref = acutecomb.case;
}
);
width = 1472;
},
{
background = {
anchors = (
{
name = bottom;
pos = (950,0);
},
{
name = ogonekcap;
pos = (1203,0);
},
{
name = topcap;
pos = (598,1643);
}
);
shapes = (
{
closed = 1;
nodes = (
(190,269,ls),
(149,129,o),
(128,82,o),
(-37,48,c),
(-37,0,l),
(414,0,l),
(414,48,l),
(262,77,o),
(227,124,o),
(262,246,cs),
(533,1189,l),
(538,1189,l),
(826,202,ls),
(867,61,o),
(835,59,o),
(680,48,c),
(680,0,l),
(1203,0,l),
(1203,48,l),
(1092,59,o),
(1069,79,o),
(1041,170,cs),
(630,1523,l),
(554,1523,l)
);
},
{
closed = 1;
nodes = (
(760,544,l),
(760,628,l),
(322,628,l),
(322,544,l)
);
},
{
closed = 1;
nodes = (
(684,1700,ls),
(764,1727,o),
(789,1766,o),
(789,1812,cs),
(789,1863,o),
(756,1901,o),
(718,1901,cs),
(693,1901,o),
(672,1891,o),
(645,1867,cs),
(423,1658,l),
(441,1616,l)
);
}
);
};
layerId = "7C8D72FA-6E62-4564-8BB2-D9F9BC4EB15A";
shapes = (
{
ref = A;
},
{
pos = (336,0);
ref = acutecomb.case;
}
);
width = 1186;
}
);
unicode = 193;
},
{
glyphname = Abreve;
kernLeft = A;
kernRight = A;
layers = (
{
background = {
anchors = (
{
name = bottom;
pos = (970,0);
},
{
name = ogonekcap;
pos = (1275,0);
},
{
name = topcap;
pos = (618,1643);
}
);
shapes = (
{
closed = 1;
nodes = (
(188,292,ls),
(138,132,o),
(117,105,o),
(-31,73,c),
(-31,0,l),
(458,0,l),
(458,73,l),
(286,105,o),
(254,146,o),
(298,289,cs),
(522,1021,l),
(529,1021,l),
(762,226,ls),
(801,93,o),
(760,78,o),
(622,73,c),
(622,0,l),
(1275,0,l),
(1275,73,l),
(1159,83,o),
(1132,104,o),
(1103,193,cs),
(664,1523,l),
(574,1523,l)
);
},
{
closed = 1;
nodes = (
(802,440,l),
(802,552,l),
(291,552,l),
(291,440,l)
);
},
{
closed = 1;
nodes = (
(691,1643,o),
(812,1671,o),
(867,1911,c),
(788,1911,l),
(754,1866,o),
(691,1849,o),
(623,1849,cs),
(554,1849,o),
(490,1866,o),
(465,1911,c),
(386,1911,l),
(404,1710,o),
(519,1643,o),
(618,1643,cs)
);
}
);
};
layerId = "FA6D65B5-4623-4FAC-A199-3F662257AC29";
shapes = (
{
ref = A;
},
{
pos = (278,0);
ref = brevecomb.case;
}
);
width = 1237;
},
{
associatedMasterId = "FA6D65B5-4623-4FAC-A199-3F662257AC29";
layerId = "CBD44848-52BD-4DC5-BFA6-577546B7224D";
shapes = (
{
alignment = -1;
ref = A;
},
{
alignment = -1;
pos = (382,0);
ref = brevecomb.case;
}
);
width = 1472;
},
{
background = {
anchors = (
{
name = bottom;
pos = (950,0);
},
{
name = ogonekcap;
pos = (1203,0);
},
{
name = topcap;
pos = (598,1643);
}
);
shapes = (
{
closed = 1;
nodes = (
(190,269,ls),
(149,129,o),
(128,82,o),
(-37,48,c),
(-37,0,l),
(414,0,l),
(414,48,l),
(262,77,o),
(227,124,o),
(262,246,cs),
(533,1189,l),
(538,1189,l),
(826,202,ls),
(867,61,o),
(835,59,o),
(680,48,c),
(680,0,l),
(1203,0,l),
(1203,48,l),
(1092,59,o),
(1069,79,o),
(1041,170,cs),
(630,1523,l),
(554,1523,l)
);
},
{
closed = 1;
nodes = (
(760,544,l),
(760,628,l),
(322,628,l),
(322,544,l)
);
},
{
closed = 1;
nodes = (
(612,1642,o),
(727,1670,o),
(779,1900,c),
(722,1900,l),
(686,1826,o),
(619,1796,o),
(551,1796,cs),
(477,1796,o),
(408,1826,o),
(383,1900,c),
(326,1900,l),
(342,1707,o),
(451,1642,o),
(544,1642,cs)
);
}
);
};
layerId = "7C8D72FA-6E62-4564-8BB2-D9F9BC4EB15A";
shapes = (
{
ref = A;
},
{
pos = (289,0);
ref = brevecomb.case;
}
);
width = 1186;
}
);
unicode = 258;
},
{
glyphname = Acircumflex;
kernLeft = A;
kernRight = A;
layers = (
{
background = {
anchors = (
{
name = bottom;
pos = (970,0);
},
{
name = ogonekcap;
pos = (1275,0);
},
{
name = topcap;
pos = (618,1643);
}
);
shapes = (
{
closed = 1;
nodes = (
(188,292,ls),
(138,132,o),
(117,105,o),
(-31,73,c),
(-31,0,l),
(458,0,l),
(458,73,l),
(286,105,o),
(254,146,o),
(298,289,cs),
(522,1021,l),
(529,1021,l),
(762,226,ls),
(801,93,o),
(760,78,o),
(622,73,c),
(622,0,l),
(1275,0,l),
(1275,73,l),
(1159,83,o),
(1132,104,o),
(1103,193,cs),
(664,1523,l),
(574,1523,l)
);
},
{
closed = 1;
nodes = (
(802,440,l),
(802,552,l),
(291,552,l),
(291,440,l)
);
},
{
closed = 1;
nodes = (
(618,1705,l),
(866,1625,l),
(892,1669,l),
(728,1835,ls),
(685,1878,o),
(654,1900,o),
(619,1900,cs),
(578,1900,o),
(548,1878,o),
(505,1835,cs),
(345,1669,l),
(370,1625,l)
);
}
);
};
layerId = "FA6D65B5-4623-4FAC-A199-3F662257AC29";
shapes = (
{
ref = A;
},
{
pos = (237,0);
ref = circumflexcomb.case;
}
);
width = 1237;
},
{
associatedMasterId = "FA6D65B5-4623-4FAC-A199-3F662257AC29";
layerId = "CBD44848-52BD-4DC5-BFA6-577546B7224D";
shapes = (
{
alignment = -1;
ref = A;
},
{
alignment = -1;
pos = (390,0);
ref = circumflexcomb.case;
}
);
width = 1472;
},
{
background = {
anchors = (
{
name = bottom;
pos = (950,0);
},
{
name = ogonekcap;
pos = (1203,0);
},
{
name = topcap;
pos = (598,1643);
}
);
shapes = (
{
closed = 1;
nodes = (
(190,269,ls),
(149,129,o),
(128,82,o),
(-37,48,c),
(-37,0,l),
(414,0,l),
(414,48,l),
(262,77,o),
(227,124,o),
(262,246,cs),
(533,1189,l),
(538,1189,l),
(826,202,ls),
(867,61,o),
(835,59,o),
(680,48,c),
(680,0,l),
(1203,0,l),
(1203,48,l),
(1092,59,o),
(1069,79,o),
(1041,170,cs),
(630,1523,l),
(554,1523,l)
);
},
{
closed = 1;
nodes = (
(760,544,l),
(760,628,l),
(322,628,l),
(322,544,l)
);
},
{
closed = 1;
nodes = (
(563,1733,l),
(773,1622,l),
(803,1658,l),
(654,1845,ls),
(621,1884,o),
(600,1900,o),
(563,1900,cs),
(523,1900,o),
(504,1880,o),
(475,1845,cs),
(326,1658,l),
(356,1622,l)
);
}
);
};
layerId = "7C8D72FA-6E62-4564-8BB2-D9F9BC4EB15A";
shapes = (
{
ref = A;
},
{
pos = (274,0);
ref = circumflexcomb.case;
}
);
width = 1186;
}
);
unicode = 194;
},
{
glyphname = Adieresis;
kernLeft = A;
kernRight = A;
layers = (
{
background = {
anchors = (
{
name = bottom;
pos = (970,0);
},
{
name = ogonekcap;
pos = (1275,0);
},
{
name = topcap;
pos = (618,1643);
}
);
shapes = (
{
closed = 1;
nodes = (
(188,292,ls),
(138,132,o),
(117,105,o),
(-31,73,c),
(-31,0,l),
(458,0,l),
(458,73,l),
(286,105,o),
(254,146,o),
(298,289,cs),
(522,1021,l),
(529,1021,l),
(762,226,ls),
(801,93,o),
(760,78,o),
(622,73,c),
(622,0,l),
(1275,0,l),
(1275,73,l),
(1159,83,o),
(1132,104,o),
(1103,193,cs),
(664,1523,l),
(574,1523,l)
);
},
{
closed = 1;
nodes = (
(802,440,l),
(802,552,l),
(291,552,l),
(291,440,l)
);
},
{
closed = 1;
nodes = (
(859,1643,o),
(896,1712,o),
(896,1775,cs),
(896,1847,o),
(852,1911,o),
(781,1911,cs),
(710,1911,o),
(669,1847,o),
(669,1775,cs),
(669,1712,o),
(708,1643,o),
(781,1643,cs)
);
},
{
closed = 1;
nodes = (
(530,1643,o),
(569,1712,o),
(569,1775,cs),
(569,1847,o),
(525,1911,o),
(454,1911,cs),
(382,1911,o),
(342,1847,o),
(342,1775,cs),
(342,1712,o),
(379,1643,o),
(454,1643,cs)
);
}
);
};
layerId = "FA6D65B5-4623-4FAC-A199-3F662257AC29";
shapes = (
{
ref = A;
},
{
pos = (232,0);
ref = dieresiscomb.case;
}
);
width = 1237;
},
{
associatedMasterId = "FA6D65B5-4623-4FAC-A199-3F662257AC29";
layerId = "CBD44848-52BD-4DC5-BFA6-577546B7224D";
shapes = (
{
alignment = -1;
ref = A;
},
{
alignment = -1;
pos = (270,-53);
ref = dieresiscomb.case;
}
);
width = 1546;
},
{
background = {
anchors = (
{
name = bottom;
pos = (950,0);
},
{
name = ogonekcap;
pos = (1203,0);
},
{
name = topcap;
pos = (598,1643);
}
);
shapes = (
{
closed = 1;
nodes = (
(190,269,ls),
(149,129,o),
(128,82,o),
(-37,48,c),
(-37,0,l),
(414,0,l),
(414,48,l),
(262,77,o),
(227,124,o),
(262,246,cs),
(533,1189,l),
(538,1189,l),
(826,202,ls),
(867,61,o),
(835,59,o),
(680,48,c),
(680,0,l),
(1203,0,l),
(1203,48,l),
(1092,59,o),
(1069,79,o),
(1041,170,cs),
(630,1523,l),
(554,1523,l)
);
},
{
closed = 1;
nodes = (
(760,544,l),
(760,628,l),
(322,628,l),
(322,544,l)
);
},
{
closed = 1;
nodes = (
(805,1643,o),
(840,1696,o),
(840,1756,cs),
(840,1819,o),
(804,1869,o),
(749,1869,cs),
(694,1869,o),
(658,1819,o),
(658,1756,cs),
(658,1696,o),
(693,1643,o),
(749,1643,cs)
);
},
{
closed = 1;
nodes = (
(505,1643,o),
(539,1696,o),
(539,1756,cs),
(539,1819,o),
(504,1869,o),
(448,1869,cs),
(393,1869,o),
(359,1819,o),
(359,1756,cs),
(359,1696,o),
(392,1643,o),
(448,1643,cs)
);
}
);
};
layerId = "7C8D72FA-6E62-4564-8BB2-D9F9BC4EB15A";
shapes = (
{
ref = A;
},
{
pos = (271,0);
ref = dieresiscomb.case;
}
);
width = 1186;
}
);
unicode = 196;
},
{
glyphname = Agrave;
kernLeft = A;
kernRight = A;
layers = (
{
background = {
anchors = (
{
name = bottom;
pos = (970,0);
},
{
name = ogonekcap;
pos = (1275,0);
},
{
name = topcap;
pos = (618,1643);
}
);
shapes = (
{
closed = 1;
nodes = (
(188,292,ls),
(138,132,o),
(117,105,o),
(-31,73,c),
(-31,0,l),
(458,0,l),
(458,73,l),
(286,105,o),
(254,146,o),
(298,289,cs),
(522,1021,l),
(529,1021,l),
(762,226,ls),
(801,93,o),
(760,78,o),
(622,73,c),
(622,0,l),
(1275,0,l),
(1275,73,l),
(1159,83,o),
(1132,104,o),
(1103,193,cs),
(664,1523,l),
(574,1523,l)
);
},
{
closed = 1;
nodes = (
(802,440,l),
(802,552,l),
(291,552,l),
(291,440,l)
);
},
{
closed = 1;
nodes = (
(786,1672,l),
(588,1859,ls),
(551,1893,o),
(518,1906,o),
(490,1906,cs),
(438,1906,o),
(405,1854,o),
(405,1800,cs),
(405,1750,o),
(431,1696,o),
(497,1680,cs),
(758,1617,l)
);
}
);
};
layerId = "FA6D65B5-4623-4FAC-A199-3F662257AC29";
shapes = (
{
ref = A;
},
{
pos = (341,0);
ref = gravecomb.case;
}
);
width = 1237;
},
{
associatedMasterId = "FA6D65B5-4623-4FAC-A199-3F662257AC29";
layerId = "CBD44848-52BD-4DC5-BFA6-577546B7224D";
shapes = (
{
alignment = -1;
ref = A;
},
{
alignment = -1;
pos = (390,0);
ref = gravecomb.case;
}
);
width = 1472;
},
{
background = {
anchors = (
{
name = bottom;
pos = (950,0);
},
{
name = ogonekcap;
pos = (1203,0);
},
{
name = topcap;
pos = (598,1643);
}
);
shapes = (
{
closed = 1;
nodes = (
(190,269,ls),
(149,129,o),
(128,82,o),
(-37,48,c),
(-37,0,l),
(414,0,l),
(414,48,l),
(262,77,o),
(227,124,o),
(262,246,cs),
(533,1189,l),
(538,1189,l),
(826,202,ls),
(867,61,o),
(835,59,o),
(680,48,c),
(680,0,l),
(1203,0,l),
(1203,48,l),
(1092,59,o),
(1069,79,o),
(1041,170,cs),
(630,1523,l),
(554,1523,l)
);
},
{
closed = 1;
nodes = (
(760,544,l),
(760,628,l),
(322,628,l),
(322,544,l)
);
},
{
closed = 1;
nodes = (
(700,1658,l),
(477,1867,ls),
(451,1891,o),
(428,1901,o),
(403,1901,cs),
(367,1901,o),
(334,1863,o),
(334,1812,cs),
(334,1766,o),
(359,1727,o),
(439,1700,cs),
(682,1616,l)
);
}
);
};
layerId = "7C8D72FA-6E62-4564-8BB2-D9F9BC4EB15A";
shapes = (
{
ref = A;
},
{
pos = (343,0);
ref = gravecomb.case;
}
);
width = 1186;
}
);
unicode = 192;
},
{
glyphname = Amacron;
kernLeft = A;
kernRight = A;
layers = (
{
background = {
anchors = (
{
name = bottom;
pos = (970,0);
},
{
name = ogonekcap;
pos = (1275,0);
},
{
name = topcap;
pos = (618,1643);
}
);
shapes = (
{
closed = 1;
nodes = (
(188,292,ls),
(138,132,o),
(117,105,o),
(-31,73,c),
(-31,0,l),
(458,0,l),
(458,73,l),
(286,105,o),
(254,146,o),
(298,289,cs),
(522,1021,l),
(529,1021,l),
(762,226,ls),
(801,93,o),
(760,78,o),
(622,73,c),
(622,0,l),
(1275,0,l),
(1275,73,l),
(1159,83,o),
(1132,104,o),
(1103,193,cs),
(664,1523,l),
(574,1523,l)
);
},
{
closed = 1;
nodes = (
(802,440,l),
(802,552,l),
(291,552,l),
(291,440,l)
);
},
{
closed = 1;
nodes = (
(860,1712,l),
(860,1902,l),
(375,1902,l),
(375,1712,l)
);
}
);
};
layerId = "FA6D65B5-4623-4FAC-A199-3F662257AC29";
shapes = (
{
ref = A;
},
{
pos = (275,0);
ref = macroncomb.case;
}
);
width = 1237;
},
{
associatedMasterId = "FA6D65B5-4623-4FAC-A199-3F662257AC29";
layerId = "CBD44848-52BD-4DC5-BFA6-577546B7224D";
shapes = (
{
alignment = -1;
ref = A;
},
{
alignment = -1;
pos = (367,0);
ref = macroncomb.case;
}
);
width = 1472;
},
{
background = {
anchors = (
{
name = bottom;
pos = (950,0);
},
{
name = ogonekcap;
pos = (1203,0);
},
{
name = topcap;
pos = (598,1643);
}
);
shapes = (
{
closed = 1;
nodes = (
(190,269,ls),
(149,129,o),
(128,82,o),
(-37,48,c),
(-37,0,l),
(414,0,l),
(414,48,l),
(262,77,o),
(227,124,o),
(262,246,cs),
(533,1189,l),
(538,1189,l),
(826,202,ls),
(867,61,o),
(835,59,o),
(680,48,c),
(680,0,l),
(1203,0,l),
(1203,48,l),
(1092,59,o),
(1069,79,o),
(1041,170,cs),
(630,1523,l),
(554,1523,l)
);
},
{
closed = 1;
nodes = (
(760,544,l),
(760,628,l),
(322,628,l),
(322,544,l)
);
},
{
closed = 1;
nodes = (
(772,1733,l),
(772,1879,l),
(315,1879,l),
(315,1733,l)
);
}
);
};
layerId = "7C8D72FA-6E62-4564-8BB2-D9F9BC4EB15A";
shapes = (
{
ref = A;
},
{
pos = (286,0);
ref = macroncomb.case;
}
);
width = 1186;
}
);
unicode = 256;
},
{
glyphname = Aogonek;
kernLeft = A;
kernRight = A;
layers = (
{
background = {
anchors = (
{
name = bottom;
pos = (970,0);
},
{
name = ogonekcap;
pos = (1275,0);
},
{
name = topcap;
pos = (618,1643);
}
);
shapes = (
{
closed = 1;
nodes = (
(188,292,ls),
(138,132,o),
(117,105,o),
(-31,73,c),
(-31,0,l),
(458,0,l),
(458,73,l),
(286,105,o),
(254,146,o),
(298,289,cs),
(522,1021,l),
(529,1021,l),
(762,226,ls),
(801,93,o),
(760,78,o),
(622,73,c),
(622,0,l),
(1275,0,l),
(1275,73,l),
(1159,83,o),
(1132,104,o),
(1103,193,cs),
(664,1523,l),
(574,1523,l)
);
},
{
closed = 1;
nodes = (
(802,440,l),
(802,552,l),
(291,552,l),
(291,440,l)
);
},
{
closed = 1;
nodes = (
(1171,-533,o),
(1241,-496,o),
(1305,-416,c),
(1283,-332,l),
(1247,-357,o),
(1221,-368,o),
(1190,-368,cs),
(1140,-368,o),
(1114,-337,o),
(1114,-278,cs),
(1114,-197,o),
(1166,-106,o),
(1275,0,c),
(1214,14,l),
(961,-70,o),
(841,-183,o),
(841,-332,cs),
(841,-472,o),
(937,-533,o),
(1067,-533,cs)
);
}
);
};
layerId = "FA6D65B5-4623-4FAC-A199-3F662257AC29";
shapes = (
{
closed = 1;
nodes = (
(1171,-533,o),
(1241,-496,o),
(1305,-416,c),
(1283,-332,l),
(1247,-357,o),
(1221,-368,o),
(1190,-368,cs),
(1140,-368,o),
(1114,-337,o),
(1114,-278,cs),
(1114,-197,o),
(1166,-106,o),
(1275,0,c),
(1214,14,l),
(961,-70,o),
(841,-183,o),
(841,-332,cs),
(841,-472,o),
(937,-533,o),
(1067,-533,cs)
);
},
{
ref = A;
}
);
width = 1237;
},
{
associatedMasterId = "FA6D65B5-4623-4FAC-A199-3F662257AC29";
layerId = "CBD44848-52BD-4DC5-BFA6-577546B7224D";
shapes = (
{
alignment = -1;
ref = A;
},
{
alignment = -1;
pos = (919,0);
ref = ogonek;
}
);
width = 1472;
},
{
background = {
anchors = (
{
name = bottom;
pos = (950,0);
},
{
name = ogonekcap;
pos = (1203,0);
},
{
name = topcap;
pos = (598,1643);
}
);
shapes = (
{
closed = 1;
nodes = (
(190,269,ls),
(149,129,o),
(128,82,o),
(-37,48,c),
(-37,0,l),
(414,0,l),
(414,48,l),
(262,77,o),
(227,124,o),
(262,246,cs),
(533,1189,l),
(538,1189,l),
(826,202,ls),
(867,61,o),
(835,59,o),
(680,48,c),
(680,0,l),
(1203,0,l),
(1203,48,l),
(1092,59,o),
(1069,79,o),
(1041,170,cs),
(630,1523,l),
(554,1523,l)
);
},
{
closed = 1;
nodes = (
(760,544,l),
(760,628,l),
(322,628,l),
(322,544,l)
);
},
{
closed = 1;
nodes = (
(1122,-529,o),
(1184,-484,o),
(1228,-423,c),
(1205,-373,l),
(1170,-397,o),
(1146,-410,o),
(1116,-410,cs),
(1069,-410,o),
(1045,-377,o),
(1045,-302,cs),
(1045,-215,o),
(1097,-92,o),
(1203,0,c),
(1148,18,l),
(965,-89,o),
(870,-222,o),
(870,-354,cs),
(870,-476,o),
(940,-529,o),
(1033,-529,cs)
);
}
);
};
layerId = "7C8D72FA-6E62-4564-8BB2-D9F9BC4EB15A";
shapes = (
{
closed = 1;
nodes = (
(1122,-529,o),
(1184,-484,o),
(1228,-423,c),
(1205,-373,l),
(1170,-397,o),
(1146,-410,o),
(1116,-410,cs),
(1069,-410,o),
(1045,-377,o),
(1045,-302,cs),
(1045,-215,o),
(1097,-92,o),
(1203,0,c),
(1148,18,l),
(965,-89,o),
(870,-222,o),
(870,-354,cs),
(870,-476,o),
(940,-529,o),
(1033,-529,cs)
);
},
{
ref = A;
}
);
width = 1186;
}
);
unicode = 260;
},
{
glyphname = Aring;
kernLeft = A;
kernRight = A;
layers = (
{
background = {
anchors = (
{
name = bottom;
pos = (970,0);
},
{
name = ogonekcap;
pos = (1275,0);
},
{
name = topcap;
pos = (618,1643);
}
);
shapes = (
{
closed = 1;
nodes = (
(188,292,ls),
(138,132,o),
(117,105,o),
(-31,73,c),
(-31,0,l),
(458,0,l),
(458,73,l),
(286,105,o),
(254,146,o),
(298,289,cs),
(522,1021,l),
(529,1021,l),
(762,226,ls),
(801,93,o),
(760,78,o),
(622,73,c),
(622,0,l),
(1275,0,l),
(1275,73,l),
(1159,83,o),
(1132,104,o),
(1103,193,cs),
(664,1523,l),
(574,1523,l)
);
},
{
closed = 1;
nodes = (
(802,440,l),
(802,552,l),
(291,552,l),
(291,440,l)
);
},
{
closed = 1;
nodes = (
(682,1643,o),
(730,1703,o),
(730,1781,cs),
(730,1860,o),
(682,1920,o),
(619,1920,cs),
(554,1920,o),
(509,1860,o),
(509,1781,cs),
(509,1703,o),
(552,1643,o),
(619,1643,cs)
);
},
{
closed = 1;
nodes = (
(600,1742,o),
(588,1757,o),
(588,1781,cs),
(588,1804,o),
(600,1821,o),
(619,1821,cs),
(638,1821,o),
(650,1804,o),
(650,1781,cs),
(650,1757,o),
(638,1742,o),
(619,1742,cs)
);
}
);
};
layerId = "FA6D65B5-4623-4FAC-A199-3F662257AC29";
shapes = (
{
ref = A;
},
{
pos = (441,0);
ref = ringcomb.case;
}
);
width = 1237;
},
{
associatedMasterId = "FA6D65B5-4623-4FAC-A199-3F662257AC29";
layerId = "CBD44848-52BD-4DC5-BFA6-577546B7224D";
shapes = (
{
alignment = -1;
ref = A;
},
{
alignment = -1;
pos = (524,0);
ref = ringcomb.case;
}
);
width = 1472;
},
{
background = {
anchors = (
{
name = bottom;
pos = (950,0);
},
{
name = ogonekcap;
pos = (1203,0);
},
{
name = topcap;
pos = (598,1643);
}
);
shapes = (
{
closed = 1;
nodes = (
(190,269,ls),
(149,129,o),
(128,82,o),
(-37,48,c),
(-37,0,l),
(414,0,l),
(414,48,l),
(262,77,o),
(227,124,o),
(262,246,cs),
(533,1189,l),
(538,1189,l),
(826,202,ls),
(867,61,o),
(835,59,o),
(680,48,c),
(680,0,l),
(1203,0,l),
(1203,48,l),
(1092,59,o),
(1069,79,o),
(1041,170,cs),
(630,1523,l),
(554,1523,l)
);
},
{
closed = 1;
nodes = (
(760,544,l),
(760,628,l),
(322,628,l),
(322,544,l)
);
},
{
closed = 1;
nodes = (
(614,1643,o),
(662,1703,o),
(662,1781,cs),
(662,1860,o),
(614,1920,o),
(551,1920,cs),
(486,1920,o),
(441,1860,o),
(441,1781,cs),
(441,1703,o),
(484,1643,o),
(551,1643,cs)
);
},
{
closed = 1;
nodes = (
(520,1716,o),
(498,1742,o),
(498,1781,cs),
(498,1821,o),
(520,1847,o),
(551,1847,cs),
(582,1847,o),
(602,1821,o),
(602,1781,cs),
(602,1742,o),
(582,1716,o),
(551,1716,cs)
);
}
);
};
layerId = "7C8D72FA-6E62-4564-8BB2-D9F9BC4EB15A";
shapes = (
{
ref = A;
},
{
pos = (434,0);
ref = ringcomb.case;
}
);
width = 1186;
}
);
unicode = 197;
},
{
color = 4;
glyphname = Aringacute;
kernLeft = A;
kernRight = A;
layers = (
{
background = {
anchors = (
{
name = bottom;
pos = (970,0);
},
{
name = ogonekcap;
pos = (1275,0);
},
{
name = topcap;
pos = (618,1643);
}
);
shapes = (
{
closed = 1;
nodes = (
(469,1666,l),
(486,1651,o),
(510,1643,o),
(535,1643,cs),
(590,1643,o),
(630,1685,o),
(643,1746,c),
(714,1771,o),
(729,1809,o),
(729,1848,cs),
(729,1895,o),
(690,1917,o),
(658,1917,cs),
(637,1917,o),
(619,1909,o),
(600,1895,c),
(582,1911,o),
(558,1920,o),
(535,1920,cs),
(472,1920,o),
(425,1860,o),
(425,1781,cs),
(425,1765,o),
(426,1751,o),
(430,1738,c),
(361,1674,l),
(378,1633,l)
);
},
{
closed = 1;
nodes = (
(517,1742,o),
(504,1757,o),
(504,1781,cs),
(504,1804,o),
(517,1821,o),
(535,1821,cs),
(554,1821,o),
(566,1804,o),
(566,1781,cs),
(566,1757,o),
(554,1742,o),
(535,1742,cs)
);
},
{
closed = 1;
nodes = (
(188,292,ls),
(138,132,o),
(117,105,o),
(-31,73,c),
(-31,0,l),
(458,0,l),
(458,73,l),
(286,105,o),
(254,146,o),
(298,289,cs),
(522,1021,l),
(529,1021,l),
(762,226,ls),
(801,93,o),
(760,78,o),
(622,73,c),
(622,0,l),
(1275,0,l),
(1275,73,l),
(1159,83,o),
(1132,104,o),
(1103,193,cs),
(664,1523,l),
(574,1523,l)
);
},
{
closed = 1;
nodes = (
(802,440,l),
(802,552,l),
(291,552,l),
(291,440,l)
);
}
);
};
layerId = "FA6D65B5-4623-4FAC-A199-3F662257AC29";
shapes = (
{
closed = 1;
nodes = (
(539,1666,l),
(556,1651,o),
(580,1643,o),
(605,1643,cs),
(660,1643,o),
(700,1685,o),
(713,1746,c),
(784,1771,o),
(799,1809,o),
(799,1848,cs),
(799,1895,o),
(760,1917,o),
(728,1917,cs),
(707,1917,o),
(689,1909,o),
(670,1895,c),
(652,1911,o),
(628,1920,o),
(605,1920,cs),
(542,1920,o),
(495,1860,o),
(495,1781,cs),
(495,1765,o),
(496,1751,o),
(500,1738,c),
(431,1674,l),
(448,1633,l)
);
},
{
ref = A;
},
{
closed = 1;
nodes = (
(587,1742,o),
(574,1757,o),
(574,1781,cs),
(574,1804,o),
(587,1821,o),
(605,1821,cs),
(624,1821,o),
(636,1804,o),
(636,1781,cs),
(636,1757,o),
(624,1742,o),
(605,1742,cs)
);
}
);
width = 1237;
},
{
associatedMasterId = "FA6D65B5-4623-4FAC-A199-3F662257AC29";
layerId = "CBD44848-52BD-4DC5-BFA6-577546B7224D";
shapes = (
{
closed = 1;
nodes = (
(599,1666,l),
(620,1651,o),
(648,1643,o),
(681,1643,cs),
(747,1643,o),
(799,1685,o),
(815,1746,c),
(904,1771,o),
(922,1809,o),
(922,1848,cs),
(922,1895,o),
(875,1917,o),
(836,1917,cs),
(807,1917,o),
(786,1909,o),
(762,1895,c),
(738,1911,o),
(710,1920,o),
(681,1920,cs),
(601,1920,o),
(542,1860,o),
(542,1781,cs),
(542,1765,o),
(545,1751,o),
(549,1738,c),
(463,1674,l),
(485,1633,l)
);
},
{
closed = 1;
nodes = (
(639,1711,o),
(611,1740,o),
(611,1781,cs),
(611,1823,o),
(639,1850,o),
(681,1850,cs),
(722,1850,o),
(750,1823,o),
(750,1781,cs),
(750,1740,o),
(722,1711,o),
(681,1711,cs)
);
},
{
ref = A;
}
);
width = 1472;
},
{
background = {
anchors = (
{
name = bottom;
pos = (950,0);
},
{
name = ogonekcap;
pos = (1203,0);
},
{
name = topcap;
pos = (598,1643);
}
);
shapes = (
{
closed = 1;
nodes = (
(477,1666,l),
(494,1651,o),
(518,1643,o),
(543,1643,cs),
(597,1643,o),
(638,1685,o),
(651,1746,c),
(722,1771,o),
(736,1809,o),
(736,1848,cs),
(736,1895,o),
(698,1917,o),
(667,1917,cs),
(645,1917,o),
(627,1909,o),
(609,1895,c),
(589,1911,o),
(567,1920,o),
(543,1920,cs),
(480,1920,o),
(432,1860,o),
(432,1781,cs),
(432,1765,o),
(434,1751,o),
(438,1738,c),
(370,1674,l),
(387,1633,l)
);
},
{
closed = 1;
nodes = (
(511,1716,o),
(491,1742,o),
(491,1781,cs),
(491,1821,o),
(511,1847,o),
(543,1847,cs),
(575,1847,o),
(596,1821,o),
(596,1781,cs),
(596,1742,o),
(575,1716,o),
(543,1716,cs)
);
},
{
closed = 1;
nodes = (
(190,269,ls),
(149,129,o),
(128,82,o),
(-37,48,c),
(-37,0,l),
(414,0,l),
(414,48,l),
(262,77,o),
(227,124,o),
(262,246,cs),
(533,1189,l),
(538,1189,l),
(826,202,ls),
(867,61,o),
(835,59,o),
(680,48,c),
(680,0,l),
(1203,0,l),
(1203,48,l),
(1092,59,o),
(1069,79,o),
(1041,170,cs),
(630,1523,l),
(554,1523,l)
);
},
{
closed = 1;
nodes = (
(760,544,l),
(760,628,l),
(322,628,l),
(322,544,l)
);
}
);
};
layerId = "7C8D72FA-6E62-4564-8BB2-D9F9BC4EB15A";
shapes = (
{
closed = 1;
nodes = (
(520,1666,l),
(537,1651,o),
(561,1643,o),
(586,1643,cs),
(640,1643,o),
(681,1685,o),
(694,1746,c),
(765,1771,o),
(779,1809,o),
(779,1848,cs),
(779,1895,o),
(741,1917,o),
(710,1917,cs),
(688,1917,o),
(670,1909,o),
(652,1895,c),
(632,1911,o),
(610,1920,o),
(586,1920,cs),
(523,1920,o),
(475,1860,o),
(475,1781,cs),
(475,1765,o),
(477,1751,o),
(481,1738,c),
(413,1674,l),
(430,1633,l)
);
},
{
ref = A;
},
{
closed = 1;
nodes = (
(554,1716,o),
(534,1742,o),
(534,1781,cs),
(534,1821,o),
(554,1847,o),
(586,1847,cs),
(618,1847,o),
(639,1821,o),
(639,1781,cs),
(639,1742,o),
(618,1716,o),
(586,1716,cs)
);
}
);
width = 1186;
}
);
unicode = 506;
},
{
glyphname = Atilde;
kernLeft = A;
kernRight = A;
layers = (
{
background = {
anchors = (
{
name = bottom;
pos = (970,0);
},
{
name = ogonekcap;
pos = (1275,0);
},
{
name = topcap;
pos = (618,1643);
}
);
shapes = (
{
closed = 1;
nodes = (
(188,292,ls),
(138,132,o),
(117,105,o),
(-31,73,c),
(-31,0,l),
(458,0,l),
(458,73,l),
(286,105,o),
(254,146,o),
(298,289,cs),
(522,1021,l),
(529,1021,l),
(762,226,ls),
(801,93,o),
(760,78,o),
(622,73,c),
(622,0,l),
(1275,0,l),
(1275,73,l),
(1159,83,o),
(1132,104,o),
(1103,193,cs),
(664,1523,l),
(574,1523,l)
);
},
{
closed = 1;
nodes = (
(802,440,l),
(802,552,l),
(291,552,l),
(291,440,l)
);
},
{
closed = 1;
nodes = (
(823,1624,o),
(877,1729,o),
(877,1911,c),
(815,1911,l),
(805,1864,o),
(770,1837,o),
(720,1837,cs),
(647,1837,o),
(610,1908,o),
(528,1908,cs),
(430,1908,o),
(360,1812,o),
(360,1627,c),
(421,1627,l),
(427,1672,o),
(462,1703,o),
(517,1703,cs),
(597,1703,o),
(627,1624,o),
(715,1624,cs)
);
}
);
};
layerId = "FA6D65B5-4623-4FAC-A199-3F662257AC29";
shapes = (
{
ref = A;
},
{
pos = (256,0);
ref = tildecomb.case;
}
);
width = 1237;
},
{
associatedMasterId = "FA6D65B5-4623-4FAC-A199-3F662257AC29";
layerId = "CBD44848-52BD-4DC5-BFA6-577546B7224D";
shapes = (
{
alignment = -1;
ref = A;
},
{
alignment = -1;
pos = (375,0);
ref = tildecomb.case;
}
);
width = 1472;
},
{
background = {
anchors = (
{
name = bottom;
pos = (950,0);
},
{
name = ogonekcap;
pos = (1203,0);
},
{
name = topcap;
pos = (598,1643);
}
);
shapes = (
{
closed = 1;
nodes = (
(190,269,ls),
(149,129,o),
(128,82,o),
(-37,48,c),
(-37,0,l),
(414,0,l),
(414,48,l),
(262,77,o),
(227,124,o),
(262,246,cs),
(533,1189,l),
(538,1189,l),
(826,202,ls),
(867,61,o),
(835,59,o),
(680,48,c),
(680,0,l),
(1203,0,l),
(1203,48,l),
(1092,59,o),
(1069,79,o),
(1041,170,cs),
(630,1523,l),
(554,1523,l)
);
},
{
closed = 1;
nodes = (
(760,544,l),
(760,628,l),
(322,628,l),
(322,544,l)
);
},
{
closed = 1;
nodes = (
(750,1660,o),
(806,1758,o),
(806,1901,c),
(766,1901,l),
(757,1853,o),
(730,1826,o),
(684,1826,cs),
(612,1826,o),
(527,1895,o),
(453,1895,cs),
(373,1895,o),
(317,1802,o),
(317,1663,c),
(357,1663,l),
(362,1710,o),
(393,1739,o),
(440,1739,cs),
(514,1739,o),
(593,1660,o),
(670,1660,cs)
);
}
);
};
layerId = "7C8D72FA-6E62-4564-8BB2-D9F9BC4EB15A";
shapes = (
{
ref = A;
},
{
pos = (266,0);
ref = tildecomb.case;
}
);
width = 1186;
}
);
unicode = 195;
},
{
color = 4;
glyphname = AE;
kernLeft = AE;
kernRight = E;
layers = (
{
anchors = (
{
name = bottom;
pos = (866,0);
},
{
name = top;
pos = (866,1523);
}
);
background = {
shapes = (
{
closed = 1;
nodes = (
(431,0,l),
(431,73,l),
(346,89,o),
(309,120,o),
(309,174,cs),
(309,204,o),
(322,242,o),
(340,289,cs),
(456,570,l),
(774,570,l),
(774,112,l),
(639,73,l),
(639,0,l),
(1600,0,l),
(1667,463,l),
(1586,463,l),
(1549,334,o),
(1509,229,o),
(1441,113,c),
(1046,113,l),
(1046,752,l),
(1246,752,l),
(1282,679,o),
(1302,607,o),
(1314,529,c),
(1381,529,l),
(1381,1082,l),
(1314,1082,l),
(1302,1003,o),
(1282,933,o),
(1246,859,c),
(1046,859,l),
(1046,1412,l),
(1450,1412,l),
(1504,1308,o),
(1548,1193,o),
(1573,1088,c),
(1639,1088,l),
(1609,1523,l),
(608,1523,l),
(608,1470,l),
(706,1435,l),
(225,292,ls),
(162,143,o),
(119,104,o),
(-43,73,c),
(-43,0,l)
);
},
{
closed = 1;
nodes = (
(768,1320,l),
(774,1320,l),
(774,677,l),
(500,677,l)
);
}
);
};
layerId = "FA6D65B5-4623-4FAC-A199-3F662257AC29";
shapes = (
{
closed = 1;
nodes = (
(431,0,l),
(431,73,l),
(346,89,o),
(309,120,o),
(309,174,cs),
(309,204,o),
(322,242,o),
(340,289,cs),
(456,570,l),
(774,570,l),
(774,112,l),
(639,73,l),
(639,0,l),
(1600,0,l),
(1667,463,l),
(1586,463,l),
(1549,334,o),
(1509,229,o),
(1441,113,c),
(1046,113,l),
(1046,752,l),
(1246,752,l),
(1282,679,o),
(1302,607,o),
(1314,529,c),
(1381,529,l),
(1381,1082,l),
(1314,1082,l),
(1302,1003,o),
(1282,933,o),
(1246,859,c),
(1046,859,l),
(1046,1412,l),
(1450,1412,l),
(1504,1308,o),
(1548,1193,o),
(1573,1088,c),
(1639,1088,l),
(1609,1523,l),
(608,1523,l),
(608,1470,l),
(706,1435,l),
(225,292,ls),
(162,143,o),
(119,104,o),
(-43,73,c),
(-43,0,l)
);
},
{
closed = 1;
nodes = (
(768,1320,l),
(774,1320,l),
(774,677,l),
(500,677,l)
);
}
);
width = 1731;
},
{
associatedMasterId = "FA6D65B5-4623-4FAC-A199-3F662257AC29";
layerId = "CBD44848-52BD-4DC5-BFA6-577546B7224D";
shapes = (
{
closed = 1;
nodes = (
(510,0,l),
(510,45,l),
(388,66,o),
(334,86,o),
(334,143,cs),
(334,172,o),
(349,211,o),
(375,261,cs),
(540,578,l),
(933,578,l),
(933,83,l),
(763,45,l),
(763,0,l),
(1856,0,l),
(1930,463,l),
(1864,463,l),
(1821,334,o),
(1777,208,o),
(1698,78,c),
(1140,78,l),
(1140,727,l),
(1495,727,l),
(1531,648,o),
(1556,568,o),
(1567,489,c),
(1614,489,l),
(1614,1043,l),
(1567,1043,l),
(1555,964,o),
(1531,886,o),
(1495,805,c),
(1140,805,l),
(1140,1445,l),
(1708,1445,l),
(1773,1331,o),
(1818,1201,o),
(1850,1088,c),
(1898,1088,l),
(1864,1523,l),
(744,1523,l),
(744,1479,l),
(912,1445,l),
(291,265,ls),
(216,122,o),
(169,77,o),
(-44,45,c),
(-44,0,l)
);
},
{
closed = 1;
nodes = (
(922,1320,l),
(930,1320,l),
(930,656,l),
(582,656,l)
);
}
);
width = 2037;
},
{
anchors = (
{
name = bottom;
pos = (821,0);
},
{
name = top;
pos = (821,1523);
}
);
background = {
shapes = (
{
closed = 1;
nodes = (
(412,0,l),
(412,48,l),
(315,68,o),
(273,91,o),
(273,147,cs),
(273,176,o),
(285,214,o),
(306,265,cs),
(435,577,l),
(750,577,l),
(750,88,l),
(614,48,l),
(614,0,l),
(1501,0,l),
(1561,463,l),
(1504,463,l),
(1468,334,o),
(1434,211,o),
(1370,83,c),
(930,83,l),
(930,730,l),
(1202,730,l),
(1233,652,o),
(1252,573,o),
(1262,494,c),
(1303,494,l),
(1303,1049,l),
(1262,1049,l),
(1251,968,o),
(1233,891,o),
(1202,812,c),
(930,812,l),
(930,1441,l),
(1378,1441,l),
(1430,1329,o),
(1467,1200,o),
(1494,1088,c),
(1534,1088,l),
(1507,1523,l),
(597,1523,l),
(597,1477,l),
(727,1444,l),
(232,269,ls),
(171,126,o),
(134,81,o),
(-36,48,c),
(-36,0,l)
);
},
{
closed = 1;
nodes = (
(742,1320,l),
(748,1320,l),
(748,660,l),
(470,660,l)
);
}
);
};
layerId = "7C8D72FA-6E62-4564-8BB2-D9F9BC4EB15A";
shapes = (
{
closed = 1;
nodes = (
(412,0,l),
(412,48,l),
(315,68,o),
(273,91,o),
(273,147,cs),
(273,176,o),
(285,214,o),
(306,265,cs),
(435,577,l),
(750,577,l),
(750,88,l),
(614,48,l),
(614,0,l),
(1501,0,l),
(1561,463,l),
(1504,463,l),
(1468,334,o),
(1434,211,o),
(1370,83,c),
(930,83,l),
(930,730,l),
(1202,730,l),
(1233,652,o),
(1252,573,o),
(1262,494,c),
(1303,494,l),
(1303,1049,l),
(1262,1049,l),
(1251,968,o),
(1233,891,o),
(1202,812,c),
(930,812,l),
(930,1441,l),
(1378,1441,l),
(1430,1329,o),
(1467,1200,o),
(1494,1088,c),
(1534,1088,l),
(1507,1523,l),
(597,1523,l),
(597,1477,l),
(727,1444,l),
(232,269,ls),
(171,126,o),
(134,81,o),
(-36,48,c),
(-36,0,l)
);
},
{
closed = 1;
nodes = (
(742,1320,l),
(748,1320,l),
(748,660,l),
(470,660,l)
);
}
);
width = 1642;
}
);
unicode = 198;
},
{
color = 4;
glyphname = AEacute;
kernLeft = AE;
kernRight = E;
layers = (
{
background = {
shapes = (
{
closed = 1;
nodes = (
(431,0,l),
(431,73,l),
(346,89,o),
(309,120,o),
(309,174,cs),
(309,204,o),
(322,242,o),
(340,289,cs),
(456,570,l),
(774,570,l),
(774,112,l),
(639,73,l),
(639,0,l),
(1600,0,l),
(1667,463,l),
(1586,463,l),
(1549,334,o),
(1509,229,o),
(1441,113,c),
(1046,113,l),
(1046,752,l),
(1246,752,l),
(1282,679,o),
(1302,607,o),
(1314,529,c),
(1381,529,l),
(1381,1082,l),
(1314,1082,l),
(1302,1003,o),
(1282,933,o),
(1246,859,c),
(1046,859,l),
(1046,1412,l),
(1450,1412,l),
(1504,1308,o),
(1548,1193,o),
(1573,1088,c),
(1639,1088,l),
(1609,1523,l),
(608,1523,l),
(608,1470,l),
(706,1435,l),
(225,292,ls),
(162,143,o),
(119,104,o),
(-43,73,c),
(-43,0,l)
);
},
{
closed = 1;
nodes = (
(768,1320,l),
(774,1320,l),
(774,677,l),
(500,677,l)
);
},
{
closed = 1;
nodes = (
(1146,1680,ls),
(1212,1696,o),
(1240,1750,o),
(1240,1800,cs),
(1240,1854,o),
(1207,1906,o),
(1152,1906,cs),
(1126,1906,o),
(1092,1893,o),
(1056,1859,cs),
(859,1672,l),
(885,1617,l)
);
}
);
};
layerId = "FA6D65B5-4623-4FAC-A199-3F662257AC29";
shapes = (
{
ref = AE;
},
{
pos = (781,0);
ref = acutecomb.case;
}
);
width = 1731;
},
{
associatedMasterId = "FA6D65B5-4623-4FAC-A199-3F662257AC29";
layerId = "CBD44848-52BD-4DC5-BFA6-577546B7224D";
shapes = (
{
alignment = -1;
ref = AE;
},
{
alignment = -1;
pos = (1112,0);
ref = acutecomb.case;
}
);
width = 2037;
},
{
background = {
shapes = (
{
closed = 1;
nodes = (
(412,0,l),
(412,48,l),
(315,68,o),
(273,91,o),
(273,147,cs),
(273,176,o),
(285,214,o),
(306,265,cs),
(435,577,l),
(750,577,l),
(750,88,l),
(614,48,l),
(614,0,l),
(1501,0,l),
(1561,463,l),
(1504,463,l),
(1468,334,o),
(1434,211,o),
(1370,83,c),
(930,83,l),
(930,730,l),
(1202,730,l),
(1233,652,o),
(1252,573,o),
(1262,494,c),
(1303,494,l),
(1303,1049,l),
(1262,1049,l),
(1251,968,o),
(1233,891,o),
(1202,812,c),
(930,812,l),
(930,1441,l),
(1378,1441,l),
(1430,1329,o),
(1467,1200,o),
(1494,1088,c),
(1534,1088,l),
(1507,1523,l),
(597,1523,l),
(597,1477,l),
(727,1444,l),
(232,269,ls),
(171,126,o),
(134,81,o),
(-36,48,c),
(-36,0,l)
);
},
{
closed = 1;
nodes = (
(742,1320,l),
(748,1320,l),
(748,660,l),
(470,660,l)
);
},
{
closed = 1;
nodes = (
(1161,1700,ls),
(1241,1727,o),
(1266,1766,o),
(1266,1812,cs),
(1266,1863,o),
(1233,1901,o),
(1195,1901,cs),
(1170,1901,o),
(1149,1891,o),
(1122,1867,cs),
(900,1658,l),
(918,1616,l)
);
}
);
};
layerId = "7C8D72FA-6E62-4564-8BB2-D9F9BC4EB15A";
shapes = (
{
ref = AE;
},
{
pos = (564,0);
ref = acutecomb.case;
}
);
width = 1642;
}
);
unicode = 508;
},
{
glyphname = B;
kernLeft = I;
layers = (
{
anchors = (
{
name = bottom;
pos = (595,0);
},
{
name = center;
pos = (298,381);
},
{
name = top;
pos = (595,1523);
}
);
background = {
shapes = (
{
closed = 1;
nodes = (
(629,0,ls),
(819,0,o),
(925,29,o),
(1006,104,cs),
(1078,172,o),
(1123,283,o),
(1123,404,cs),
(1123,636,o),
(981,801,o),
(768,828,c),
(768,836,l),
(956,877,o),
(1062,994,o),
(1062,1154,cs),
(1062,1271,o),
(1015,1377,o),
(933,1443,cs),
(862,1498,o),
(760,1523,o),
(600,1523,cs),
(66,1523,l),
(66,1451,l),
(202,1409,l),
(202,117,l),
(66,73,l),
(66,0,l)
);
},
{
closed = 1;
nodes = (
(502,105,o),
(474,130,o),
(474,223,cs),
(474,758,l),
(531,758,l),
(731,758,o),
(826,653,o),
(826,421,cs),
(826,204,o),
(752,105,o),
(595,105,cs)
);
},
{
closed = 1;
nodes = (
(474,1416,l),
(502,1416,ls),
(592,1416,o),
(661,1396,o),
(706,1350,cs),
(749,1307,o),
(773,1239,o),
(773,1146,cs),
(773,983,o),
(702,887,o),
(575,871,cs),
(554,867,o),
(529,865,o),
(491,865,cs),
(474,865,l)
);
}
);
};
layerId = "FA6D65B5-4623-4FAC-A199-3F662257AC29";
shapes = (
{
closed = 1;
nodes = (
(629,0,ls),
(819,0,o),
(925,29,o),
(1006,104,cs),
(1078,172,o),
(1123,283,o),
(1123,404,cs),
(1123,636,o),
(981,801,o),
(768,828,c),
(768,836,l),
(956,877,o),
(1062,994,o),
(1062,1154,cs),
(1062,1271,o),
(1015,1377,o),
(933,1443,cs),
(862,1498,o),
(760,1523,o),
(600,1523,cs),
(66,1523,l),
(66,1451,l),
(202,1409,l),
(202,117,l),
(66,73,l),
(66,0,l)
);
},
{
closed = 1;
nodes = (
(502,105,o),
(474,130,o),
(474,223,cs),
(474,758,l),
(531,758,l),
(731,758,o),
(826,653,o),
(826,421,cs),
(826,204,o),
(752,105,o),
(595,105,cs)
);
},
{
closed = 1;
nodes = (
(474,1416,l),
(502,1416,ls),
(592,1416,o),
(661,1396,o),
(706,1350,cs),
(749,1307,o),
(773,1239,o),
(773,1146,cs),
(773,983,o),
(702,887,o),
(575,871,cs),
(554,867,o),
(529,865,o),
(491,865,cs),
(474,865,l)
);
}
);
width = 1190;
},
{
associatedMasterId = "FA6D65B5-4623-4FAC-A199-3F662257AC29";
layerId = "CBD44848-52BD-4DC5-BFA6-577546B7224D";
shapes = (
{
closed = 1;
nodes = (
(716,0,ls),
(933,0,o),
(1052,29,o),
(1143,104,cs),
(1226,172,o),
(1276,283,o),
(1276,404,cs),
(1276,620,o),
(1120,782,o),
(883,807,c),
(883,815,l),
(1093,859,o),
(1209,982,o),
(1209,1154,cs),
(1209,1271,o),
(1154,1377,o),
(1061,1443,cs),
(980,1498,o),
(865,1523,o),
(683,1523,cs),
(97,1523,l),
(97,1479,l),
(265,1441,l),
(265,83,l),
(97,45,l),
(97,0,l)
);
},
{
closed = 1;
nodes = (
(512,75,o),
(473,101,o),
(473,193,cs),
(473,770,l),
(641,770,l),
(919,770,o),
(1047,659,o),
(1047,421,cs),
(1047,184,o),
(920,75,o),
(648,75,cs)
);
},
{
closed = 1;
nodes = (
(473,1445,l),
(644,1445,ls),
(788,1445,o),
(857,1424,o),
(914,1366,cs),
(966,1313,o),
(987,1253,o),
(987,1160,cs),
(987,980,o),
(906,871,o),
(762,854,cs),
(719,851,o),
(672,849,o),
(596,849,cs),
(473,849,l)
);
}
);
width = 1383;
},
{
anchors = (
{
name = bottom;
pos = (559,0);
},
{
name = center;
pos = (280,381);
},
{
name = top;
pos = (559,1523);
}
);
background = {
shapes = (
{
closed = 1;
nodes = (
(580,0,ls),
(755,0,o),
(853,29,o),
(926,104,cs),
(994,172,o),
(1034,283,o),
(1034,404,cs),
(1034,622,o),
(907,784,o),
(715,811,c),
(715,818,l),
(886,861,o),
(980,983,o),
(980,1154,cs),
(980,1271,o),
(935,1377,o),
(859,1443,cs),
(794,1498,o),
(701,1523,o),
(554,1523,cs),
(75,1523,l),
(75,1475,l),
(211,1436,l),
(211,88,l),
(75,48,l),
(75,0,l)
);
},
{
closed = 1;
nodes = (
(423,79,o),
(391,105,o),
(391,197,cs),
(391,769,l),
(515,769,l),
(734,769,o),
(835,659,o),
(835,421,cs),
(835,187,o),
(738,79,o),
(529,79,cs)
);
},
{
closed = 1;
nodes = (
(391,1442,l),
(513,1442,ls),
(625,1442,o),
(682,1421,o),
(728,1363,cs),
(770,1312,o),
(788,1251,o),
(788,1157,cs),
(788,980,o),
(722,873,o),
(606,857,cs),
(572,853,o),
(537,851,o),
(479,851,cs),
(391,851,l)
);
}
);
};
layerId = "7C8D72FA-6E62-4564-8BB2-D9F9BC4EB15A";
shapes = (
{
closed = 1;
nodes = (
(580,0,ls),
(755,0,o),
(853,29,o),
(926,104,cs),
(994,172,o),
(1034,283,o),
(1034,404,cs),
(1034,622,o),
(907,784,o),
(715,811,c),
(715,818,l),
(886,861,o),
(980,983,o),
(980,1154,cs),
(980,1271,o),
(935,1377,o),
(859,1443,cs),
(794,1498,o),
(701,1523,o),
(554,1523,cs),
(75,1523,l),
(75,1475,l),
(211,1436,l),
(211,88,l),
(75,48,l),
(75,0,l)
);
},
{
closed = 1;
nodes = (
(423,79,o),
(391,105,o),
(391,197,cs),
(391,769,l),
(515,769,l),
(734,769,o),
(835,659,o),
(835,421,cs),
(835,187,o),
(738,79,o),
(529,79,cs)
);
},
{
closed = 1;
nodes = (
(391,1442,l),
(513,1442,ls),
(625,1442,o),
(682,1421,o),
(728,1363,cs),
(770,1312,o),
(788,1251,o),
(788,1157,cs),
(788,980,o),
(722,873,o),
(606,857,cs),
(572,853,o),
(537,851,o),
(479,851,cs),
(391,851,l)
);
}
);
width = 1118;
}
);
unicode = 66;
},
{
color = 4;
glyphname = C;
kernLeft = C;
kernRight = C;
layers = (
{
anchors = (
{
name = bottom;
pos = (644,0);
},
{
name = top;
pos = (644,1523);
}
);
background = {
anchors = (
{
name = bottom;
pos = (699,0);
},
{
name = topcap;
pos = (698,1643);
}
);
shapes = (
{
closed = 1;
nodes = (
(829,-21,o),
(945,25,o),
(1069,130,c),
(1133,0,l),
(1192,0,l),
(1192,549,l),
(1121,549,l),
(1106,451,o),
(1078,367,o),
(1042,302,cs),
(971,172,o),
(863,99,o),
(734,99,cs),
(498,99,o),
(370,334,o),
(370,772,cs),
(370,1206,o),
(496,1427,o),
(740,1427,cs),
(872,1427,o),
(973,1362,o),
(1046,1219,cs),
(1073,1170,o),
(1095,1109,o),
(1117,1039,c),
(1192,1039,l),
(1192,1523,l),
(1144,1523,l),
(1075,1422,l),
(1069,1422,l),
(965,1500,o),
(827,1544,o),
(695,1544,cs),
(329,1544,o),
(71,1216,o),
(71,752,cs),
(71,292,o),
(323,-21,o),
(690,-21,cs)
);
}
);
};
layerId = "FA6D65B5-4623-4FAC-A199-3F662257AC29";
shapes = (
{
closed = 1;
nodes = (
(829,-21,o),
(945,25,o),
(1069,130,c),
(1133,0,l),
(1192,0,l),
(1192,549,l),
(1121,549,l),
(1106,451,o),
(1078,367,o),
(1042,302,cs),
(971,172,o),
(863,99,o),
(734,99,cs),
(498,99,o),
(370,334,o),
(370,772,cs),
(370,1206,o),
(496,1427,o),
(740,1427,cs),
(872,1427,o),
(973,1362,o),
(1046,1219,cs),
(1073,1170,o),
(1095,1109,o),
(1117,1039,c),
(1192,1039,l),
(1192,1523,l),
(1144,1523,l),
(1075,1422,l),
(1069,1422,l),
(965,1500,o),
(827,1544,o),
(695,1544,cs),
(329,1544,o),
(71,1216,o),
(71,752,cs),
(71,292,o),
(323,-21,o),
(690,-21,cs)
);
}
);
width = 1287;
},
{
anchors = (
{
name = bottom;
pos = (857,0);
},
{
name = topcap;
pos = (857,1643);
}
);
associatedMasterId = "FA6D65B5-4623-4FAC-A199-3F662257AC29";
layerId = "CBD44848-52BD-4DC5-BFA6-577546B7224D";
shapes = (
{
closed = 1;
nodes = (
(989,-21,o),
(1123,25,o),
(1263,130,c),
(1354,0,l),
(1401,0,l),
(1401,518,l),
(1348,518,l),
(1328,413,o),
(1292,325,o),
(1242,256,cs),
(1158,132,o),
(1029,70,o),
(871,70,cs),
(547,70,o),
(360,325,o),
(360,766,cs),
(360,1208,o),
(542,1457,o),
(869,1457,cs),
(1044,1457,o),
(1168,1398,o),
(1261,1247,cs),
(1291,1198,o),
(1318,1140,o),
(1341,1069,c),
(1401,1069,l),
(1401,1523,l),
(1366,1523,l),
(1269,1422,l),
(1261,1422,l),
(1142,1500,o),
(989,1544,o),
(836,1544,cs),
(411,1544,o),
(112,1216,o),
(112,752,cs),
(112,295,o),
(402,-21,o),
(828,-21,cs)
);
}
);
width = 1531;
},
{
anchors = (
{
name = bottom;
pos = (617,0);
},
{
name = top;
pos = (617,1523);
}
);
background = {
anchors = (
{
name = bottom;
pos = (687,0);
},
{
name = topcap;
pos = (687,1643);
}
);
shapes = (
{
closed = 1;
nodes = (
(797,-21,o),
(905,25,o),
(1018,130,c),
(1090,0,l),
(1130,0,l),
(1130,523,l),
(1084,523,l),
(1069,419,o),
(1040,330,o),
(1001,261,cs),
(932,138,o),
(828,74,o),
(701,74,cs),
(445,74,o),
(298,326,o),
(298,767,cs),
(298,1208,o),
(442,1452,o),
(701,1452,cs),
(841,1452,o),
(938,1393,o),
(1014,1244,cs),
(1038,1194,o),
(1060,1137,o),
(1078,1064,c),
(1130,1064,l),
(1130,1523,l),
(1099,1523,l),
(1022,1422,l),
(1016,1422,l),
(920,1500,o),
(797,1544,o),
(671,1544,cs),
(329,1544,o),
(86,1216,o),
(86,752,cs),
(86,295,o),
(322,-21,o),
(666,-21,cs)
);
}
);
};
layerId = "7C8D72FA-6E62-4564-8BB2-D9F9BC4EB15A";
shapes = (
{
closed = 1;
nodes = (
(797,-21,o),
(905,25,o),
(1018,130,c),
(1090,0,l),
(1130,0,l),
(1130,523,l),
(1084,523,l),
(1069,419,o),
(1040,330,o),
(1001,261,cs),
(932,138,o),
(828,74,o),
(701,74,cs),
(445,74,o),
(298,326,o),
(298,767,cs),
(298,1208,o),
(442,1452,o),
(701,1452,cs),
(841,1452,o),
(938,1393,o),
(1014,1244,cs),
(1038,1194,o),
(1060,1137,o),
(1078,1064,c),
(1130,1064,l),
(1130,1523,l),
(1099,1523,l),
(1022,1422,l),
(1016,1422,l),
(920,1500,o),
(797,1544,o),
(671,1544,cs),
(329,1544,o),
(86,1216,o),
(86,752,cs),
(86,295,o),
(322,-21,o),
(666,-21,cs)
);
}
);
width = 1234;
}
);
unicode = 67;
},
{
color = 4;
glyphname = Cacute;
kernLeft = C;
kernRight = C;
layers = (
{
background = {
anchors = (
{
name = bottom;
pos = (699,0);
},
{
name = topcap;
pos = (698,1643);
}
);
shapes = (
{
closed = 1;
nodes = (
(829,-21,o),
(945,25,o),
(1069,130,c),
(1133,0,l),
(1192,0,l),
(1192,549,l),
(1121,549,l),
(1106,451,o),
(1078,367,o),
(1042,302,cs),
(971,172,o),
(863,99,o),
(734,99,cs),
(498,99,o),
(370,334,o),
(370,772,cs),
(370,1206,o),
(496,1427,o),
(740,1427,cs),
(872,1427,o),
(973,1362,o),
(1046,1219,cs),
(1073,1170,o),
(1095,1109,o),
(1117,1039,c),
(1192,1039,l),
(1192,1523,l),
(1144,1523,l),
(1075,1422,l),
(1069,1422,l),
(965,1500,o),
(827,1544,o),
(695,1544,cs),
(329,1544,o),
(71,1216,o),
(71,752,cs),
(71,292,o),
(323,-21,o),
(690,-21,cs)
);
},
{
closed = 1;
nodes = (
(844,1680,ls),
(910,1696,o),
(938,1750,o),
(938,1800,cs),
(938,1854,o),
(905,1906,o),
(850,1906,cs),
(824,1906,o),
(790,1893,o),
(754,1859,cs),
(557,1672,l),
(583,1617,l)
);
}
);
};
layerId = "FA6D65B5-4623-4FAC-A199-3F662257AC29";
shapes = (
{
ref = C;
},
{
pos = (480,0);
ref = acutecomb.case;
}
);
width = 1287;
},
{
associatedMasterId = "FA6D65B5-4623-4FAC-A199-3F662257AC29";
layerId = "CBD44848-52BD-4DC5-BFA6-577546B7224D";
shapes = (
{
alignment = -1;
ref = C;
},
{
alignment = -1;
pos = (614,0);
ref = acutecomb.case;
}
);
width = 1531;
},
{
background = {
anchors = (
{
name = bottom;
pos = (687,0);
},
{
name = topcap;
pos = (687,1643);
}
);
shapes = (
{
closed = 1;
nodes = (
(797,-21,o),
(905,25,o),
(1018,130,c),
(1090,0,l),
(1130,0,l),
(1130,523,l),
(1084,523,l),
(1069,419,o),
(1040,330,o),
(1001,261,cs),
(932,138,o),
(828,74,o),
(701,74,cs),
(445,74,o),
(298,326,o),
(298,767,cs),
(298,1208,o),
(442,1452,o),
(701,1452,cs),
(841,1452,o),
(938,1393,o),
(1014,1244,cs),
(1038,1194,o),
(1060,1137,o),
(1078,1064,c),
(1130,1064,l),
(1130,1523,l),
(1099,1523,l),
(1022,1422,l),
(1016,1422,l),
(920,1500,o),
(797,1544,o),
(671,1544,cs),
(329,1544,o),
(86,1216,o),
(86,752,cs),
(86,295,o),
(322,-21,o),
(666,-21,cs)
);
},
{
closed = 1;
nodes = (
(776,1700,ls),
(856,1727,o),
(881,1766,o),
(881,1812,cs),
(881,1863,o),
(848,1901,o),
(810,1901,cs),
(785,1901,o),
(764,1891,o),
(737,1867,cs),
(515,1658,l),
(533,1616,l)
);
}
);
};
layerId = "7C8D72FA-6E62-4564-8BB2-D9F9BC4EB15A";
shapes = (
{
ref = C;
},
{
pos = (360,0);
ref = acutecomb.case;
}
);
width = 1234;
}
);
unicode = 262;
},
{
glyphname = Ccaron;
kernLeft = C;
kernRight = C;
layers = (
{
background = {
anchors = (
{
name = bottom;
pos = (699,0);
},
{
name = topcap;
pos = (698,1643);
}
);
shapes = (
{
closed = 1;
nodes = (
(829,-21,o),
(945,25,o),
(1069,130,c),
(1133,0,l),
(1192,0,l),
(1192,549,l),
(1121,549,l),
(1106,451,o),
(1078,367,o),
(1042,302,cs),
(971,172,o),
(863,99,o),
(734,99,cs),
(498,99,o),
(370,334,o),
(370,772,cs),
(370,1206,o),
(496,1427,o),
(740,1427,cs),
(872,1427,o),
(973,1362,o),
(1046,1219,cs),
(1073,1170,o),
(1095,1109,o),
(1117,1039,c),
(1192,1039,l),
(1192,1523,l),
(1144,1523,l),
(1075,1422,l),
(1069,1422,l),
(965,1500,o),
(827,1544,o),
(695,1544,cs),
(329,1544,o),
(71,1216,o),
(71,752,cs),
(71,292,o),
(323,-21,o),
(690,-21,cs)
);
},
{
closed = 1;
nodes = (
(733,1644,o),
(764,1665,o),
(807,1709,cs),
(971,1876,l),
(945,1920,l),
(697,1838,l),
(449,1920,l),
(424,1876,l),
(584,1709,ls),
(627,1665,o),
(657,1644,o),
(698,1644,cs)
);
}
);
};
layerId = "FA6D65B5-4623-4FAC-A199-3F662257AC29";
shapes = (
{
ref = C;
},
{
pos = (315,0);
ref = caroncomb.case;
}
);
width = 1287;
},
{
associatedMasterId = "FA6D65B5-4623-4FAC-A199-3F662257AC29";
layerId = "CBD44848-52BD-4DC5-BFA6-577546B7224D";
shapes = (
{
alignment = -1;
ref = C;
},
{
alignment = -1;
pos = (546,0);
ref = caroncomb.case;
}
);
width = 1531;
},
{
background = {
anchors = (
{
name = bottom;
pos = (687,0);
},
{
name = topcap;
pos = (687,1643);
}
);
shapes = (
{
closed = 1;
nodes = (
(797,-21,o),
(905,25,o),
(1018,130,c),
(1090,0,l),
(1130,0,l),
(1130,523,l),
(1084,523,l),
(1069,419,o),
(1040,330,o),
(1001,261,cs),
(932,138,o),
(828,74,o),
(701,74,cs),
(445,74,o),
(298,326,o),
(298,767,cs),
(298,1208,o),
(442,1452,o),
(701,1452,cs),
(841,1452,o),
(938,1393,o),
(1014,1244,cs),
(1038,1194,o),
(1060,1137,o),
(1078,1064,c),
(1130,1064,l),
(1130,1523,l),
(1099,1523,l),
(1022,1422,l),
(1016,1422,l),
(920,1500,o),
(797,1544,o),
(671,1544,cs),
(329,1544,o),
(86,1216,o),
(86,752,cs),
(86,295,o),
(322,-21,o),
(666,-21,cs)
);
},
{
closed = 1;
nodes = (
(724,1643,o),
(745,1659,o),
(778,1698,cs),
(927,1885,l),
(897,1921,l),
(687,1810,l),
(480,1921,l),
(450,1885,l),
(599,1698,ls),
(628,1664,o),
(647,1643,o),
(687,1643,cs)
);
}
);
};
layerId = "7C8D72FA-6E62-4564-8BB2-D9F9BC4EB15A";
shapes = (
{
ref = C;
},
{
pos = (298,0);
ref = caroncomb.case;
}
);
width = 1234;
}
);
unicode = 268;
},
{
glyphname = Ccedilla;
kernLeft = C;
kernRight = C;
layers = (
{
background = {
anchors = (
{
name = bottom;
pos = (699,0);
},
{
name = topcap;
pos = (698,1643);
}
);
shapes = (
{
closed = 1;
nodes = (
(829,-21,o),
(945,25,o),
(1069,130,c),
(1133,0,l),
(1192,0,l),
(1192,549,l),
(1121,549,l),
(1106,451,o),
(1078,367,o),
(1042,302,cs),
(971,172,o),
(863,99,o),
(734,99,cs),
(498,99,o),
(370,334,o),
(370,772,cs),
(370,1206,o),
(496,1427,o),
(740,1427,cs),
(872,1427,o),
(973,1362,o),
(1046,1219,cs),
(1073,1170,o),
(1095,1109,o),
(1117,1039,c),
(1192,1039,l),
(1192,1523,l),
(1144,1523,l),
(1075,1422,l),
(1069,1422,l),
(965,1500,o),
(827,1544,o),
(695,1544,cs),
(329,1544,o),
(71,1216,o),
(71,752,cs),
(71,292,o),
(323,-21,o),
(690,-21,cs)
);
},
{
closed = 1;
nodes = (
(808,-508,o),
(888,-424,o),
(888,-310,cs),
(888,-198,o),
(819,-115,o),
(707,-115,c),
(753,33,l),
(663,33,l),
(567,-265,l),
(590,-283,l),
(611,-273,o),
(643,-267,o),
(663,-267,cs),
(699,-267,o),
(723,-291,o),
(723,-326,cs),
(723,-364,o),
(690,-401,o),
(641,-401,cs),
(613,-401,o),
(584,-392,o),
(555,-372,c),
(526,-461,l),
(559,-491,o),
(618,-508,o),
(680,-508,cs)
);
}
);
};
layerId = "FA6D65B5-4623-4FAC-A199-3F662257AC29";
shapes = (
{
ref = C;
},
{
pos = (407,0);
ref = cedillacomb;
}
);
width = 1287;
},
{
associatedMasterId = "FA6D65B5-4623-4FAC-A199-3F662257AC29";
layerId = "CBD44848-52BD-4DC5-BFA6-577546B7224D";
shapes = (
{
alignment = -1;
ref = C;
},
{
alignment = -1;
pos = (600,0);
ref = cedilla;
}
);
width = 1531;
},
{
background = {
anchors = (
{
name = bottom;
pos = (687,0);
},
{
name = topcap;
pos = (687,1643);
}
);
shapes = (
{
closed = 1;
nodes = (
(797,-21,o),
(905,25,o),
(1018,130,c),
(1090,0,l),
(1130,0,l),
(1130,523,l),
(1084,523,l),
(1069,419,o),
(1040,330,o),
(1001,261,cs),
(932,138,o),
(828,74,o),
(701,74,cs),
(445,74,o),
(298,326,o),
(298,767,cs),
(298,1208,o),
(442,1452,o),
(701,1452,cs),
(841,1452,o),
(938,1393,o),
(1014,1244,cs),
(1038,1194,o),
(1060,1137,o),
(1078,1064,c),
(1130,1064,l),
(1130,1523,l),
(1099,1523,l),
(1022,1422,l),
(1016,1422,l),
(920,1500,o),
(797,1544,o),
(671,1544,cs),
(329,1544,o),
(86,1216,o),
(86,752,cs),
(86,295,o),
(322,-21,o),
(666,-21,cs)
);
},
{
closed = 1;
nodes = (
(756,-508,o),
(836,-424,o),
(836,-310,cs),
(836,-198,o),
(767,-115,o),
(654,-115,c),
(701,33,l),
(638,33,l),
(542,-248,l),
(558,-266,l),
(582,-256,o),
(614,-250,o),
(638,-250,cs),
(685,-250,o),
(711,-281,o),
(711,-332,cs),
(711,-388,o),
(673,-431,o),
(611,-431,cs),
(581,-431,o),
(558,-423,o),
(522,-397,c),
(501,-461,l),
(528,-491,o),
(576,-508,o),
(628,-508,cs)
);
}
);
};
layerId = "7C8D72FA-6E62-4564-8BB2-D9F9BC4EB15A";
shapes = (
{
ref = C;
},
{
pos = (396,0);
ref = cedillacomb;
}
);
width = 1234;
}
);
unicode = 199;
},
{
glyphname = Ccircumflex;
kernLeft = C;
kernRight = C;
layers = (
{
background = {
anchors = (
{
name = bottom;
pos = (699,0);
},
{
name = topcap;
pos = (698,1643);
}
);
shapes = (
{
closed = 1;
nodes = (
(829,-21,o),
(945,25,o),
(1069,130,c),
(1133,0,l),
(1192,0,l),
(1192,549,l),
(1121,549,l),
(1106,451,o),
(1078,367,o),
(1042,302,cs),
(971,172,o),
(863,99,o),
(734,99,cs),
(498,99,o),
(370,334,o),
(370,772,cs),
(370,1206,o),
(496,1427,o),
(740,1427,cs),
(872,1427,o),
(973,1362,o),
(1046,1219,cs),
(1073,1170,o),
(1095,1109,o),
(1117,1039,c),
(1192,1039,l),
(1192,1523,l),
(1144,1523,l),
(1075,1422,l),
(1069,1422,l),
(965,1500,o),
(827,1544,o),
(695,1544,cs),
(329,1544,o),
(71,1216,o),
(71,752,cs),
(71,292,o),
(323,-21,o),
(690,-21,cs)
);
},
{
closed = 1;
nodes = (
(698,1705,l),
(946,1625,l),
(972,1669,l),
(808,1835,ls),
(765,1878,o),
(734,1900,o),
(699,1900,cs),
(658,1900,o),
(628,1878,o),
(585,1835,cs),
(425,1669,l),
(450,1625,l)
);
}
);
};
layerId = "FA6D65B5-4623-4FAC-A199-3F662257AC29";
shapes = (
{
ref = C;
},
{
pos = (315,0);
ref = circumflexcomb.case;
}
);
width = 1287;
},
{
associatedMasterId = "FA6D65B5-4623-4FAC-A199-3F662257AC29";
layerId = "CBD44848-52BD-4DC5-BFA6-577546B7224D";
shapes = (
{
alignment = -1;
ref = C;
},
{
alignment = -1;
pos = (348,0);
ref = circumflexcomb.case;
}
);
width = 1531;
},
{
background = {
anchors = (
{
name = bottom;
pos = (687,0);
},
{
name = topcap;
pos = (687,1643);
}
);
shapes = (
{
closed = 1;
nodes = (
(797,-21,o),
(905,25,o),
(1018,130,c),
(1090,0,l),
(1130,0,l),
(1130,523,l),
(1084,523,l),
(1069,419,o),
(1040,330,o),
(1001,261,cs),
(932,138,o),
(828,74,o),
(701,74,cs),
(445,74,o),
(298,326,o),
(298,767,cs),
(298,1208,o),
(442,1452,o),
(701,1452,cs),
(841,1452,o),
(938,1393,o),
(1014,1244,cs),
(1038,1194,o),
(1060,1137,o),
(1078,1064,c),
(1130,1064,l),
(1130,1523,l),
(1099,1523,l),
(1022,1422,l),
(1016,1422,l),
(920,1500,o),
(797,1544,o),
(671,1544,cs),
(329,1544,o),
(86,1216,o),
(86,752,cs),
(86,295,o),
(322,-21,o),
(666,-21,cs)
);
},
{
closed = 1;
nodes = (
(687,1733,l),
(897,1622,l),
(927,1658,l),
(778,1845,ls),
(745,1884,o),
(724,1900,o),
(687,1900,cs),
(647,1900,o),
(628,1880,o),
(599,1845,cs),
(450,1658,l),
(480,1622,l)
);
}
);
};
layerId = "7C8D72FA-6E62-4564-8BB2-D9F9BC4EB15A";
shapes = (
{
ref = C;
},
{
pos = (298,0);
ref = circumflexcomb.case;
}
);
width = 1234;
}
);
unicode = 264;
},
{
glyphname = Cdotaccent;
kernLeft = C;
kernRight = C;
layers = (
{
background = {
anchors = (
{
name = bottom;
pos = (699,0);
},
{
name = topcap;
pos = (698,1643);
}
);
shapes = (
{
closed = 1;
nodes = (
(829,-21,o),
(945,25,o),
(1069,130,c),
(1133,0,l),
(1192,0,l),
(1192,549,l),
(1121,549,l),
(1106,451,o),
(1078,367,o),
(1042,302,cs),
(971,172,o),
(863,99,o),
(734,99,cs),
(498,99,o),
(370,334,o),
(370,772,cs),
(370,1206,o),
(496,1427,o),
(740,1427,cs),
(872,1427,o),
(973,1362,o),
(1046,1219,cs),
(1073,1170,o),
(1095,1109,o),
(1117,1039,c),
(1192,1039,l),
(1192,1523,l),
(1144,1523,l),
(1075,1422,l),
(1069,1422,l),
(965,1500,o),
(827,1544,o),
(695,1544,cs),
(329,1544,o),
(71,1216,o),
(71,752,cs),
(71,292,o),
(323,-21,o),
(690,-21,cs)
);
},
{
closed = 1;
nodes = (
(774,1643,o),
(813,1708,o),
(813,1777,cs),
(813,1847,o),
(769,1911,o),
(698,1911,cs),
(626,1911,o),
(586,1847,o),
(586,1777,cs),
(586,1708,o),
(625,1643,o),
(698,1643,cs)
);
}
);
};
layerId = "FA6D65B5-4623-4FAC-A199-3F662257AC29";
shapes = (
{
ref = C;
},
{
pos = (515,0);
ref = dotaccentcomb.case;
}
);
width = 1287;
},
{
associatedMasterId = "FA6D65B5-4623-4FAC-A199-3F662257AC29";
layerId = "CBD44848-52BD-4DC5-BFA6-577546B7224D";
shapes = (
{
alignment = -1;
ref = C;
},
{
alignment = -1;
pos = (727,0);
ref = dotaccentcomb.case;
}
);
width = 1531;
},
{
background = {
anchors = (
{
name = bottom;
pos = (687,0);
},
{
name = topcap;
pos = (687,1643);
}
);
shapes = (
{
closed = 1;
nodes = (
(797,-21,o),
(905,25,o),
(1018,130,c),
(1090,0,l),
(1130,0,l),
(1130,523,l),
(1084,523,l),
(1069,419,o),
(1040,330,o),
(1001,261,cs),
(932,138,o),
(828,74,o),
(701,74,cs),
(445,74,o),
(298,326,o),
(298,767,cs),
(298,1208,o),
(442,1452,o),
(701,1452,cs),
(841,1452,o),
(938,1393,o),
(1014,1244,cs),
(1038,1194,o),
(1060,1137,o),
(1078,1064,c),
(1130,1064,l),
(1130,1523,l),
(1099,1523,l),
(1022,1422,l),
(1016,1422,l),
(920,1500,o),
(797,1544,o),
(671,1544,cs),
(329,1544,o),
(86,1216,o),
(86,752,cs),
(86,295,o),
(322,-21,o),
(666,-21,cs)
);
},
{
closed = 1;
nodes = (
(763,1643,o),
(803,1701,o),
(803,1770,cs),
(803,1844,o),
(762,1900,o),
(698,1900,cs),
(635,1900,o),
(596,1844,o),
(596,1770,cs),
(596,1701,o),
(635,1643,o),
(698,1643,cs)
);
}
);
};
layerId = "7C8D72FA-6E62-4564-8BB2-D9F9BC4EB15A";
shapes = (
{
ref = C;
},
{
pos = (466,0);
ref = dotaccentcomb.case;
}
);
width = 1234;
}
);
unicode = 266;
},
{
glyphname = D;
kernLeft = I;
kernRight = D;
layers = (
{
anchors = (
{
name = bottom;
pos = (695,0);
},
{
name = center;
pos = (348,762);
},
{
name = top;
pos = (695,1523);
}
);
background = {
anchors = (
{
name = bottom;
pos = (652,0);
},
{
name = topcap;
pos = (650,1643);
}
);
shapes = (
{
closed = 1;
nodes = (
(652,0,l),
(831,0,o),
(946,33,o),
(1052,117,cs),
(1212,244,o),
(1318,487,o),
(1318,763,cs),
(1318,1033,o),
(1218,1252,o),
(1064,1379,cs),
(936,1487,o),
(773,1523,o),
(498,1523,cs),
(65,1523,l),
(65,1451,l),
(202,1414,l),
(202,113,l),
(65,75,l),
(65,0,l)
);
},
{
closed = 1;
nodes = (
(518,107,o),
(474,143,o),
(474,226,cs),
(474,1414,l),
(616,1414,ls),
(750,1414,o),
(847,1368,o),
(910,1271,cs),
(981,1164,o),
(1014,1005,o),
(1014,763,cs),
(1014,518,o),
(981,344,o),
(910,240,cs),
(849,149,o),
(758,107,o),
(634,107,cs)
);
}
);
};
layerId = "FA6D65B5-4623-4FAC-A199-3F662257AC29";
shapes = (
{
closed = 1;
nodes = (
(652,0,l),
(831,0,o),
(946,33,o),
(1052,117,cs),
(1212,244,o),
(1318,487,o),
(1318,763,cs),
(1318,1033,o),
(1218,1252,o),
(1064,1379,cs),
(936,1487,o),
(773,1523,o),
(498,1523,cs),
(65,1523,l),
(65,1451,l),
(202,1414,l),
(202,113,l),
(65,75,l),
(65,0,l)
);
},
{
closed = 1;
nodes = (
(518,107,o),
(474,143,o),
(474,226,cs),
(474,1414,l),
(616,1414,ls),
(750,1414,o),
(847,1368,o),
(910,1271,cs),
(981,1164,o),
(1014,1005,o),
(1014,763,cs),
(1014,518,o),
(981,344,o),
(910,240,cs),
(849,149,o),
(758,107,o),
(634,107,cs)
);
}
);
width = 1390;
},
{
anchors = (
{
name = bottom;
pos = (812,0);
},
{
name = topcap;
pos = (812,1643);
}
);
associatedMasterId = "FA6D65B5-4623-4FAC-A199-3F662257AC29";
layerId = "CBD44848-52BD-4DC5-BFA6-577546B7224D";
shapes = (
{
closed = 1;
nodes = (
(760,0,l),
(958,0,o),
(1082,33,o),
(1198,117,cs),
(1381,252,o),
(1490,489,o),
(1490,758,cs),
(1490,1018,o),
(1390,1242,o),
(1211,1379,cs),
(1073,1484,o),
(904,1523,o),
(590,1523,cs),
(97,1523,l),
(97,1479,l),
(265,1441,l),
(265,83,l),
(97,45,l),
(97,0,l)
);
},
{
closed = 1;
nodes = (
(523,75,o),
(473,104,o),
(473,193,cs),
(473,1445,l),
(630,1445,ls),
(851,1445,o),
(974,1406,o),
(1076,1300,cs),
(1185,1183,o),
(1242,1005,o),
(1242,782,cs),
(1242,560,o),
(1185,366,o),
(1080,235,cs),
(985,120,o),
(873,75,o),
(679,75,cs)
);
}
);
width = 1604;
},
{
anchors = (
{
name = bottom;
pos = (649,0);
},
{
name = center;
pos = (324,762);
},
{
name = top;
pos = (649,1523);
}
);
background = {
anchors = (
{
name = bottom;
pos = (650,0);
},
{
name = topcap;
pos = (650,1643);
}
);
shapes = (
{
closed = 1;
nodes = (
(614,0,l),
(774,0,o),
(877,33,o),
(971,117,cs),
(1119,251,o),
(1209,489,o),
(1209,759,cs),
(1209,1020,o),
(1126,1244,o),
(982,1379,cs),
(869,1484,o),
(730,1523,o),
(474,1523,cs),
(75,1523,l),
(75,1475,l),
(211,1437,l),
(211,88,l),
(75,50,l),
(75,0,l)
);
},
{
closed = 1;
nodes = (
(432,79,o),
(391,108,o),
(391,198,cs),
(391,1441,l),
(518,1441,ls),
(690,1441,o),
(789,1400,o),
(867,1297,cs),
(953,1180,o),
(997,1005,o),
(997,780,cs),
(997,555,o),
(953,364,o),
(870,236,cs),
(796,124,o),
(706,79,o),
(555,79,cs)
);
}
);
};
layerId = "7C8D72FA-6E62-4564-8BB2-D9F9BC4EB15A";
shapes = (
{
closed = 1;
nodes = (
(614,0,l),
(774,0,o),
(877,33,o),
(971,117,cs),
(1119,251,o),
(1209,489,o),
(1209,759,cs),
(1209,1020,o),
(1126,1244,o),
(982,1379,cs),
(869,1484,o),
(730,1523,o),
(474,1523,cs),
(75,1523,l),
(75,1475,l),
(211,1437,l),
(211,88,l),
(75,50,l),
(75,0,l)
);
},
{
closed = 1;
nodes = (
(432,79,o),
(391,108,o),
(391,198,cs),
(391,1441,l),
(518,1441,ls),
(690,1441,o),
(789,1400,o),
(867,1297,cs),
(953,1180,o),
(997,1005,o),
(997,780,cs),
(997,555,o),
(953,364,o),
(870,236,cs),
(796,124,o),
(706,79,o),
(555,79,cs)
);
}
);
width = 1297;
}
);
unicode = 68;
},
{
glyphname = DZ;
kernRight = Z;
layers = (
{
anchors = (
{
name = topcap;
pos = (1999,1643);
}
);
background = {
anchors = (
{
name = bottom;
pos = (1881,0);
},
{
name = topcap;
pos = (1999,1643);
}
);
shapes = (
{
closed = 1;
nodes = (
(652,0,l),
(831,0,o),
(946,33,o),
(1052,117,cs),
(1212,244,o),
(1318,487,o),
(1318,763,cs),
(1318,1033,o),
(1218,1252,o),
(1064,1379,cs),
(936,1487,o),
(773,1523,o),
(498,1523,cs),
(65,1523,l),
(65,1451,l),
(202,1414,l),
(202,113,l),
(65,75,l),
(65,0,l)
);
},
{
closed = 1;
nodes = (
(518,107,o),
(474,143,o),
(474,226,cs),
(474,1414,l),
(616,1414,ls),
(750,1414,o),
(847,1368,o),
(910,1271,cs),
(981,1164,o),
(1014,1005,o),
(1014,763,cs),
(1014,518,o),
(981,344,o),
(910,240,cs),
(849,149,o),
(758,107,o),
(634,107,cs)
);
},
{
closed = 1;
nodes = (
(2384,0,l),
(2483,514,l),
(2417,518,l),
(2368,359,o),
(2325,256,o),
(2244,109,c),
(1787,109,l),
(2452,1451,l),
(2452,1523,l),
(1534,1523,l),
(1452,1076,l),
(1518,1071,l),
(1539,1153,o),
(1586,1275,o),
(1650,1415,c),
(2082,1415,l),
(1420,75,l),
(1420,0,l)
);
}
);
};
layerId = "FA6D65B5-4623-4FAC-A199-3F662257AC29";
shapes = (
{
ref = D;
},
{
pos = (1377,0);
ref = Z;
}
);
width = 2533;
},
{
anchors = (
{
name = topcap;
pos = (2274,1643);
}
);
associatedMasterId = "FA6D65B5-4623-4FAC-A199-3F662257AC29";
layerId = "CBD44848-52BD-4DC5-BFA6-577546B7224D";
shapes = (
{
alignment = -1;
ref = D;
},
{
alignment = -1;
pos = (1591,0);
ref = Z;
}
);
width = 2929;
},
{
anchors = (
{
name = topcap;
pos = (1843,1643);
}
);
background = {
anchors = (
{
name = bottom;
pos = (1791,0);
},
{
name = topcap;
pos = (1843,1643);
}
);
shapes = (
{
closed = 1;
nodes = (
(614,0,l),
(774,0,o),
(877,33,o),
(971,117,cs),
(1119,251,o),
(1209,489,o),
(1209,759,cs),
(1209,1020,o),
(1126,1244,o),
(982,1379,cs),
(869,1484,o),
(730,1523,o),
(474,1523,cs),
(75,1523,l),
(75,1475,l),
(211,1437,l),
(211,88,l),
(75,50,l),
(75,0,l)
);
},
{
closed = 1;
nodes = (
(432,79,o),
(391,108,o),
(391,198,cs),
(391,1441,l),
(518,1441,ls),
(690,1441,o),
(789,1400,o),
(867,1297,cs),
(953,1180,o),
(997,1005,o),
(997,780,cs),
(997,555,o),
(953,364,o),
(870,236,cs),
(796,124,o),
(706,79,o),
(555,79,cs)
);
},
{
closed = 1;
nodes = (
(2217,0,l),
(2301,487,l),
(2258,493,l),
(2201,322,o),
(2158,220,o),
(2085,83,c),
(1565,83,l),
(2285,1468,l),
(2285,1523,l),
(1449,1523,l),
(1380,1090,l),
(1425,1088,l),
(1447,1172,o),
(1489,1284,o),
(1558,1441,c),
(2053,1441,l),
(1336,58,l),
(1336,0,l)
);
}
);
};
layerId = "7C8D72FA-6E62-4564-8BB2-D9F9BC4EB15A";
shapes = (
{
ref = D;
},
{
pos = (1287,0);
ref = Z;
}
);
width = 2369;
}
);
unicode = 497;
},
{
glyphname = DZcaron;
layers = (
{
background = {
anchors = (
{
name = bottom;
pos = (1881,0);
},
{
name = topcap;
pos = (1991,1643);
}
);
shapes = (
{
closed = 1;
nodes = (
(652,0,l),
(831,0,o),
(946,33,o),
(1052,117,cs),
(1212,244,o),
(1318,487,o),
(1318,763,cs),
(1318,1033,o),
(1218,1252,o),
(1064,1379,cs),
(936,1487,o),
(773,1523,o),
(498,1523,cs),
(65,1523,l),
(65,1451,l),
(202,1414,l),
(202,113,l),
(65,75,l),
(65,0,l)
);
},
{
closed = 1;
nodes = (
(518,107,o),
(474,143,o),
(474,226,cs),
(474,1414,l),
(616,1414,ls),
(750,1414,o),
(847,1368,o),
(910,1271,cs),
(981,1164,o),
(1014,1005,o),
(1014,763,cs),
(1014,518,o),
(981,344,o),
(910,240,cs),
(849,149,o),
(758,107,o),
(634,107,cs)
);
},
{
closed = 1;
nodes = (
(2384,0,l),
(2483,514,l),
(2417,518,l),
(2368,359,o),
(2325,256,o),
(2244,109,c),
(1787,109,l),
(2452,1451,l),
(2452,1523,l),
(1534,1523,l),
(1452,1076,l),
(1518,1071,l),
(1539,1153,o),
(1586,1275,o),
(1650,1415,c),
(2082,1415,l),
(1420,75,l),
(1420,0,l)
);
},
{
closed = 1;
nodes = (
(2026,1644,o),
(2057,1665,o),
(2100,1709,cs),
(2264,1876,l),
(2238,1920,l),
(1990,1838,l),
(1742,1920,l),
(1717,1876,l),
(1877,1709,ls),
(1920,1665,o),
(1950,1644,o),
(1991,1644,cs)
);
}
);
};
layerId = "FA6D65B5-4623-4FAC-A199-3F662257AC29";
shapes = (
{
ref = DZ;
},
{
pos = (1612,0);
ref = caroncomb.case;
}
);
width = 2533;
},
{
associatedMasterId = "FA6D65B5-4623-4FAC-A199-3F662257AC29";
layerId = "CBD44848-52BD-4DC5-BFA6-577546B7224D";
shapes = (
{
alignment = -1;
ref = D;
},
{
alignment = -1;
pos = (1591,0);
ref = Z;
},
{
alignment = -1;
pos = (1986,0);
ref = caroncomb.case;
}
);
width = 2929;
},
{
background = {
anchors = (
{
name = bottom;
pos = (1791,0);
},
{
name = topcap;
pos = (1858,1643);
}
);
shapes = (
{
closed = 1;
nodes = (
(614,0,l),
(774,0,o),
(877,33,o),
(971,117,cs),
(1119,251,o),
(1209,489,o),
(1209,759,cs),
(1209,1020,o),
(1126,1244,o),
(982,1379,cs),
(869,1484,o),
(730,1523,o),
(474,1523,cs),
(75,1523,l),
(75,1475,l),
(211,1437,l),
(211,88,l),
(75,50,l),
(75,0,l)
);
},
{
closed = 1;
nodes = (
(432,79,o),
(391,108,o),
(391,198,cs),
(391,1441,l),
(518,1441,ls),
(690,1441,o),
(789,1400,o),
(867,1297,cs),
(953,1180,o),
(997,1005,o),
(997,780,cs),
(997,555,o),
(953,364,o),
(870,236,cs),
(796,124,o),
(706,79,o),
(555,79,cs)
);
},
{
closed = 1;
nodes = (
(2217,0,l),
(2301,487,l),
(2258,493,l),
(2201,322,o),
(2158,220,o),
(2085,83,c),
(1565,83,l),
(2285,1468,l),
(2285,1523,l),
(1449,1523,l),
(1380,1090,l),
(1425,1088,l),
(1447,1172,o),
(1489,1284,o),
(1558,1441,c),
(2053,1441,l),
(1336,58,l),
(1336,0,l)
);
},
{
closed = 1;
nodes = (
(1894,1643,o),
(1915,1659,o),
(1948,1698,cs),
(2097,1885,l),
(2067,1921,l),
(1857,1810,l),
(1650,1921,l),
(1620,1885,l),
(1769,1698,ls),
(1798,1664,o),
(1817,1643,o),
(1857,1643,cs)
);
}
);
};
layerId = "7C8D72FA-6E62-4564-8BB2-D9F9BC4EB15A";
shapes = (
{
ref = DZ;
},
{
pos = (1509,0);
ref = caroncomb.case;
}
);
width = 2369;
}
);
unicode = 452;
},
{
glyphname = Dcaron;
kernLeft = I;
kernRight = D;
layers = (
{
background = {
anchors = (
{
name = bottom;
pos = (652,0);
},
{
name = topcap;
pos = (650,1643);
}
);
shapes = (
{
closed = 1;
nodes = (
(652,0,l),
(831,0,o),
(946,33,o),
(1052,117,cs),
(1212,244,o),
(1318,487,o),
(1318,763,cs),
(1318,1033,o),
(1218,1252,o),
(1064,1379,cs),
(936,1487,o),
(773,1523,o),
(498,1523,cs),
(65,1523,l),
(65,1451,l),
(202,1414,l),
(202,113,l),
(65,75,l),
(65,0,l)
);
},
{
closed = 1;
nodes = (
(518,107,o),
(474,143,o),
(474,226,cs),
(474,1414,l),
(616,1414,ls),
(750,1414,o),
(847,1368,o),
(910,1271,cs),
(981,1164,o),
(1014,1005,o),
(1014,763,cs),
(1014,518,o),
(981,344,o),
(910,240,cs),
(849,149,o),
(758,107,o),
(634,107,cs)
);
},
{
closed = 1;
nodes = (
(685,1644,o),
(716,1665,o),
(759,1709,cs),
(923,1876,l),
(897,1920,l),
(649,1838,l),
(401,1920,l),
(376,1876,l),
(536,1709,ls),
(579,1665,o),
(609,1644,o),
(650,1644,cs)
);
}
);
};
layerId = "FA6D65B5-4623-4FAC-A199-3F662257AC29";
shapes = (
{
ref = D;
},
{
ref = caroncomb.case;
}
);
width = 1390;
},
{
associatedMasterId = "FA6D65B5-4623-4FAC-A199-3F662257AC29";
layerId = "CBD44848-52BD-4DC5-BFA6-577546B7224D";
shapes = (
{
alignment = -1;
ref = D;
},
{
alignment = -1;
pos = (450,0);
ref = caroncomb.case;
}
);
width = 1604;
},
{
background = {
anchors = (
{
name = bottom;
pos = (650,0);
},
{
name = topcap;
pos = (650,1643);
}
);
shapes = (
{
closed = 1;
nodes = (
(614,0,l),
(774,0,o),
(877,33,o),
(971,117,cs),
(1119,251,o),
(1209,489,o),
(1209,759,cs),
(1209,1020,o),
(1126,1244,o),
(982,1379,cs),
(869,1484,o),
(730,1523,o),
(474,1523,cs),
(75,1523,l),
(75,1475,l),
(211,1437,l),
(211,88,l),
(75,50,l),
(75,0,l)
);
},
{
closed = 1;
nodes = (
(432,79,o),
(391,108,o),
(391,198,cs),
(391,1441,l),
(518,1441,ls),
(690,1441,o),
(789,1400,o),
(867,1297,cs),
(953,1180,o),
(997,1005,o),
(997,780,cs),
(997,555,o),
(953,364,o),
(870,236,cs),
(796,124,o),
(706,79,o),
(555,79,cs)
);
},
{
closed = 1;
nodes = (
(650,1643,o),
(671,1659,o),
(704,1698,cs),
(853,1885,l),
(823,1921,l),
(613,1810,l),
(406,1921,l),
(376,1885,l),
(525,1698,ls),
(554,1664,o),
(573,1643,o),
(613,1643,cs)
);
}
);
};
layerId = "7C8D72FA-6E62-4564-8BB2-D9F9BC4EB15A";
shapes = (
{
ref = D;
},
{
pos = (330,0);
ref = caroncomb.case;
}
);
width = 1297;
}
);
unicode = 270;
},
{
glyphname = Dcroat;
kernLeft = I;
kernRight = D;
layers = (
{
background = {
shapes = (
{
closed = 1;
nodes = (
(652,0,ls),
(831,0,o),
(946,33,o),
(1052,117,cs),
(1212,245,o),
(1318,487,o),
(1318,763,cs),
(1318,1033,o),
(1218,1251,o),
(1064,1379,cs),
(936,1487,o),
(773,1523,o),
(498,1523,cs),
(65,1523,l),
(65,1451,l),
(202,1414,l),
(202,869,l),
(83,869,l),
(83,700,l),
(202,700,l),
(202,113,l),
(65,75,l),
(65,0,l)
);
},
{
closed = 1;
nodes = (
(518,107,o),
(474,143,o),
(474,226,cs),
(474,700,l),
(695,700,l),
(695,869,l),
(474,869,l),
(474,1414,l),
(616,1414,ls),
(750,1414,o),
(847,1368,o),
(910,1271,cs),
(981,1164,o),
(1014,1005,o),
(1014,763,cs),
(1014,518,o),
(981,344,o),
(910,240,cs),
(849,149,o),
(758,107,o),
(634,107,cs)
);
}
);
};
layerId = "FA6D65B5-4623-4FAC-A199-3F662257AC29";
shapes = (
{
ref = Eth;
}
);
width = 1390;
},
{
associatedMasterId = "FA6D65B5-4623-4FAC-A199-3F662257AC29";
layerId = "CBD44848-52BD-4DC5-BFA6-577546B7224D";
shapes = (
{
closed = 1;
nodes = (
(762,0,ls),
(960,0,o),
(1084,33,o),
(1200,117,cs),
(1383,252,o),
(1492,489,o),
(1492,758,cs),
(1492,1018,o),
(1391,1242,o),
(1214,1379,cs),
(1076,1484,o),
(906,1523,o),
(592,1523,cs),
(99,1523,l),
(99,1479,l),
(267,1441,l),
(267,849,l),
(112,849,l),
(112,721,l),
(267,721,l),
(267,83,l),
(99,45,l),
(99,0,l)
);
},
{
closed = 1;
nodes = (
(524,75,o),
(474,104,o),
(474,193,cs),
(474,721,l),
(719,721,l),
(719,849,l),
(474,849,l),
(474,1445,l),
(631,1445,ls),
(853,1445,o),
(976,1406,o),
(1077,1300,cs),
(1187,1183,o),
(1245,1005,o),
(1245,782,cs),
(1245,560,o),
(1187,366,o),
(1082,235,cs),
(987,120,o),
(875,75,o),
(681,75,cs)
);
}
);
width = 1605;
},
{
background = {
shapes = (
{
closed = 1;
nodes = (
(615,0,ls),
(777,0,o),
(878,33,o),
(972,117,cs),
(1121,251,o),
(1210,489,o),
(1210,759,cs),
(1210,1020,o),
(1126,1244,o),
(983,1379,cs),
(870,1484,o),
(731,1523,o),
(476,1523,cs),
(78,1523,l),
(78,1475,l),
(213,1437,l),
(213,852,l),
(89,852,l),
(89,719,l),
(213,719,l),
(213,88,l),
(78,50,l),
(78,0,l)
);
},
{
closed = 1;
nodes = (
(433,79,o),
(393,108,o),
(393,198,cs),
(393,719,l),
(590,719,l),
(590,852,l),
(393,852,l),
(393,1441,l),
(519,1441,ls),
(692,1441,o),
(790,1400,o),
(868,1297,cs),
(954,1180,o),
(998,1005,o),
(998,780,cs),
(998,555,o),
(954,364,o),
(872,236,cs),
(798,124,o),
(707,79,o),
(557,79,cs)
);
}
);
};
layerId = "7C8D72FA-6E62-4564-8BB2-D9F9BC4EB15A";
shapes = (
{
ref = Eth;
}
);
width = 1298;
}
);
unicode = 272;
},
{
glyphname = Ddotbelow;
kernLeft = I;
kernRight = D;
layers = (
{
background = {
anchors = (
{
name = bottom;
pos = (652,0);
},
{
name = topcap;
pos = (650,1643);
}
);
shapes = (
{
closed = 1;
nodes = (
(652,0,l),
(831,0,o),
(946,33,o),
(1052,117,cs),
(1212,244,o),
(1318,487,o),
(1318,763,cs),
(1318,1033,o),
(1218,1252,o),
(1064,1379,cs),
(936,1487,o),
(773,1523,o),
(498,1523,cs),
(65,1523,l),
(65,1451,l),
(202,1414,l),
(202,113,l),
(65,75,l),
(65,0,l)
);
},
{
closed = 1;
nodes = (
(518,107,o),
(474,143,o),
(474,226,cs),
(474,1414,l),
(616,1414,ls),
(750,1414,o),
(847,1368,o),
(910,1271,cs),
(981,1164,o),
(1014,1005,o),
(1014,763,cs),
(1014,518,o),
(981,344,o),
(910,240,cs),
(849,149,o),
(758,107,o),
(634,107,cs)
);
},
{
closed = 1;
nodes = (
(876,-515,o),
(923,-433,o),
(923,-352,cs),
(923,-265,o),
(869,-188,o),
(782,-188,cs),
(696,-188,o),
(647,-265,o),
(647,-352,cs),
(647,-433,o),
(692,-515,o),
(782,-515,cs)
);
}
);
};
layerId = "FA6D65B5-4623-4FAC-A199-3F662257AC29";
shapes = (
{
ref = D;
},
{
pos = (500,0);
ref = dotbelow;
}
);
width = 1390;
},
{
associatedMasterId = "FA6D65B5-4623-4FAC-A199-3F662257AC29";
layerId = "CBD44848-52BD-4DC5-BFA6-577546B7224D";
shapes = (
{
alignment = -1;
ref = D;
},
{
alignment = -1;
pos = (644,0);
ref = dotbelow;
}
);
width = 1604;
},
{
background = {
anchors = (
{
name = bottom;
pos = (650,0);
},
{
name = topcap;
pos = (650,1643);
}
);
shapes = (
{
closed = 1;
nodes = (
(614,0,l),
(774,0,o),
(877,33,o),
(971,117,cs),
(1119,251,o),
(1209,489,o),
(1209,759,cs),
(1209,1020,o),
(1126,1244,o),
(982,1379,cs),
(869,1484,o),
(730,1523,o),
(474,1523,cs),
(75,1523,l),
(75,1475,l),
(211,1437,l),
(211,88,l),
(75,50,l),
(75,0,l)
);
},
{
closed = 1;
nodes = (
(432,79,o),
(391,108,o),
(391,198,cs),
(391,1441,l),
(518,1441,ls),
(690,1441,o),
(789,1400,o),
(867,1297,cs),
(953,1180,o),
(997,1005,o),
(997,780,cs),
(997,555,o),
(953,364,o),
(870,236,cs),
(796,124,o),
(706,79,o),
(555,79,cs)
);
},
{
closed = 1;
nodes = (
(831,-508,o),
(871,-448,o),
(871,-377,cs),
(871,-302,o),
(830,-243,o),
(763,-243,cs),
(698,-243,o),
(658,-302,o),
(658,-377,cs),
(658,-448,o),
(698,-508,o),
(763,-508,cs)
);
}
);
};
layerId = "7C8D72FA-6E62-4564-8BB2-D9F9BC4EB15A";
shapes = (
{
ref = D;
},
{
pos = (527,0);
ref = dotbelow;
}
);
width = 1297;
}
);
unicode = 7692;
},
{
glyphname = Dz;
kernRight = z;
layers = (
{
background = {
anchors = (
{
name = bottom;
pos = (1833,0);
},
{
name = top;
pos = (1858,1289);
},
{
name = topcap;
pos = (650,1643);
}
);
shapes = (
{
closed = 1;
nodes = (
(652,0,l),
(831,0,o),
(946,33,o),
(1052,117,cs),
(1212,244,o),
(1318,487,o),
(1318,763,cs),
(1318,1033,o),
(1218,1252,o),
(1064,1379,cs),
(936,1487,o),
(773,1523,o),
(498,1523,cs),
(65,1523,l),
(65,1451,l),
(202,1414,l),
(202,113,l),
(65,75,l),
(65,0,l)
);
},
{
closed = 1;
nodes = (
(518,107,o),
(474,143,o),
(474,226,cs),
(474,1414,l),
(616,1414,ls),
(750,1414,o),
(847,1368,o),
(910,1271,cs),
(981,1164,o),
(1014,1005,o),
(1014,763,cs),
(1014,518,o),
(981,344,o),
(910,240,cs),
(849,149,o),
(758,107,o),
(634,107,cs)
);
},
{
closed = 1;
nodes = (
(2199,0,l),
(2217,379,l),
(2156,383,l),
(2140,312,o),
(2100,200,o),
(2055,93,c),
(1748,93,l),
(2217,985,l),
(2217,1049,l),
(1496,1049,l),
(1466,660,l),
(1528,655,l),
(1540,712,o),
(1568,792,o),
(1631,956,c),
(1904,956,l),
(1432,66,l),
(1432,0,l)
);
}
);
};
layerId = "FA6D65B5-4623-4FAC-A199-3F662257AC29";
shapes = (
{
ref = D;
},
{
pos = (1382,0);
ref = z;
}
);
width = 2286;
},
{
associatedMasterId = "FA6D65B5-4623-4FAC-A199-3F662257AC29";
layerId = "CBD44848-52BD-4DC5-BFA6-577546B7224D";
shapes = (
{
alignment = -1;
ref = D;
},
{
alignment = -1;
pos = (1596,0);
ref = z;
}
);
width = 2612;
},
{
background = {
anchors = (
{
name = bottom;
pos = (1710,0);
},
{
name = top;
pos = (1718,1289);
},
{
name = topcap;
pos = (650,1643);
}
);
shapes = (
{
closed = 1;
nodes = (
(614,0,l),
(774,0,o),
(877,33,o),
(971,117,cs),
(1119,251,o),
(1209,489,o),
(1209,759,cs),
(1209,1020,o),
(1126,1244,o),
(982,1379,cs),
(869,1484,o),
(730,1523,o),
(474,1523,cs),
(75,1523,l),
(75,1475,l),
(211,1437,l),
(211,88,l),
(75,50,l),
(75,0,l)
);
},
{
closed = 1;
nodes = (
(432,79,o),
(391,108,o),
(391,198,cs),
(391,1441,l),
(518,1441,ls),
(690,1441,o),
(789,1400,o),
(867,1297,cs),
(953,1180,o),
(997,1005,o),
(997,780,cs),
(997,555,o),
(953,364,o),
(870,236,cs),
(796,124,o),
(706,79,o),
(555,79,cs)
);
},
{
closed = 1;
nodes = (
(2024,0,l),
(2035,379,l),
(1998,383,l),
(1985,306,o),
(1955,181,o),
(1918,67,c),
(1559,67,l),
(2055,994,l),
(2055,1049,l),
(1409,1049,l),
(1389,660,l),
(1426,655,l),
(1436,717,o),
(1455,803,o),
(1509,981,c),
(1849,981,l),
(1358,56,l),
(1358,0,l)
);
}
);
};
layerId = "7C8D72FA-6E62-4564-8BB2-D9F9BC4EB15A";
shapes = (
{
ref = D;
},
{
pos = (1297,0);
ref = z;
}
);
width = 2122;
}
);
unicode = 498;
},
{
glyphname = Dzcaron;
kernRight = z;
layers = (
{
background = {
anchors = (
{
name = bottom;
pos = (1833,0);
},
{
name = top;
pos = (1858,1289);
},
{
name = topcap;
pos = (650,1643);
}
);
shapes = (
{
closed = 1;
nodes = (
(652,0,l),
(831,0,o),
(946,33,o),
(1052,117,cs),
(1212,244,o),
(1318,487,o),
(1318,763,cs),
(1318,1033,o),
(1218,1252,o),
(1064,1379,cs),
(936,1487,o),
(773,1523,o),
(498,1523,cs),
(65,1523,l),
(65,1451,l),
(202,1414,l),
(202,113,l),
(65,75,l),
(65,0,l)
);
},
{
closed = 1;
nodes = (
(518,107,o),
(474,143,o),
(474,226,cs),
(474,1414,l),
(616,1414,ls),
(750,1414,o),
(847,1368,o),
(910,1271,cs),
(981,1164,o),
(1014,1005,o),
(1014,763,cs),
(1014,518,o),
(981,344,o),
(910,240,cs),
(849,149,o),
(758,107,o),
(634,107,cs)
);
},
{
closed = 1;
nodes = (
(2199,0,l),
(2217,379,l),
(2156,383,l),
(2140,312,o),
(2100,200,o),
(2055,93,c),
(1748,93,l),
(2217,985,l),
(2217,1049,l),
(1496,1049,l),
(1466,660,l),
(1528,655,l),
(1540,712,o),
(1568,792,o),
(1631,956,c),
(1904,956,l),
(1432,66,l),
(1432,0,l)
);
},
{
closed = 1;
nodes = (
(1909,1247,o),
(1935,1272,o),
(1965,1341,cs),
(2100,1677,l),
(2051,1701,l),
(1858,1470,l),
(1665,1701,l),
(1617,1677,l),
(1748,1341,ls),
(1775,1274,o),
(1809,1247,o),
(1860,1247,cs)
);
}
);
};
layerId = "FA6D65B5-4623-4FAC-A199-3F662257AC29";
shapes = (
{
ref = D;
},
{
pos = (1382,0);
ref = zcaron;
}
);
width = 2286;
},
{
associatedMasterId = "FA6D65B5-4623-4FAC-A199-3F662257AC29";
layerId = "CBD44848-52BD-4DC5-BFA6-577546B7224D";
shapes = (
{
alignment = -1;
ref = D;
},
{
alignment = -1;
pos = (1604,0);
ref = z;
},
{
alignment = -1;
pos = (1880,-5);
ref = caron;
}
);
width = 2617;
},
{
background = {
anchors = (
{
name = bottom;
pos = (1710,0);
},
{
name = top;
pos = (1718,1289);
},
{
name = topcap;
pos = (650,1643);
}
);
shapes = (
{
closed = 1;
nodes = (
(614,0,l),
(774,0,o),
(877,33,o),
(971,117,cs),
(1119,251,o),
(1209,489,o),
(1209,759,cs),
(1209,1020,o),
(1126,1244,o),
(982,1379,cs),
(869,1484,o),
(730,1523,o),
(474,1523,cs),
(75,1523,l),
(75,1475,l),
(211,1437,l),
(211,88,l),
(75,50,l),
(75,0,l)
);
},
{
closed = 1;
nodes = (
(432,79,o),
(391,108,o),
(391,198,cs),
(391,1441,l),
(518,1441,ls),
(690,1441,o),
(789,1400,o),
(867,1297,cs),
(953,1180,o),
(997,1005,o),
(997,780,cs),
(997,555,o),
(953,364,o),
(870,236,cs),
(796,124,o),
(706,79,o),
(555,79,cs)
);
},
{
closed = 1;
nodes = (
(2024,0,l),
(2035,379,l),
(1998,383,l),
(1985,306,o),
(1955,181,o),
(1918,67,c),
(1559,67,l),
(2055,994,l),
(2055,1049,l),
(1409,1049,l),
(1389,660,l),
(1426,655,l),
(1436,717,o),
(1455,803,o),
(1509,981,c),
(1849,981,l),
(1358,56,l),
(1358,0,l)
);
},
{
closed = 1;
nodes = (
(1779,1244,o),
(1799,1264,o),
(1816,1306,cs),
(1949,1674,l),
(1914,1698,l),
(1742,1425,l),
(1569,1698,l),
(1535,1674,l),
(1665,1306,ls),
(1682,1265,o),
(1701,1244,o),
(1742,1244,cs)
);
}
);
};
layerId = "7C8D72FA-6E62-4564-8BB2-D9F9BC4EB15A";
shapes = (
{
ref = D;
},
{
pos = (1297,0);
ref = zcaron;
}
);
width = 2122;
}
);
unicode = 453;
},
{
glyphname = Eth;
kernLeft = I;
kernRight = D;
layers = (
{
anchors = (
{
name = bottom;
pos = (695,0);
},
{
name = top;
pos = (695,1523);
}
);
background = {
shapes = (
{
closed = 1;
nodes = (
(652,0,ls),
(831,0,o),
(946,33,o),
(1052,117,cs),
(1212,245,o),
(1318,487,o),
(1318,763,cs),
(1318,1033,o),
(1218,1251,o),
(1064,1379,cs),
(936,1487,o),
(773,1523,o),
(498,1523,cs),
(65,1523,l),
(65,1451,l),
(202,1414,l),
(202,869,l),
(83,869,l),
(83,700,l),
(202,700,l),
(202,113,l),
(65,75,l),
(65,0,l)
);
},
{
closed = 1;
nodes = (
(518,107,o),
(474,143,o),
(474,226,cs),
(474,700,l),
(695,700,l),
(695,869,l),
(474,869,l),
(474,1414,l),
(616,1414,ls),
(750,1414,o),
(847,1368,o),
(910,1271,cs),
(981,1164,o),
(1014,1005,o),
(1014,763,cs),
(1014,518,o),
(981,344,o),
(910,240,cs),
(849,149,o),
(758,107,o),
(634,107,cs)
);
}
);
};
layerId = "FA6D65B5-4623-4FAC-A199-3F662257AC29";
shapes = (
{
closed = 1;
nodes = (
(652,0,ls),
(831,0,o),
(946,33,o),
(1052,117,cs),
(1212,245,o),
(1318,487,o),
(1318,763,cs),
(1318,1033,o),
(1218,1251,o),
(1064,1379,cs),
(936,1487,o),
(773,1523,o),
(498,1523,cs),
(65,1523,l),
(65,1451,l),
(202,1414,l),
(202,869,l),
(83,869,l),
(83,700,l),
(202,700,l),
(202,113,l),
(65,75,l),
(65,0,l)
);
},
{
closed = 1;
nodes = (
(518,107,o),
(474,143,o),
(474,226,cs),
(474,700,l),
(695,700,l),
(695,869,l),
(474,869,l),
(474,1414,l),
(616,1414,ls),
(750,1414,o),
(847,1368,o),
(910,1271,cs),
(981,1164,o),
(1014,1005,o),
(1014,763,cs),
(1014,518,o),
(981,344,o),
(910,240,cs),
(849,149,o),
(758,107,o),
(634,107,cs)
);
}
);
width = 1390;
},
{
associatedMasterId = "FA6D65B5-4623-4FAC-A199-3F662257AC29";
layerId = "CBD44848-52BD-4DC5-BFA6-577546B7224D";
shapes = (
{
closed = 1;
nodes = (
(762,0,ls),
(960,0,o),
(1084,33,o),
(1200,117,cs),
(1383,252,o),
(1492,489,o),
(1492,758,cs),
(1492,1018,o),
(1391,1242,o),
(1214,1379,cs),
(1076,1484,o),
(906,1523,o),
(592,1523,cs),
(99,1523,l),
(99,1479,l),
(267,1441,l),
(267,849,l),
(112,849,l),
(112,721,l),
(267,721,l),
(267,83,l),
(99,45,l),
(99,0,l)
);
},
{
closed = 1;
nodes = (
(524,75,o),
(474,104,o),
(474,193,cs),
(474,721,l),
(719,721,l),
(719,849,l),
(474,849,l),
(474,1445,l),
(631,1445,ls),
(853,1445,o),
(976,1406,o),
(1077,1300,cs),
(1187,1183,o),
(1245,1005,o),
(1245,782,cs),
(1245,560,o),
(1187,366,o),
(1082,235,cs),
(987,120,o),
(875,75,o),
(681,75,cs)
);
}
);
width = 1605;
},
{
anchors = (
{
name = bottom;
pos = (649,0);
},
{
name = top;
pos = (649,1523);
}
);
background = {
shapes = (
{
closed = 1;
nodes = (
(615,0,ls),
(777,0,o),
(878,33,o),
(972,117,cs),
(1121,251,o),
(1210,489,o),
(1210,759,cs),
(1210,1020,o),
(1126,1244,o),
(983,1379,cs),
(870,1484,o),
(731,1523,o),
(476,1523,cs),
(78,1523,l),
(78,1475,l),
(213,1437,l),
(213,852,l),
(89,852,l),
(89,719,l),
(213,719,l),
(213,88,l),
(78,50,l),
(78,0,l)
);
},
{
closed = 1;
nodes = (
(433,79,o),
(393,108,o),
(393,198,cs),
(393,719,l),
(590,719,l),
(590,852,l),
(393,852,l),
(393,1441,l),
(519,1441,ls),
(692,1441,o),
(790,1400,o),
(868,1297,cs),
(954,1180,o),
(998,1005,o),
(998,780,cs),
(998,555,o),
(954,364,o),
(872,236,cs),
(798,124,o),
(707,79,o),
(557,79,cs)
);
}
);
};
layerId = "7C8D72FA-6E62-4564-8BB2-D9F9BC4EB15A";
shapes = (
{
closed = 1;
nodes = (
(615,0,ls),
(777,0,o),
(878,33,o),
(972,117,cs),
(1121,251,o),
(1210,489,o),
(1210,759,cs),
(1210,1020,o),
(1126,1244,o),
(983,1379,cs),
(870,1484,o),
(731,1523,o),
(476,1523,cs),
(78,1523,l),
(78,1475,l),
(213,1437,l),
(213,852,l),
(89,852,l),
(89,719,l),
(213,719,l),
(213,88,l),
(78,50,l),
(78,0,l)
);
},
{
closed = 1;
nodes = (
(433,79,o),
(393,108,o),
(393,198,cs),
(393,719,l),
(590,719,l),
(590,852,l),
(393,852,l),
(393,1441,l),
(519,1441,ls),
(692,1441,o),
(790,1400,o),
(868,1297,cs),
(954,1180,o),
(998,1005,o),
(998,780,cs),
(998,555,o),
(954,364,o),
(872,236,cs),
(798,124,o),
(707,79,o),
(557,79,cs)
);
}
);
width = 1298;
}
);
unicode = 208;
},
{
color = 4;
glyphname = E;
kernLeft = I;
kernRight = E;
layers = (
{
anchors = (
{
name = bottom;
pos = (579,0);
},
{
name = ogonek;
pos = (1042,10);
},
{
name = top;
pos = (579,1523);
},
{
name = topleft;
pos = (20,1523);
}
);
background = {
anchors = (
{
name = bottom;
pos = (612,0);
},
{
name = ogonekcap;
pos = (1027,0);
},
{
name = topcap;
pos = (602,1643);
}
);
shapes = (
{
closed = 1;
nodes = (
(1027,0,l),
(1094,463,l),
(1012,463,l),
(974,347,o),
(936,229,o),
(867,113,c),
(474,113,l),
(474,1412,l),
(877,1412,l),
(931,1308,o),
(971,1192,o),
(999,1088,c),
(1065,1088,l),
(1035,1523,l),
(66,1523,l),
(66,1451,l),
(202,1414,l),
(202,112,l),
(66,73,l),
(66,0,l)
);
},
{
closed = 1;
nodes = (
(808,529,l),
(808,1082,l),
(742,1082,l),
(729,1010,o),
(709,933,o),
(673,859,c),
(448,859,l),
(448,752,l),
(673,752,l),
(706,679,o),
(729,601,o),
(742,529,c)
);
}
);
};
layerId = "FA6D65B5-4623-4FAC-A199-3F662257AC29";
shapes = (
{
closed = 1;
nodes = (
(1027,0,l),
(1094,463,l),
(1012,463,l),
(974,347,o),
(936,229,o),
(867,113,c),
(474,113,l),
(474,1412,l),
(877,1412,l),
(931,1308,o),
(971,1192,o),
(999,1088,c),
(1065,1088,l),
(1035,1523,l),
(66,1523,l),
(66,1451,l),
(202,1414,l),
(202,112,l),
(66,73,l),
(66,0,l)
);
},
{
closed = 1;
nodes = (
(808,529,l),
(808,1082,l),
(742,1082,l),
(729,1010,o),
(709,933,o),
(673,859,c),
(448,859,l),
(448,752,l),
(673,752,l),
(706,679,o),
(729,601,o),
(742,529,c)
);
}
);
width = 1158;
},
{
anchors = (
{
name = bottom;
pos = (708,0);
},
{
name = topcap;
pos = (705,1643);
}
);
associatedMasterId = "FA6D65B5-4623-4FAC-A199-3F662257AC29";
layerId = "CBD44848-52BD-4DC5-BFA6-577546B7224D";
shapes = (
{
closed = 1;
nodes = (
(1189,0,l),
(1263,463,l),
(1198,463,l),
(1154,334,o),
(1110,208,o),
(1032,78,c),
(473,78,l),
(473,1445,l),
(1041,1445,l),
(1107,1331,o),
(1152,1201,o),
(1183,1088,c),
(1231,1088,l),
(1198,1523,l),
(97,1523,l),
(97,1479,l),
(265,1441,l),
(265,83,l),
(97,45,l),
(97,0,l)
);
},
{
closed = 1;
nodes = (
(948,526,l),
(948,1080,l),
(900,1080,l),
(887,1002,o),
(865,922,o),
(828,843,c),
(446,843,l),
(446,763,l),
(828,763,l),
(865,685,o),
(888,606,o),
(900,526,c)
);
}
);
width = 1369;
},
{
anchors = (
{
name = bottom;
pos = (552,0);
},
{
name = ogonek;
pos = (993,10);
},
{
name = top;
pos = (552,1523);
},
{
name = topleft;
pos = (20,1523);
}
);
background = {
anchors = (
{
name = bottom;
pos = (573,0);
},
{
name = ogonekcap;
pos = (962,0);
},
{
name = topcap;
pos = (570,1643);
}
);
shapes = (
{
closed = 1;
nodes = (
(962,0,l),
(1022,463,l),
(966,463,l),
(930,335,o),
(894,211,o),
(831,83,c),
(391,83,l),
(391,1441,l),
(839,1441,l),
(892,1329,o),
(928,1200,o),
(954,1088,c),
(996,1088,l),
(968,1523,l),
(75,1523,l),
(75,1475,l),
(211,1437,l),
(211,88,l),
(75,48,l),
(75,0,l)
);
},
{
closed = 1;
nodes = (
(765,526,l),
(765,1081,l),
(723,1081,l),
(711,1003,o),
(694,924,o),
(663,845,c),
(369,845,l),
(369,762,l),
(663,762,l),
(694,684,o),
(713,606,o),
(723,526,c)
);
}
);
};
layerId = "7C8D72FA-6E62-4564-8BB2-D9F9BC4EB15A";
shapes = (
{
closed = 1;
nodes = (
(962,0,l),
(1022,463,l),
(966,463,l),
(930,335,o),
(894,211,o),
(831,83,c),
(391,83,l),
(391,1441,l),
(839,1441,l),
(892,1329,o),
(928,1200,o),
(954,1088,c),
(996,1088,l),
(968,1523,l),
(75,1523,l),
(75,1475,l),
(211,1437,l),
(211,88,l),
(75,48,l),
(75,0,l)
);
},
{
closed = 1;
nodes = (
(765,526,l),
(765,1081,l),
(723,1081,l),
(711,1003,o),
(694,924,o),
(663,845,c),
(369,845,l),
(369,762,l),
(663,762,l),
(694,684,o),
(713,606,o),
(723,526,c)
);
}
);
width = 1103;
}
);
unicode = 69;
},
{
color = 4;
glyphname = Eacute;
kernLeft = I;
kernRight = E;
layers = (
{
background = {
anchors = (
{
name = bottom;
pos = (612,0);
},
{
name = ogonekcap;
pos = (1027,0);
},
{
name = topcap;
pos = (602,1643);
}
);
shapes = (
{
closed = 1;
nodes = (
(1027,0,l),
(1094,463,l),
(1012,463,l),
(974,347,o),
(936,229,o),
(867,113,c),
(474,113,l),
(474,1412,l),
(877,1412,l),
(931,1308,o),
(971,1192,o),
(999,1088,c),
(1065,1088,l),
(1035,1523,l),
(66,1523,l),
(66,1451,l),
(202,1414,l),
(202,112,l),
(66,73,l),
(66,0,l)
);
},
{
closed = 1;
nodes = (
(808,529,l),
(808,1082,l),
(742,1082,l),
(729,1010,o),
(709,933,o),
(673,859,c),
(448,859,l),
(448,752,l),
(673,752,l),
(706,679,o),
(729,601,o),
(742,529,c)
);
},
{
closed = 1;
nodes = (
(748,1680,ls),
(814,1696,o),
(842,1750,o),
(842,1800,cs),
(842,1854,o),
(809,1906,o),
(754,1906,cs),
(728,1906,o),
(694,1893,o),
(658,1859,cs),
(461,1672,l),
(487,1617,l)
);
}
);
};
layerId = "FA6D65B5-4623-4FAC-A199-3F662257AC29";
shapes = (
{
ref = E;
},
{
pos = (386,0);
ref = acutecomb.case;
}
);
width = 1158;
},
{
associatedMasterId = "FA6D65B5-4623-4FAC-A199-3F662257AC29";
layerId = "CBD44848-52BD-4DC5-BFA6-577546B7224D";
shapes = (
{
alignment = -1;
ref = E;
},
{
alignment = -1;
pos = (482,0);
ref = acutecomb.case;
}
);
width = 1369;
},
{
background = {
anchors = (
{
name = bottom;
pos = (573,0);
},
{
name = ogonekcap;
pos = (962,0);
},
{
name = topcap;
pos = (570,1643);
}
);
shapes = (
{
closed = 1;
nodes = (
(962,0,l),
(1022,463,l),
(966,463,l),
(930,335,o),
(894,211,o),
(831,83,c),
(391,83,l),
(391,1441,l),
(839,1441,l),
(892,1329,o),
(928,1200,o),
(954,1088,c),
(996,1088,l),
(968,1523,l),
(75,1523,l),
(75,1475,l),
(211,1437,l),
(211,88,l),
(75,48,l),
(75,0,l)
);
},
{
closed = 1;
nodes = (
(765,526,l),
(765,1081,l),
(723,1081,l),
(711,1003,o),
(694,924,o),
(663,845,c),
(369,845,l),
(369,762,l),
(663,762,l),
(694,684,o),
(713,606,o),
(723,526,c)
);
},
{
closed = 1;
nodes = (
(672,1700,ls),
(752,1727,o),
(777,1766,o),
(777,1812,cs),
(777,1863,o),
(744,1901,o),
(706,1901,cs),
(681,1901,o),
(660,1891,o),
(633,1867,cs),
(411,1658,l),
(429,1616,l)
);
}
);
};
layerId = "7C8D72FA-6E62-4564-8BB2-D9F9BC4EB15A";
shapes = (
{
ref = E;
},
{
pos = (295,0);
ref = acutecomb.case;
}
);
width = 1103;
}
);
unicode = 201;
},
{
glyphname = Ebreve;
kernLeft = I;
kernRight = E;
layers = (
{
background = {
anchors = (
{
name = bottom;
pos = (612,0);
},
{
name = ogonekcap;
pos = (1027,0);
},
{
name = topcap;
pos = (602,1643);
}
);
shapes = (
{
closed = 1;
nodes = (
(1027,0,l),
(1094,463,l),
(1012,463,l),
(974,347,o),
(936,229,o),
(867,113,c),
(474,113,l),
(474,1412,l),
(877,1412,l),
(931,1308,o),
(971,1192,o),
(999,1088,c),
(1065,1088,l),
(1035,1523,l),
(66,1523,l),
(66,1451,l),
(202,1414,l),
(202,112,l),
(66,73,l),
(66,0,l)
);
},
{
closed = 1;
nodes = (
(808,529,l),
(808,1082,l),
(742,1082,l),
(729,1010,o),
(709,933,o),
(673,859,c),
(448,859,l),
(448,752,l),
(673,752,l),
(706,679,o),
(729,601,o),
(742,529,c)
);
},
{
closed = 1;
nodes = (
(675,1643,o),
(796,1671,o),
(851,1911,c),
(772,1911,l),
(738,1866,o),
(675,1849,o),
(607,1849,cs),
(538,1849,o),
(474,1866,o),
(449,1911,c),
(370,1911,l),
(388,1710,o),
(503,1643,o),
(602,1643,cs)
);
}
);
};
layerId = "FA6D65B5-4623-4FAC-A199-3F662257AC29";
shapes = (
{
ref = E;
},
{
pos = (262,0);
ref = brevecomb.case;
}
);
width = 1158;
},
{
associatedMasterId = "FA6D65B5-4623-4FAC-A199-3F662257AC29";
layerId = "CBD44848-52BD-4DC5-BFA6-577546B7224D";
shapes = (
{
alignment = -1;
ref = E;
},
{
alignment = -1;
pos = (301,0);
ref = brevecomb.case;
}
);
width = 1369;
},
{
background = {
anchors = (
{
name = bottom;
pos = (573,0);
},
{
name = ogonekcap;
pos = (962,0);
},
{
name = topcap;
pos = (570,1643);
}
);
shapes = (
{
closed = 1;
nodes = (
(962,0,l),
(1022,463,l),
(966,463,l),
(930,335,o),
(894,211,o),
(831,83,c),
(391,83,l),
(391,1441,l),
(839,1441,l),
(892,1329,o),
(928,1200,o),
(954,1088,c),
(996,1088,l),
(968,1523,l),
(75,1523,l),
(75,1475,l),
(211,1437,l),
(211,88,l),
(75,48,l),
(75,0,l)
);
},
{
closed = 1;
nodes = (
(765,526,l),
(765,1081,l),
(723,1081,l),
(711,1003,o),
(694,924,o),
(663,845,c),
(369,845,l),
(369,762,l),
(663,762,l),
(694,684,o),
(713,606,o),
(723,526,c)
);
},
{
closed = 1;
nodes = (
(638,1643,o),
(753,1671,o),
(805,1901,c),
(748,1901,l),
(712,1827,o),
(645,1797,o),
(577,1797,cs),
(503,1797,o),
(434,1827,o),
(409,1901,c),
(352,1901,l),
(368,1708,o),
(477,1643,o),
(570,1643,cs)
);
}
);
};
layerId = "7C8D72FA-6E62-4564-8BB2-D9F9BC4EB15A";
shapes = (
{
ref = E;
},
{
pos = (248,0);
ref = brevecomb.case;
}
);
width = 1103;
}
);
unicode = 276;
},
{
glyphname = Ecaron;
kernLeft = I;
kernRight = E;
layers = (
{
background = {
anchors = (
{
name = bottom;
pos = (612,0);
},
{
name = ogonekcap;
pos = (1027,0);
},
{
name = topcap;
pos = (602,1643);
}
);
shapes = (
{
closed = 1;
nodes = (
(1027,0,l),
(1094,463,l),
(1012,463,l),
(974,347,o),
(936,229,o),
(867,113,c),
(474,113,l),
(474,1412,l),
(877,1412,l),
(931,1308,o),
(971,1192,o),
(999,1088,c),
(1065,1088,l),
(1035,1523,l),
(66,1523,l),
(66,1451,l),
(202,1414,l),
(202,112,l),
(66,73,l),
(66,0,l)
);
},
{
closed = 1;
nodes = (
(808,529,l),
(808,1082,l),
(742,1082,l),
(729,1010,o),
(709,933,o),
(673,859,c),
(448,859,l),
(448,752,l),
(673,752,l),
(706,679,o),
(729,601,o),
(742,529,c)
);
},
{
closed = 1;
nodes = (
(637,1644,o),
(668,1665,o),
(711,1709,cs),
(875,1876,l),
(849,1920,l),
(601,1838,l),
(353,1920,l),
(328,1876,l),
(488,1709,ls),
(531,1665,o),
(561,1644,o),
(602,1644,cs)
);
}
);
};
layerId = "FA6D65B5-4623-4FAC-A199-3F662257AC29";
shapes = (
{
ref = E;
},
{
pos = (221,0);
ref = caroncomb.case;
}
);
width = 1158;
},
{
associatedMasterId = "FA6D65B5-4623-4FAC-A199-3F662257AC29";
layerId = "CBD44848-52BD-4DC5-BFA6-577546B7224D";
shapes = (
{
alignment = -1;
ref = E;
},
{
alignment = -1;
pos = (386,0);
ref = caroncomb.case;
}
);
width = 1369;
},
{
background = {
anchors = (
{
name = bottom;
pos = (573,0);
},
{
name = ogonekcap;
pos = (962,0);
},
{
name = topcap;
pos = (570,1643);
}
);
shapes = (
{
closed = 1;
nodes = (
(962,0,l),
(1022,463,l),
(966,463,l),
(930,335,o),
(894,211,o),
(831,83,c),
(391,83,l),
(391,1441,l),
(839,1441,l),
(892,1329,o),
(928,1200,o),
(954,1088,c),
(996,1088,l),
(968,1523,l),
(75,1523,l),
(75,1475,l),
(211,1437,l),
(211,88,l),
(75,48,l),
(75,0,l)
);
},
{
closed = 1;
nodes = (
(765,526,l),
(765,1081,l),
(723,1081,l),
(711,1003,o),
(694,924,o),
(663,845,c),
(369,845,l),
(369,762,l),
(663,762,l),
(694,684,o),
(713,606,o),
(723,526,c)
);
},
{
closed = 1;
nodes = (
(600,1643,o),
(621,1659,o),
(654,1698,cs),
(803,1885,l),
(773,1921,l),
(563,1810,l),
(356,1921,l),
(326,1885,l),
(475,1698,ls),
(504,1664,o),
(523,1643,o),
(563,1643,cs)
);
}
);
};
layerId = "7C8D72FA-6E62-4564-8BB2-D9F9BC4EB15A";
shapes = (
{
ref = E;
},
{
pos = (233,0);
ref = caroncomb.case;
}
);
width = 1103;
}
);
unicode = 282;
},
{
glyphname = Ecircumflex;
kernLeft = I;
kernRight = E;
layers = (
{
background = {
anchors = (
{
name = bottom;
pos = (612,0);
},
{
name = ogonekcap;
pos = (1027,0);
},
{
name = topcap;
pos = (602,1643);
}
);
shapes = (
{
closed = 1;
nodes = (
(1027,0,l),
(1094,463,l),
(1012,463,l),
(974,347,o),
(936,229,o),
(867,113,c),
(474,113,l),
(474,1412,l),
(877,1412,l),
(931,1308,o),
(971,1192,o),
(999,1088,c),
(1065,1088,l),
(1035,1523,l),
(66,1523,l),
(66,1451,l),
(202,1414,l),
(202,112,l),
(66,73,l),
(66,0,l)
);
},
{
closed = 1;
nodes = (
(808,529,l),
(808,1082,l),
(742,1082,l),
(729,1010,o),
(709,933,o),
(673,859,c),
(448,859,l),
(448,752,l),
(673,752,l),
(706,679,o),
(729,601,o),
(742,529,c)
);
},
{
closed = 1;
nodes = (
(602,1705,l),
(850,1625,l),
(876,1669,l),
(712,1835,ls),
(669,1878,o),
(638,1900,o),
(603,1900,cs),
(562,1900,o),
(532,1878,o),
(489,1835,cs),
(329,1669,l),
(354,1625,l)
);
}
);
};
layerId = "FA6D65B5-4623-4FAC-A199-3F662257AC29";
shapes = (
{
ref = E;
},
{
pos = (221,0);
ref = circumflexcomb.case;
}
);
width = 1158;
},
{
associatedMasterId = "FA6D65B5-4623-4FAC-A199-3F662257AC29";
layerId = "CBD44848-52BD-4DC5-BFA6-577546B7224D";
shapes = (
{
alignment = -1;
ref = E;
},
{
alignment = -1;
pos = (409,0);
ref = circumflexcomb.case;
}
);
width = 1369;
},
{
background = {
anchors = (
{
name = bottom;
pos = (573,0);
},
{
name = ogonekcap;
pos = (962,0);
},
{
name = topcap;
pos = (570,1643);
}
);
shapes = (
{
closed = 1;
nodes = (
(962,0,l),
(1022,463,l),
(966,463,l),
(930,335,o),
(894,211,o),
(831,83,c),
(391,83,l),
(391,1441,l),
(839,1441,l),
(892,1329,o),
(928,1200,o),
(954,1088,c),
(996,1088,l),
(968,1523,l),
(75,1523,l),
(75,1475,l),
(211,1437,l),
(211,88,l),
(75,48,l),
(75,0,l)
);
},
{
closed = 1;
nodes = (
(765,526,l),
(765,1081,l),
(723,1081,l),
(711,1003,o),
(694,924,o),
(663,845,c),
(369,845,l),
(369,762,l),
(663,762,l),
(694,684,o),
(713,606,o),
(723,526,c)
);
},
{
closed = 1;
nodes = (
(579,1733,l),
(789,1622,l),
(819,1658,l),
(670,1845,ls),
(637,1884,o),
(616,1900,o),
(579,1900,cs),
(539,1900,o),
(520,1880,o),
(491,1845,cs),
(342,1658,l),
(372,1622,l)
);
}
);
};
layerId = "7C8D72FA-6E62-4564-8BB2-D9F9BC4EB15A";
shapes = (
{
ref = E;
},
{
pos = (233,0);
ref = circumflexcomb.case;
}
);
width = 1103;
}
);
unicode = 202;
},
{
glyphname = Edieresis;
kernLeft = I;
kernRight = E;
layers = (
{
background = {
anchors = (
{
name = bottom;
pos = (612,0);
},
{
name = ogonekcap;
pos = (1027,0);
},
{
name = topcap;
pos = (602,1643);
}
);
shapes = (
{
closed = 1;
nodes = (
(1027,0,l),
(1094,463,l),
(1012,463,l),
(974,347,o),
(936,229,o),
(867,113,c),
(474,113,l),
(474,1412,l),
(877,1412,l),
(931,1308,o),
(971,1192,o),
(999,1088,c),
(1065,1088,l),
(1035,1523,l),
(66,1523,l),
(66,1451,l),
(202,1414,l),
(202,112,l),
(66,73,l),
(66,0,l)
);
},
{
closed = 1;
nodes = (
(808,529,l),
(808,1082,l),
(742,1082,l),
(729,1010,o),
(709,933,o),
(673,859,c),
(448,859,l),
(448,752,l),
(673,752,l),
(706,679,o),
(729,601,o),
(742,529,c)
);
},
{
closed = 1;
nodes = (
(843,1643,o),
(880,1712,o),
(880,1775,cs),
(880,1847,o),
(836,1911,o),
(765,1911,cs),
(694,1911,o),
(653,1847,o),
(653,1775,cs),
(653,1712,o),
(692,1643,o),
(765,1643,cs)
);
},
{
closed = 1;
nodes = (
(514,1643,o),
(553,1712,o),
(553,1775,cs),
(553,1847,o),
(509,1911,o),
(438,1911,cs),
(366,1911,o),
(326,1847,o),
(326,1775,cs),
(326,1712,o),
(363,1643,o),
(438,1643,cs)
);
}
);
};
layerId = "FA6D65B5-4623-4FAC-A199-3F662257AC29";
shapes = (
{
ref = E;
},
{
pos = (216,0);
ref = dieresiscomb.case;
}
);
width = 1158;
},
{
associatedMasterId = "FA6D65B5-4623-4FAC-A199-3F662257AC29";
layerId = "CBD44848-52BD-4DC5-BFA6-577546B7224D";
shapes = (
{
alignment = -1;
ref = E;
},
{
alignment = -1;
pos = (223,10);
ref = dieresiscomb.case;
}
);
width = 1369;
},
{
background = {
anchors = (
{
name = bottom;
pos = (573,0);
},
{
name = ogonekcap;
pos = (962,0);
},
{
name = topcap;
pos = (570,1643);
}
);
shapes = (
{
closed = 1;
nodes = (
(962,0,l),
(1022,463,l),
(966,463,l),
(930,335,o),
(894,211,o),
(831,83,c),
(391,83,l),
(391,1441,l),
(839,1441,l),
(892,1329,o),
(928,1200,o),
(954,1088,c),
(996,1088,l),
(968,1523,l),
(75,1523,l),
(75,1475,l),
(211,1437,l),
(211,88,l),
(75,48,l),
(75,0,l)
);
},
{
closed = 1;
nodes = (
(765,526,l),
(765,1081,l),
(723,1081,l),
(711,1003,o),
(694,924,o),
(663,845,c),
(369,845,l),
(369,762,l),
(663,762,l),
(694,684,o),
(713,606,o),
(723,526,c)
);
},
{
closed = 1;
nodes = (
(777,1643,o),
(812,1696,o),
(812,1756,cs),
(812,1819,o),
(776,1869,o),
(721,1869,cs),
(666,1869,o),
(630,1819,o),
(630,1756,cs),
(630,1696,o),
(665,1643,o),
(721,1643,cs)
);
},
{
closed = 1;
nodes = (
(477,1643,o),
(511,1696,o),
(511,1756,cs),
(511,1819,o),
(476,1869,o),
(420,1869,cs),
(365,1869,o),
(331,1819,o),
(331,1756,cs),
(331,1696,o),
(364,1643,o),
(420,1643,cs)
);
}
);
};
layerId = "7C8D72FA-6E62-4564-8BB2-D9F9BC4EB15A";
shapes = (
{
ref = E;
},
{
pos = (230,0);
ref = dieresiscomb.case;
}
);
width = 1103;
}
);
unicode = 203;
},
{
glyphname = Edotaccent;
kernLeft = I;
kernRight = E;
layers = (
{
background = {
anchors = (
{
name = bottom;
pos = (612,0);
},
{
name = ogonekcap;
pos = (1027,0);
},
{
name = topcap;
pos = (602,1643);
}
);
shapes = (
{
closed = 1;
nodes = (
(1027,0,l),
(1094,463,l),
(1012,463,l),
(974,347,o),
(936,229,o),
(867,113,c),
(474,113,l),
(474,1412,l),
(877,1412,l),
(931,1308,o),
(971,1192,o),
(999,1088,c),
(1065,1088,l),
(1035,1523,l),
(66,1523,l),
(66,1451,l),
(202,1414,l),
(202,112,l),
(66,73,l),
(66,0,l)
);
},
{
closed = 1;
nodes = (
(808,529,l),
(808,1082,l),
(742,1082,l),
(729,1010,o),
(709,933,o),
(673,859,c),
(448,859,l),
(448,752,l),
(673,752,l),
(706,679,o),
(729,601,o),
(742,529,c)
);
},
{
closed = 1;
nodes = (
(678,1643,o),
(717,1708,o),
(717,1777,cs),
(717,1847,o),
(673,1911,o),
(602,1911,cs),
(530,1911,o),
(490,1847,o),
(490,1777,cs),
(490,1708,o),
(529,1643,o),
(602,1643,cs)
);
}
);
};
layerId = "FA6D65B5-4623-4FAC-A199-3F662257AC29";
shapes = (
{
ref = E;
},
{
pos = (421,0);
ref = dotaccentcomb.case;
}
);
width = 1158;
},
{
associatedMasterId = "FA6D65B5-4623-4FAC-A199-3F662257AC29";
layerId = "CBD44848-52BD-4DC5-BFA6-577546B7224D";
shapes = (
{
alignment = -1;
ref = E;
},
{
alignment = -1;
pos = (580,0);
ref = dotaccentcomb.case;
}
);
width = 1369;
},
{
background = {
anchors = (
{
name = bottom;
pos = (573,0);
},
{
name = ogonekcap;
pos = (962,0);
},
{
name = topcap;
pos = (570,1643);
}
);
shapes = (
{
closed = 1;
nodes = (
(962,0,l),
(1022,463,l),
(966,463,l),
(930,335,o),
(894,211,o),
(831,83,c),
(391,83,l),
(391,1441,l),
(839,1441,l),
(892,1329,o),
(928,1200,o),
(954,1088,c),
(996,1088,l),
(968,1523,l),
(75,1523,l),
(75,1475,l),
(211,1437,l),
(211,88,l),
(75,48,l),
(75,0,l)
);
},
{
closed = 1;
nodes = (
(765,526,l),
(765,1081,l),
(723,1081,l),
(711,1003,o),
(694,924,o),
(663,845,c),
(369,845,l),
(369,762,l),
(663,762,l),
(694,684,o),
(713,606,o),
(723,526,c)
);
},
{
closed = 1;
nodes = (
(650,1643,o),
(690,1701,o),
(690,1770,cs),
(690,1844,o),
(649,1900,o),
(585,1900,cs),
(522,1900,o),
(483,1844,o),
(483,1770,cs),
(483,1701,o),
(522,1643,o),
(585,1643,cs)
);
}
);
};
layerId = "7C8D72FA-6E62-4564-8BB2-D9F9BC4EB15A";
shapes = (
{
ref = E;
},
{
pos = (401,0);
ref = dotaccentcomb.case;
}
);
width = 1103;
}
);
unicode = 278;
},
{
glyphname = Edotbelow;
kernLeft = I;
kernRight = E;
layers = (
{
background = {
anchors = (
{
name = bottom;
pos = (612,0);
},
{
name = ogonekcap;
pos = (1027,0);
},
{
name = topcap;
pos = (602,1643);
}
);
shapes = (
{
closed = 1;
nodes = (
(1027,0,l),
(1094,463,l),
(1012,463,l),
(974,347,o),
(936,229,o),
(867,113,c),
(474,113,l),
(474,1412,l),
(877,1412,l),
(931,1308,o),
(971,1192,o),
(999,1088,c),
(1065,1088,l),
(1035,1523,l),
(66,1523,l),
(66,1451,l),
(202,1414,l),
(202,112,l),
(66,73,l),
(66,0,l)
);
},
{
closed = 1;
nodes = (
(808,529,l),
(808,1082,l),
(742,1082,l),
(729,1010,o),
(709,933,o),
(673,859,c),
(448,859,l),
(448,752,l),
(673,752,l),
(706,679,o),
(729,601,o),
(742,529,c)
);
},
{
closed = 1;
nodes = (
(814,-515,o),
(861,-433,o),
(861,-352,cs),
(861,-265,o),
(807,-188,o),
(720,-188,cs),
(634,-188,o),
(585,-265,o),
(585,-352,cs),
(585,-433,o),
(630,-515,o),
(720,-515,cs)
);
}
);
};
layerId = "FA6D65B5-4623-4FAC-A199-3F662257AC29";
shapes = (
{
ref = E;
},
{
pos = (427,0);
ref = dotbelow;
}
);
width = 1158;
},
{
associatedMasterId = "FA6D65B5-4623-4FAC-A199-3F662257AC29";
layerId = "CBD44848-52BD-4DC5-BFA6-577546B7224D";
shapes = (
{
alignment = -1;
ref = E;
},
{
alignment = -1;
pos = (562,0);
ref = dotbelow;
}
);
width = 1369;
},
{
background = {
anchors = (
{
name = bottom;
pos = (573,0);
},
{
name = ogonekcap;
pos = (962,0);
},
{
name = topcap;
pos = (570,1643);
}
);
shapes = (
{
closed = 1;
nodes = (
(962,0,l),
(1022,463,l),
(966,463,l),
(930,335,o),
(894,211,o),
(831,83,c),
(391,83,l),
(391,1441,l),
(839,1441,l),
(892,1329,o),
(928,1200,o),
(954,1088,c),
(996,1088,l),
(968,1523,l),
(75,1523,l),
(75,1475,l),
(211,1437,l),
(211,88,l),
(75,48,l),
(75,0,l)
);
},
{
closed = 1;
nodes = (
(765,526,l),
(765,1081,l),
(723,1081,l),
(711,1003,o),
(694,924,o),
(663,845,c),
(369,845,l),
(369,762,l),
(663,762,l),
(694,684,o),
(713,606,o),
(723,526,c)
);
},
{
closed = 1;
nodes = (
(753,-508,o),
(793,-448,o),
(793,-377,cs),
(793,-302,o),
(752,-243,o),
(685,-243,cs),
(620,-243,o),
(580,-302,o),
(580,-377,cs),
(580,-448,o),
(620,-508,o),
(685,-508,cs)
);
}
);
};
layerId = "7C8D72FA-6E62-4564-8BB2-D9F9BC4EB15A";
shapes = (
{
ref = E;
},
{
pos = (430,0);
ref = dotbelow;
}
);
width = 1103;
}
);
unicode = 7864;
},
{
glyphname = Egrave;
kernLeft = I;
kernRight = E;
layers = (
{
background = {
anchors = (
{
name = bottom;
pos = (612,0);
},
{
name = ogonekcap;
pos = (1027,0);
},
{
name = topcap;
pos = (602,1643);
}
);
shapes = (
{
closed = 1;
nodes = (
(1027,0,l),
(1094,463,l),
(1012,463,l),
(974,347,o),
(936,229,o),
(867,113,c),
(474,113,l),
(474,1412,l),
(877,1412,l),
(931,1308,o),
(971,1192,o),
(999,1088,c),
(1065,1088,l),
(1035,1523,l),
(66,1523,l),
(66,1451,l),
(202,1414,l),
(202,112,l),
(66,73,l),
(66,0,l)
);
},
{
closed = 1;
nodes = (
(808,529,l),
(808,1082,l),
(742,1082,l),
(729,1010,o),
(709,933,o),
(673,859,c),
(448,859,l),
(448,752,l),
(673,752,l),
(706,679,o),
(729,601,o),
(742,529,c)
);
},
{
closed = 1;
nodes = (
(770,1672,l),
(572,1859,ls),
(535,1893,o),
(502,1906,o),
(474,1906,cs),
(422,1906,o),
(389,1854,o),
(389,1800,cs),
(389,1750,o),
(415,1696,o),
(481,1680,cs),
(742,1617,l)
);
}
);
};
layerId = "FA6D65B5-4623-4FAC-A199-3F662257AC29";
shapes = (
{
ref = E;
},
{
pos = (325,0);
ref = gravecomb.case;
}
);
width = 1158;
},
{
associatedMasterId = "FA6D65B5-4623-4FAC-A199-3F662257AC29";
layerId = "CBD44848-52BD-4DC5-BFA6-577546B7224D";
shapes = (
{
alignment = -1;
ref = E;
},
{
alignment = -1;
pos = (329,0);
ref = gravecomb.case;
}
);
width = 1369;
},
{
background = {
anchors = (
{
name = bottom;
pos = (573,0);
},
{
name = ogonekcap;
pos = (962,0);
},
{
name = topcap;
pos = (570,1643);
}
);
shapes = (
{
closed = 1;
nodes = (
(962,0,l),
(1022,463,l),
(966,463,l),
(930,335,o),
(894,211,o),
(831,83,c),
(391,83,l),
(391,1441,l),
(839,1441,l),
(892,1329,o),
(928,1200,o),
(954,1088,c),
(996,1088,l),
(968,1523,l),
(75,1523,l),
(75,1475,l),
(211,1437,l),
(211,88,l),
(75,48,l),
(75,0,l)
);
},
{
closed = 1;
nodes = (
(765,526,l),
(765,1081,l),
(723,1081,l),
(711,1003,o),
(694,924,o),
(663,845,c),
(369,845,l),
(369,762,l),
(663,762,l),
(694,684,o),
(713,606,o),
(723,526,c)
);
},
{
closed = 1;
nodes = (
(723,1658,l),
(500,1867,ls),
(474,1891,o),
(451,1901,o),
(426,1901,cs),
(390,1901,o),
(357,1863,o),
(357,1812,cs),
(357,1766,o),
(382,1727,o),
(462,1700,cs),
(705,1616,l)
);
}
);
};
layerId = "7C8D72FA-6E62-4564-8BB2-D9F9BC4EB15A";
shapes = (
{
ref = E;
},
{
pos = (302,0);
ref = gravecomb.case;
}
);
width = 1103;
}
);
unicode = 200;
},
{
glyphname = Emacron;
kernLeft = I;
kernRight = E;
layers = (
{
background = {
anchors = (
{
name = bottom;
pos = (612,0);
},
{
name = ogonekcap;
pos = (1027,0);
},
{
name = topcap;
pos = (602,1643);
}
);
shapes = (
{
closed = 1;
nodes = (
(1027,0,l),
(1094,463,l),
(1012,463,l),
(974,347,o),
(936,229,o),
(867,113,c),
(474,113,l),
(474,1412,l),
(877,1412,l),
(931,1308,o),
(971,1192,o),
(999,1088,c),
(1065,1088,l),
(1035,1523,l),
(66,1523,l),
(66,1451,l),
(202,1414,l),
(202,112,l),
(66,73,l),
(66,0,l)
);
},
{
closed = 1;
nodes = (
(808,529,l),
(808,1082,l),
(742,1082,l),
(729,1010,o),
(709,933,o),
(673,859,c),
(448,859,l),
(448,752,l),
(673,752,l),
(706,679,o),
(729,601,o),
(742,529,c)
);
},
{
closed = 1;
nodes = (
(844,1712,l),
(844,1902,l),
(359,1902,l),
(359,1712,l)
);
}
);
};
layerId = "FA6D65B5-4623-4FAC-A199-3F662257AC29";
shapes = (
{
ref = E;
},
{
pos = (259,0);
ref = macroncomb.case;
}
);
width = 1158;
},
{
associatedMasterId = "FA6D65B5-4623-4FAC-A199-3F662257AC29";
layerId = "CBD44848-52BD-4DC5-BFA6-577546B7224D";
shapes = (
{
alignment = -1;
ref = E;
},
{
alignment = -1;
pos = (277,-35);
ref = macroncomb.case;
}
);
width = 1369;
},
{
background = {
anchors = (
{
name = bottom;
pos = (573,0);
},
{
name = ogonekcap;
pos = (962,0);
},
{
name = topcap;
pos = (570,1643);
}
);
shapes = (
{
closed = 1;
nodes = (
(962,0,l),
(1022,463,l),
(966,463,l),
(930,335,o),
(894,211,o),
(831,83,c),
(391,83,l),
(391,1441,l),
(839,1441,l),
(892,1329,o),
(928,1200,o),
(954,1088,c),
(996,1088,l),
(968,1523,l),
(75,1523,l),
(75,1475,l),
(211,1437,l),
(211,88,l),
(75,48,l),
(75,0,l)
);
},
{
closed = 1;
nodes = (
(765,526,l),
(765,1081,l),
(723,1081,l),
(711,1003,o),
(694,924,o),
(663,845,c),
(369,845,l),
(369,762,l),
(663,762,l),
(694,684,o),
(713,606,o),
(723,526,c)
);
},
{
closed = 1;
nodes = (
(801,1734,l),
(801,1880,l),
(344,1880,l),
(344,1734,l)
);
}
);
};
layerId = "7C8D72FA-6E62-4564-8BB2-D9F9BC4EB15A";
shapes = (
{
ref = E;
},
{
pos = (245,0);
ref = macroncomb.case;
}
);
width = 1103;
}
);
unicode = 274;
},
{
glyphname = Eogonek;
kernLeft = I;
kernRight = E;
layers = (
{
background = {
anchors = (
{
name = bottom;
pos = (612,0);
},
{
name = ogonekcap;
pos = (1027,0);
},
{
name = topcap;
pos = (602,1643);
}
);
shapes = (
{
closed = 1;
nodes = (
(1027,0,l),
(1094,463,l),
(1012,463,l),
(974,347,o),
(936,229,o),
(867,113,c),
(474,113,l),
(474,1412,l),
(877,1412,l),
(931,1308,o),
(971,1192,o),
(999,1088,c),
(1065,1088,l),
(1035,1523,l),
(66,1523,l),
(66,1451,l),
(202,1414,l),
(202,112,l),
(66,73,l),
(66,0,l)
);
},
{
closed = 1;
nodes = (
(808,529,l),
(808,1082,l),
(742,1082,l),
(729,1010,o),
(709,933,o),
(673,859,c),
(448,859,l),
(448,752,l),
(673,752,l),
(706,679,o),
(729,601,o),
(742,529,c)
);
},
{
closed = 1;
nodes = (
(923,-533,o),
(993,-496,o),
(1057,-416,c),
(1035,-332,l),
(999,-357,o),
(973,-368,o),
(942,-368,cs),
(892,-368,o),
(866,-337,o),
(866,-278,cs),
(866,-197,o),
(918,-106,o),
(1027,0,c),
(966,14,l),
(713,-70,o),
(593,-183,o),
(593,-332,cs),
(593,-472,o),
(689,-533,o),
(819,-533,cs)
);
}
);
};
layerId = "FA6D65B5-4623-4FAC-A199-3F662257AC29";
shapes = (
{
ref = E;
},
{
pos = (614,-4);
ref = ogonekcomb.case;
}
);
width = 1158;
},
{
associatedMasterId = "FA6D65B5-4623-4FAC-A199-3F662257AC29";
layerId = "CBD44848-52BD-4DC5-BFA6-577546B7224D";
shapes = (
{
alignment = -1;
ref = E;
},
{
alignment = -1;
pos = (732,0);
ref = ogonek;
}
);
width = 1369;
},
{
background = {
anchors = (
{
name = bottom;
pos = (573,0);
},
{
name = ogonekcap;
pos = (962,0);
},
{
name = topcap;
pos = (570,1643);
}
);
shapes = (
{
closed = 1;
nodes = (
(962,0,l),
(1022,463,l),
(966,463,l),
(930,335,o),
(894,211,o),
(831,83,c),
(391,83,l),
(391,1441,l),
(839,1441,l),
(892,1329,o),
(928,1200,o),
(954,1088,c),
(996,1088,l),
(968,1523,l),
(75,1523,l),
(75,1475,l),
(211,1437,l),
(211,88,l),
(75,48,l),
(75,0,l)
);
},
{
closed = 1;
nodes = (
(765,526,l),
(765,1081,l),
(723,1081,l),
(711,1003,o),
(694,924,o),
(663,845,c),
(369,845,l),
(369,762,l),
(663,762,l),
(694,684,o),
(713,606,o),
(723,526,c)
);
},
{
closed = 1;
nodes = (
(881,-529,o),
(943,-484,o),
(987,-423,c),
(964,-373,l),
(929,-397,o),
(905,-410,o),
(875,-410,cs),
(828,-410,o),
(804,-377,o),
(804,-302,cs),
(804,-215,o),
(856,-92,o),
(962,0,c),
(907,18,l),
(724,-89,o),
(629,-222,o),
(629,-354,cs),
(629,-476,o),
(699,-529,o),
(792,-529,cs)
);
}
);
};
layerId = "7C8D72FA-6E62-4564-8BB2-D9F9BC4EB15A";
shapes = (
{
ref = E;
},
{
pos = (572,-8);
ref = ogonekcomb.case;
}
);
width = 1103;
}
);
unicode = 280;
},
{
glyphname = Etilde;
kernLeft = I;
kernRight = E;
layers = (
{
background = {
anchors = (
{
name = bottom;
pos = (612,0);
},
{
name = ogonekcap;
pos = (1027,0);
},
{
name = topcap;
pos = (602,1643);
}
);
shapes = (
{
closed = 1;
nodes = (
(1027,0,l),
(1094,463,l),
(1012,463,l),
(974,347,o),
(936,229,o),
(867,113,c),
(474,113,l),
(474,1412,l),
(877,1412,l),
(931,1308,o),
(971,1192,o),
(999,1088,c),
(1065,1088,l),
(1035,1523,l),
(66,1523,l),
(66,1451,l),
(202,1414,l),
(202,112,l),
(66,73,l),
(66,0,l)
);
},
{
closed = 1;
nodes = (
(808,529,l),
(808,1082,l),
(742,1082,l),
(729,1010,o),
(709,933,o),
(673,859,c),
(448,859,l),
(448,752,l),
(673,752,l),
(706,679,o),
(729,601,o),
(742,529,c)
);
},
{
closed = 1;
nodes = (
(807,1624,o),
(861,1729,o),
(861,1911,c),
(799,1911,l),
(789,1864,o),
(754,1837,o),
(704,1837,cs),
(631,1837,o),
(594,1908,o),
(512,1908,cs),
(414,1908,o),
(344,1812,o),
(344,1627,c),
(405,1627,l),
(411,1672,o),
(446,1703,o),
(501,1703,cs),
(581,1703,o),
(611,1624,o),
(699,1624,cs)
);
}
);
};
layerId = "FA6D65B5-4623-4FAC-A199-3F662257AC29";
shapes = (
{
ref = E;
},
{
pos = (240,0);
ref = tildecomb.case;
}
);
width = 1158;
},
{
associatedMasterId = "FA6D65B5-4623-4FAC-A199-3F662257AC29";
layerId = "CBD44848-52BD-4DC5-BFA6-577546B7224D";
shapes = (
{
alignment = -1;
ref = E;
},
{
alignment = -1;
pos = (398,0);
ref = tildecomb.case;
}
);
width = 1369;
},
{
background = {
anchors = (
{
name = bottom;
pos = (573,0);
},
{
name = ogonekcap;
pos = (962,0);
},
{
name = topcap;
pos = (570,1643);
}
);
shapes = (
{
closed = 1;
nodes = (
(962,0,l),
(1022,463,l),
(966,463,l),
(930,335,o),
(894,211,o),
(831,83,c),
(391,83,l),
(391,1441,l),
(839,1441,l),
(892,1329,o),
(928,1200,o),
(954,1088,c),
(996,1088,l),
(968,1523,l),
(75,1523,l),
(75,1475,l),
(211,1437,l),
(211,88,l),
(75,48,l),
(75,0,l)
);
},
{
closed = 1;
nodes = (
(765,526,l),
(765,1081,l),
(723,1081,l),
(711,1003,o),
(694,924,o),
(663,845,c),
(369,845,l),
(369,762,l),
(663,762,l),
(694,684,o),
(713,606,o),
(723,526,c)
);
},
{
closed = 1;
nodes = (
(770,1660,o),
(826,1758,o),
(826,1901,c),
(786,1901,l),
(777,1853,o),
(750,1826,o),
(704,1826,cs),
(632,1826,o),
(547,1895,o),
(473,1895,cs),
(393,1895,o),
(337,1802,o),
(337,1663,c),
(377,1663,l),
(382,1710,o),
(413,1739,o),
(460,1739,cs),
(534,1739,o),
(613,1660,o),
(690,1660,cs)
);
}
);
};
layerId = "7C8D72FA-6E62-4564-8BB2-D9F9BC4EB15A";
shapes = (
{
ref = E;
},
{
pos = (225,0);
ref = tildecomb.case;
}
);
width = 1103;
}
);
unicode = 7868;
},
{
glyphname = Schwa;
kernRight = O;
layers = (
{
anchors = (
{
name = bottom;
pos = (627,0);
},
{
name = top;
pos = (627,1523);
}
);
background = {
shapes = (
{
closed = 1;
nodes = (
(930,-21,o),
(1181,303,o),
(1181,784,cs),
(1181,1239,o),
(956,1546,o),
(626,1546,cs),
(377,1546,o),
(160,1377,o),
(96,1133,c),
(142,1094,l),
(236,1249,o),
(378,1338,o),
(534,1338,cs),
(760,1338,o),
(872,1130,o),
(872,713,cs),
(872,311,o),
(768,99,o),
(568,99,cs),
(427,99,o),
(350,208,o),
(350,406,cs),
(350,440,o),
(353,481,o),
(357,512,c),
(990,540,l),
(990,641,l),
(69,641,l),
(53,623,l),
(57,211,o),
(234,-21,o),
(553,-21,cs)
);
}
);
};
layerId = "FA6D65B5-4623-4FAC-A199-3F662257AC29";
shapes = (
{
closed = 1;
nodes = (
(930,-21,o),
(1181,303,o),
(1181,784,cs),
(1181,1239,o),
(956,1546,o),
(626,1546,cs),
(377,1546,o),
(160,1377,o),
(96,1133,c),
(142,1094,l),
(236,1249,o),
(378,1338,o),
(534,1338,cs),
(760,1338,o),
(872,1130,o),
(872,713,cs),
(872,311,o),
(768,99,o),
(568,99,cs),
(427,99,o),
(350,208,o),
(350,406,cs),
(350,440,o),
(353,481,o),
(357,512,c),
(990,540,l),
(990,641,l),
(69,641,l),
(53,623,l),
(57,211,o),
(234,-21,o),
(553,-21,cs)
);
}
);
width = 1254;
},
{
associatedMasterId = "FA6D65B5-4623-4FAC-A199-3F662257AC29";
layerId = "CBD44848-52BD-4DC5-BFA6-577546B7224D";
shapes = (
{
closed = 1;
nodes = (
(1118,-21,o),
(1416,307,o),
(1416,786,cs),
(1416,1239,o),
(1150,1546,o),
(755,1546,cs),
(477,1546,o),
(231,1398,o),
(140,1175,cs),
(124,1133,l),
(172,1104,l),
(206,1148,ls),
(320,1300,o),
(474,1377,o),
(667,1377,cs),
(991,1377,o),
(1168,1142,o),
(1168,714,cs),
(1168,299,o),
(1002,70,o),
(698,70,cs),
(471,70,o),
(352,188,o),
(352,413,cs),
(352,471,o),
(360,510,o),
(360,537,c),
(1189,564,l),
(1189,641,l),
(113,641,l),
(93,623,l),
(101,203,o),
(303,-21,o),
(677,-21,cs)
);
}
);
width = 1528;
},
{
anchors = (
{
name = bottom;
pos = (614,0);
},
{
name = top;
pos = (614,1523);
}
);
background = {
shapes = (
{
closed = 1;
nodes = (
(899,-21,o),
(1139,306,o),
(1139,785,cs),
(1139,1239,o),
(925,1546,o),
(607,1546,cs),
(350,1546,o),
(172,1388,o),
(99,1133,c),
(138,1103,l),
(245,1290,o),
(366,1373,o),
(534,1373,cs),
(790,1373,o),
(926,1141,o),
(926,714,cs),
(926,301,o),
(797,74,o),
(560,74,cs),
(383,74,o),
(291,190,o),
(291,412,cs),
(291,468,o),
(294,507,o),
(297,533,c),
(957,561,l),
(957,641,l),
(87,641,l),
(72,623,l),
(78,204,o),
(242,-21,o),
(542,-21,cs)
);
}
);
};
layerId = "7C8D72FA-6E62-4564-8BB2-D9F9BC4EB15A";
shapes = (
{
closed = 1;
nodes = (
(899,-21,o),
(1139,306,o),
(1139,785,cs),
(1139,1239,o),
(925,1546,o),
(607,1546,cs),
(350,1546,o),
(172,1388,o),
(99,1133,c),
(138,1103,l),
(245,1290,o),
(366,1373,o),
(534,1373,cs),
(790,1373,o),
(926,1141,o),
(926,714,cs),
(926,301,o),
(797,74,o),
(560,74,cs),
(383,74,o),
(291,190,o),
(291,412,cs),
(291,468,o),
(294,507,o),
(297,533,c),
(957,561,l),
(957,641,l),
(87,641,l),
(72,623,l),
(78,204,o),
(242,-21,o),
(542,-21,cs)
);
}
);
width = 1227;
},
{
associatedMasterId = "7C8D72FA-6E62-4564-8BB2-D9F9BC4EB15A";
layerId = "CF48896F-2BD3-42F6-BF7B-6BB773587460";
name = "Jan 7 19, 13:06";
shapes = (
{
closed = 1;
nodes = (
(1124,-21,o),
(1424,306,o),
(1424,785,cs),
(1424,1239,o),
(1156,1546,o),
(759,1546,cs),
(478,1546,o),
(230,1397,o),
(139,1175,cs),
(124,1133,l),
(173,1103,l),
(207,1147,ls),
(319,1294,o),
(477,1373,o),
(667,1373,cs),
(987,1373,o),
(1157,1141,o),
(1157,714,cs),
(1157,301,o),
(996,74,o),
(700,74,cs),
(479,74,o),
(364,190,o),
(364,412,cs),
(364,468,o),
(367,507,o),
(371,533,c),
(1196,561,l),
(1196,641,l),
(109,641,l),
(90,623,l),
(97,204,o),
(302,-21,o),
(678,-21,cs)
);
}
);
visible = 1;
width = 1534;
},
{
associatedMasterId = "FA6D65B5-4623-4FAC-A199-3F662257AC29";
layerId = "F34E63B7-3038-473A-9096-18807603FB47";
name = "Jan 7 19, 13:07";
shapes = (
{
closed = 1;
nodes = (
(1162,-21,o),
(1476,303,o),
(1476,784,cs),
(1476,1239,o),
(1195,1546,o),
(782,1546,cs),
(489,1546,o),
(221,1393,o),
(135,1175,cs),
(120,1133,l),
(177,1094,l),
(214,1138,ls),
(312,1259,o),
(491,1338,o),
(667,1338,cs),
(950,1338,o),
(1090,1130,o),
(1090,713,cs),
(1090,311,o),
(960,99,o),
(710,99,cs),
(534,99,o),
(438,208,o),
(438,406,cs),
(438,440,o),
(441,481,o),
(446,512,c),
(1237,540,l),
(1237,641,l),
(86,641,l),
(66,623,l),
(71,211,o),
(292,-21,o),
(691,-21,cs)
);
}
);
width = 1567;
}
);
unicode = 399;
},
{
glyphname = F;
kernLeft = I;
layers = (
{
anchors = (
{
name = bottom;
pos = (542,0);
},
{
name = top;
pos = (542,1523);
}
);
background = {
shapes = (
{
closed = 1;
nodes = (
(652,0,l),
(652,73,l),
(472,112,l),
(472,1412,l),
(887,1412,l),
(940,1308,o),
(975,1192,o),
(1001,1088,c),
(1062,1088,l),
(1035,1523,l),
(66,1523,l),
(66,1451,l),
(202,1414,l),
(202,112,l),
(66,73,l),
(66,0,l)
);
},
{
closed = 1;
nodes = (
(806,529,l),
(806,1082,l),
(744,1082,l),
(734,1008,o),
(716,935,o),
(686,859,c),
(451,859,l),
(451,754,l),
(686,754,l),
(714,679,o),
(734,603,o),
(744,529,c)
);
}
);
};
layerId = "FA6D65B5-4623-4FAC-A199-3F662257AC29";
shapes = (
{
closed = 1;
nodes = (
(652,0,l),
(652,73,l),
(472,112,l),
(472,1412,l),
(887,1412,l),
(940,1308,o),
(975,1192,o),
(1001,1088,c),
(1062,1088,l),
(1035,1523,l),
(66,1523,l),
(66,1451,l),
(202,1414,l),
(202,112,l),
(66,73,l),
(66,0,l)
);
},
{
closed = 1;
nodes = (
(806,529,l),
(806,1082,l),
(744,1082,l),
(734,1008,o),
(716,935,o),
(686,859,c),
(451,859,l),
(451,754,l),
(686,754,l),
(714,679,o),
(734,603,o),
(744,529,c)
);
}
);
width = 1083;
},
{
associatedMasterId = "FA6D65B5-4623-4FAC-A199-3F662257AC29";
layerId = "CBD44848-52BD-4DC5-BFA6-577546B7224D";
shapes = (
{
closed = 1;
nodes = (
(698,0,l),
(698,45,l),
(473,83,l),
(473,1445,l),
(1041,1445,l),
(1107,1331,o),
(1152,1201,o),
(1183,1088,c),
(1231,1088,l),
(1198,1523,l),
(97,1523,l),
(97,1479,l),
(265,1441,l),
(265,83,l),
(97,45,l),
(97,0,l)
);
},
{
closed = 1;
nodes = (
(948,526,l),
(948,1080,l),
(900,1080,l),
(887,1002,o),
(865,922,o),
(828,843,c),
(446,843,l),
(446,763,l),
(828,763,l),
(865,685,o),
(888,606,o),
(900,526,c)
);
}
);
width = 1286;
},
{
anchors = (
{
name = bottom;
pos = (518,0);
},
{
name = top;
pos = (518,1523);
}
);
background = {
shapes = (
{
closed = 1;
nodes = (
(571,0,l),
(571,48,l),
(391,88,l),
(391,1441,l),
(840,1441,l),
(893,1329,o),
(929,1200,o),
(954,1088,c),
(996,1088,l),
(968,1523,l),
(75,1523,l),
(75,1475,l),
(211,1437,l),
(211,88,l),
(75,48,l),
(75,0,l)
);
},
{
closed = 1;
nodes = (
(765,526,l),
(765,1081,l),
(724,1081,l),
(712,1003,o),
(694,924,o),
(665,845,c),
(370,845,l),
(370,762,l),
(665,762,l),
(694,684,o),
(714,606,o),
(724,526,c)
);
}
);
};
layerId = "7C8D72FA-6E62-4564-8BB2-D9F9BC4EB15A";
shapes = (
{
closed = 1;
nodes = (
(571,0,l),
(571,48,l),
(391,88,l),
(391,1441,l),
(840,1441,l),
(893,1329,o),
(929,1200,o),
(954,1088,c),
(996,1088,l),
(968,1523,l),
(75,1523,l),
(75,1475,l),
(211,1437,l),
(211,88,l),
(75,48,l),
(75,0,l)
);
},
{
closed = 1;
nodes = (
(765,526,l),
(765,1081,l),
(724,1081,l),
(712,1003,o),
(694,924,o),
(665,845,c),
(370,845,l),
(370,762,l),
(665,762,l),
(694,684,o),
(714,606,o),
(724,526,c)
);
}
);
width = 1036;
}
);
unicode = 70;
},
{
glyphname = G;
kernLeft = G;
kernRight = G;
layers = (
{
anchors = (
{
name = bottom;
pos = (677,0);
},
{
name = top;
pos = (677,1523);
}
);
background = {
anchors = (
{
name = bottom;
pos = (694,0);
},
{
name = topcap;
pos = (714,1643);
}
);
shapes = (
{
closed = 1;
nodes = (
(870,-21,o),
(1086,58,o),
(1186,161,c),
(1186,653,l),
(1326,691,l),
(1326,763,l),
(771,763,l),
(771,691,l),
(914,653,l),
(914,318,ls),
(914,256,o),
(910,234,o),
(896,208,cs),
(858,138,o),
(779,94,o),
(687,94,cs),
(474,94,o),
(375,291,o),
(375,746,cs),
(375,1201,o),
(494,1424,o),
(735,1424,cs),
(902,1424,o),
(1002,1322,o),
(1112,1039,c),
(1183,1039,l),
(1183,1523,l),
(1132,1523,l),
(1062,1422,l),
(1056,1422,l),
(979,1498,o),
(847,1544,o),
(706,1544,cs),
(334,1544,o),
(71,1211,o),
(71,738,cs),
(71,283,o),
(317,-21,o),
(687,-21,cs)
);
}
);
};
layerId = "FA6D65B5-4623-4FAC-A199-3F662257AC29";
shapes = (
{
closed = 1;
nodes = (
(870,-21,o),
(1086,58,o),
(1186,161,c),
(1186,653,l),
(1326,691,l),
(1326,763,l),
(771,763,l),
(771,691,l),
(914,653,l),
(914,318,ls),
(914,256,o),
(910,234,o),
(896,208,cs),
(858,138,o),
(779,94,o),
(687,94,cs),
(474,94,o),
(375,291,o),
(375,746,cs),
(375,1201,o),
(494,1424,o),
(735,1424,cs),
(902,1424,o),
(1002,1322,o),
(1112,1039,c),
(1183,1039,l),
(1183,1523,l),
(1132,1523,l),
(1062,1422,l),
(1056,1422,l),
(979,1498,o),
(847,1544,o),
(706,1544,cs),
(334,1544,o),
(71,1211,o),
(71,738,cs),
(71,283,o),
(317,-21,o),
(687,-21,cs)
);
}
);
width = 1354;
},
{
anchors = (
{
name = bottom;
pos = (845,0);
},
{
name = topcap;
pos = (865,1643);
}
);
associatedMasterId = "FA6D65B5-4623-4FAC-A199-3F662257AC29";
layerId = "CBD44848-52BD-4DC5-BFA6-577546B7224D";
shapes = (
{
closed = 1;
nodes = (
(1032,-21,o),
(1259,55,o),
(1368,161,c),
(1368,681,l),
(1544,719,l),
(1544,763,l),
(982,763,l),
(982,719,l),
(1160,681,l),
(1160,295,ls),
(1160,227,o),
(1156,212,o),
(1143,192,cs),
(1094,112,o),
(989,71,o),
(861,71,cs),
(526,71,o),
(362,295,o),
(362,744,cs),
(362,1211,o),
(539,1455,o),
(879,1455,cs),
(1099,1455,o),
(1217,1356,o),
(1344,1069,c),
(1390,1069,l),
(1390,1523,l),
(1346,1523,l),
(1239,1422,l),
(1231,1422,l),
(1143,1500,o),
(1005,1544,o),
(851,1544,cs),
(424,1544,o),
(109,1203,o),
(109,744,cs),
(109,297,o),
(406,-21,o),
(828,-21,cs)
);
}
);
width = 1599;
},
{
anchors = (
{
name = bottom;
pos = (645,0);
},
{
name = top;
pos = (645,1523);
}
);
background = {
anchors = (
{
name = bottom;
pos = (679,0);
},
{
name = topcap;
pos = (694,1643);
}
);
shapes = (
{
closed = 1;
nodes = (
(831,-21,o),
(1017,55,o),
(1106,161,c),
(1106,677,l),
(1247,715,l),
(1247,763,l),
(783,763,l),
(783,715,l),
(926,677,l),
(926,298,ls),
(926,231,o),
(923,214,o),
(912,195,cs),
(874,115,o),
(790,74,o),
(689,74,cs),
(428,74,o),
(302,294,o),
(302,745,cs),
(302,1210,o),
(439,1451,o),
(706,1451,cs),
(882,1451,o),
(978,1352,o),
(1080,1064,c),
(1121,1064,l),
(1121,1523,l),
(1084,1523,l),
(1001,1422,l),
(995,1422,l),
(923,1499,o),
(810,1544,o),
(685,1544,cs),
(338,1544,o),
(85,1204,o),
(85,744,cs),
(85,295,o),
(323,-21,o),
(665,-21,cs)
);
}
);
};
layerId = "7C8D72FA-6E62-4564-8BB2-D9F9BC4EB15A";
shapes = (
{
closed = 1;
nodes = (
(831,-21,o),
(1017,55,o),
(1106,161,c),
(1106,677,l),
(1247,715,l),
(1247,763,l),
(783,763,l),
(783,715,l),
(926,677,l),
(926,298,ls),
(926,231,o),
(923,214,o),
(912,195,cs),
(874,115,o),
(790,74,o),
(689,74,cs),
(428,74,o),
(302,294,o),
(302,745,cs),
(302,1210,o),
(439,1451,o),
(706,1451,cs),
(882,1451,o),
(978,1352,o),
(1080,1064,c),
(1121,1064,l),
(1121,1523,l),
(1084,1523,l),
(1001,1422,l),
(995,1422,l),
(923,1499,o),
(810,1544,o),
(685,1544,cs),
(338,1544,o),
(85,1204,o),
(85,744,cs),
(85,295,o),
(323,-21,o),
(665,-21,cs)
);
}
);
width = 1289;
}
);
unicode = 71;
},
{
glyphname = Gbreve;
kernLeft = G;
kernRight = G;
layers = (
{
background = {
anchors = (
{
name = bottom;
pos = (694,0);
},
{
name = topcap;
pos = (714,1643);
}
);
shapes = (
{
closed = 1;
nodes = (
(870,-21,o),
(1086,58,o),
(1186,161,c),
(1186,653,l),
(1326,691,l),
(1326,763,l),
(771,763,l),
(771,691,l),
(914,653,l),
(914,318,ls),
(914,256,o),
(910,234,o),
(896,208,cs),
(858,138,o),
(779,94,o),
(687,94,cs),
(474,94,o),
(375,291,o),
(375,746,cs),
(375,1201,o),
(494,1424,o),
(735,1424,cs),
(902,1424,o),
(1002,1322,o),
(1112,1039,c),
(1183,1039,l),
(1183,1523,l),
(1132,1523,l),
(1062,1422,l),
(1056,1422,l),
(979,1498,o),
(847,1544,o),
(706,1544,cs),
(334,1544,o),
(71,1211,o),
(71,738,cs),
(71,283,o),
(317,-21,o),
(687,-21,cs)
);
},
{
closed = 1;
nodes = (
(787,1643,o),
(908,1671,o),
(963,1911,c),
(884,1911,l),
(850,1866,o),
(787,1849,o),
(719,1849,cs),
(650,1849,o),
(586,1866,o),
(561,1911,c),
(482,1911,l),
(500,1710,o),
(615,1643,o),
(714,1643,cs)
);
}
);
};
layerId = "FA6D65B5-4623-4FAC-A199-3F662257AC29";
shapes = (
{
ref = G;
},
{
ref = brevecomb.case;
}
);
width = 1354;
},
{
associatedMasterId = "FA6D65B5-4623-4FAC-A199-3F662257AC29";
layerId = "CBD44848-52BD-4DC5-BFA6-577546B7224D";
shapes = (
{
alignment = -1;
ref = G;
},
{
alignment = -1;
pos = (402,0);
ref = brevecomb.case;
}
);
width = 1599;
},
{
background = {
anchors = (
{
name = bottom;
pos = (679,0);
},
{
name = topcap;
pos = (694,1643);
}
);
shapes = (
{
closed = 1;
nodes = (
(831,-21,o),
(1017,55,o),
(1106,161,c),
(1106,677,l),
(1247,715,l),
(1247,763,l),
(783,763,l),
(783,715,l),
(926,677,l),
(926,298,ls),
(926,231,o),
(923,214,o),
(912,195,cs),
(874,115,o),
(790,74,o),
(689,74,cs),
(428,74,o),
(302,294,o),
(302,745,cs),
(302,1210,o),
(439,1451,o),
(706,1451,cs),
(882,1451,o),
(978,1352,o),
(1080,1064,c),
(1121,1064,l),
(1121,1523,l),
(1084,1523,l),
(1001,1422,l),
(995,1422,l),
(923,1499,o),
(810,1544,o),
(685,1544,cs),
(338,1544,o),
(85,1204,o),
(85,744,cs),
(85,295,o),
(323,-21,o),
(665,-21,cs)
);
},
{
closed = 1;
nodes = (
(762,1643,o),
(877,1671,o),
(929,1901,c),
(872,1901,l),
(836,1827,o),
(769,1797,o),
(701,1797,cs),
(627,1797,o),
(558,1827,o),
(533,1901,c),
(476,1901,l),
(492,1708,o),
(601,1643,o),
(694,1643,cs)
);
}
);
};
layerId = "7C8D72FA-6E62-4564-8BB2-D9F9BC4EB15A";
shapes = (
{
ref = G;
},
{
pos = (341,0);
ref = brevecomb.case;
}
);
width = 1289;
}
);
unicode = 286;
},
{
glyphname = Gcircumflex;
kernLeft = G;
kernRight = G;
layers = (
{
background = {
anchors = (
{
name = bottom;
pos = (694,0);
},
{
name = topcap;
pos = (714,1643);
}
);
shapes = (
{
closed = 1;
nodes = (
(870,-21,o),
(1086,58,o),
(1186,161,c),
(1186,653,l),
(1326,691,l),
(1326,763,l),
(771,763,l),
(771,691,l),
(914,653,l),
(914,318,ls),
(914,256,o),
(910,234,o),
(896,208,cs),
(858,138,o),
(779,94,o),
(687,94,cs),
(474,94,o),
(375,291,o),
(375,746,cs),
(375,1201,o),
(494,1424,o),
(735,1424,cs),
(902,1424,o),
(1002,1322,o),
(1112,1039,c),
(1183,1039,l),
(1183,1523,l),
(1132,1523,l),
(1062,1422,l),
(1056,1422,l),
(979,1498,o),
(847,1544,o),
(706,1544,cs),
(334,1544,o),
(71,1211,o),
(71,738,cs),
(71,283,o),
(317,-21,o),
(687,-21,cs)
);
},
{
closed = 1;
nodes = (
(714,1705,l),
(962,1625,l),
(988,1669,l),
(824,1835,ls),
(781,1878,o),
(750,1900,o),
(715,1900,cs),
(674,1900,o),
(644,1878,o),
(601,1835,cs),
(441,1669,l),
(466,1625,l)
);
}
);
};
layerId = "FA6D65B5-4623-4FAC-A199-3F662257AC29";
shapes = (
{
ref = G;
},
{
ref = circumflexcomb.case;
}
);
width = 1354;
},
{
associatedMasterId = "FA6D65B5-4623-4FAC-A199-3F662257AC29";
layerId = "CBD44848-52BD-4DC5-BFA6-577546B7224D";
shapes = (
{
alignment = -1;
ref = G;
},
{
alignment = -1;
pos = (349,20);
ref = circumflexcomb.case;
}
);
width = 1599;
},
{
background = {
anchors = (
{
name = bottom;
pos = (679,0);
},
{
name = topcap;
pos = (694,1643);
}
);
shapes = (
{
closed = 1;
nodes = (
(831,-21,o),
(1017,55,o),
(1106,161,c),
(1106,677,l),
(1247,715,l),
(1247,763,l),
(783,763,l),
(783,715,l),
(926,677,l),
(926,298,ls),
(926,231,o),
(923,214,o),
(912,195,cs),
(874,115,o),
(790,74,o),
(689,74,cs),
(428,74,o),
(302,294,o),
(302,745,cs),
(302,1210,o),
(439,1451,o),
(706,1451,cs),
(882,1451,o),
(978,1352,o),
(1080,1064,c),
(1121,1064,l),
(1121,1523,l),
(1084,1523,l),
(1001,1422,l),
(995,1422,l),
(923,1499,o),
(810,1544,o),
(685,1544,cs),
(338,1544,o),
(85,1204,o),
(85,744,cs),
(85,295,o),
(323,-21,o),
(665,-21,cs)
);
},
{
closed = 1;
nodes = (
(694,1733,l),
(904,1622,l),
(934,1658,l),
(785,1845,ls),
(752,1884,o),
(731,1900,o),
(694,1900,cs),
(654,1900,o),
(635,1880,o),
(606,1845,cs),
(457,1658,l),
(487,1622,l)
);
}
);
};
layerId = "7C8D72FA-6E62-4564-8BB2-D9F9BC4EB15A";
shapes = (
{
ref = G;
},
{
pos = (326,0);
ref = circumflexcomb.case;
}
);
width = 1289;
}
);
unicode = 284;
},
{
glyphname = Gcommaaccent;
kernLeft = G;
kernRight = G;
layers = (
{
background = {
anchors = (
{
name = bottom;
pos = (694,0);
},
{
name = topcap;
pos = (714,1643);
}
);
shapes = (
{
closed = 1;
nodes = (
(870,-21,o),
(1086,58,o),
(1186,161,c),
(1186,653,l),
(1326,691,l),
(1326,763,l),
(771,763,l),
(771,691,l),
(914,653,l),
(914,318,ls),
(914,256,o),
(910,234,o),
(896,208,cs),
(858,138,o),
(779,94,o),
(687,94,cs),
(474,94,o),
(375,291,o),
(375,746,cs),
(375,1201,o),
(494,1424,o),
(735,1424,cs),
(902,1424,o),
(1002,1322,o),
(1112,1039,c),
(1183,1039,l),
(1183,1523,l),
(1132,1523,l),
(1062,1422,l),
(1056,1422,l),
(979,1498,o),
(847,1544,o),
(706,1544,cs),
(334,1544,o),
(71,1211,o),
(71,738,cs),
(71,283,o),
(317,-21,o),
(687,-21,cs)
);
},
{
closed = 1;
nodes = (
(745,-461,o),
(802,-367,o),
(802,-258,cs),
(802,-162,o),
(760,-104,o),
(694,-104,cs),
(632,-104,o),
(589,-149,o),
(589,-208,cs),
(589,-292,o),
(662,-295,o),
(662,-352,cs),
(662,-382,o),
(640,-430,o),
(608,-466,c),
(645,-515,l)
);
}
);
};
layerId = "FA6D65B5-4623-4FAC-A199-3F662257AC29";
shapes = (
{
ref = G;
},
{
pos = (541,0);
ref = commaaccentcomb;
}
);
width = 1354;
},
{
associatedMasterId = "FA6D65B5-4623-4FAC-A199-3F662257AC29";
layerId = "CBD44848-52BD-4DC5-BFA6-577546B7224D";
shapes = (
{
alignment = -1;
ref = G;
},
{
alignment = -1;
pos = (571,1);
ref = commaaccentcomb;
}
);
width = 1599;
},
{
background = {
anchors = (
{
name = bottom;
pos = (679,0);
},
{
name = topcap;
pos = (694,1643);
}
);
shapes = (
{
closed = 1;
nodes = (
(831,-21,o),
(1017,55,o),
(1106,161,c),
(1106,677,l),
(1247,715,l),
(1247,763,l),
(783,763,l),
(783,715,l),
(926,677,l),
(926,298,ls),
(926,231,o),
(923,214,o),
(912,195,cs),
(874,115,o),
(790,74,o),
(689,74,cs),
(428,74,o),
(302,294,o),
(302,745,cs),
(302,1210,o),
(439,1451,o),
(706,1451,cs),
(882,1451,o),
(978,1352,o),
(1080,1064,c),
(1121,1064,l),
(1121,1523,l),
(1084,1523,l),
(1001,1422,l),
(995,1422,l),
(923,1499,o),
(810,1544,o),
(685,1544,cs),
(338,1544,o),
(85,1204,o),
(85,744,cs),
(85,295,o),
(323,-21,o),
(665,-21,cs)
);
},
{
closed = 1;
nodes = (
(718,-425,o),
(767,-337,o),
(767,-223,cs),
(767,-149,o),
(731,-89,o),
(679,-89,cs),
(627,-89,o),
(589,-134,o),
(589,-191,cs),
(589,-284,o),
(665,-269,o),
(665,-339,cs),
(665,-365,o),
(638,-409,o),
(598,-442,c),
(626,-491,l)
);
}
);
};
layerId = "7C8D72FA-6E62-4564-8BB2-D9F9BC4EB15A";
shapes = (
{
ref = G;
},
{
pos = (511,17);
ref = commaaccentcomb;
}
);
width = 1289;
}
);
unicode = 290;
},
{
glyphname = Gdotaccent;
kernLeft = G;
kernRight = G;
layers = (
{
background = {
anchors = (
{
name = bottom;
pos = (694,0);
},
{
name = topcap;
pos = (714,1643);
}
);
shapes = (
{
closed = 1;
nodes = (
(870,-21,o),
(1086,58,o),
(1186,161,c),
(1186,653,l),
(1326,691,l),
(1326,763,l),
(771,763,l),
(771,691,l),
(914,653,l),
(914,318,ls),
(914,256,o),
(910,234,o),
(896,208,cs),
(858,138,o),
(779,94,o),
(687,94,cs),
(474,94,o),
(375,291,o),
(375,746,cs),
(375,1201,o),
(494,1424,o),
(735,1424,cs),
(902,1424,o),
(1002,1322,o),
(1112,1039,c),
(1183,1039,l),
(1183,1523,l),
(1132,1523,l),
(1062,1422,l),
(1056,1422,l),
(979,1498,o),
(847,1544,o),
(706,1544,cs),
(334,1544,o),
(71,1211,o),
(71,738,cs),
(71,283,o),
(317,-21,o),
(687,-21,cs)
);
},
{
closed = 1;
nodes = (
(790,1643,o),
(829,1708,o),
(829,1777,cs),
(829,1847,o),
(785,1911,o),
(714,1911,cs),
(642,1911,o),
(602,1847,o),
(602,1777,cs),
(602,1708,o),
(641,1643,o),
(714,1643,cs)
);
}
);
};
layerId = "FA6D65B5-4623-4FAC-A199-3F662257AC29";
shapes = (
{
ref = G;
},
{
ref = dotaccentcomb.case;
}
);
width = 1354;
},
{
associatedMasterId = "FA6D65B5-4623-4FAC-A199-3F662257AC29";
layerId = "CBD44848-52BD-4DC5-BFA6-577546B7224D";
shapes = (
{
alignment = -1;
ref = G;
},
{
alignment = -1;
pos = (732,0);
ref = dotaccentcomb.case;
}
);
width = 1599;
},
{
background = {
anchors = (
{
name = bottom;
pos = (679,0);
},
{
name = topcap;
pos = (694,1643);
}
);
shapes = (
{
closed = 1;
nodes = (
(831,-21,o),
(1017,55,o),
(1106,161,c),
(1106,677,l),
(1247,715,l),
(1247,763,l),
(783,763,l),
(783,715,l),
(926,677,l),
(926,298,ls),
(926,231,o),
(923,214,o),
(912,195,cs),
(874,115,o),
(790,74,o),
(689,74,cs),
(428,74,o),
(302,294,o),
(302,745,cs),
(302,1210,o),
(439,1451,o),
(706,1451,cs),
(882,1451,o),
(978,1352,o),
(1080,1064,c),
(1121,1064,l),
(1121,1523,l),
(1084,1523,l),
(1001,1422,l),
(995,1422,l),
(923,1499,o),
(810,1544,o),
(685,1544,cs),
(338,1544,o),
(85,1204,o),
(85,744,cs),
(85,295,o),
(323,-21,o),
(665,-21,cs)
);
},
{
closed = 1;
nodes = (
(770,1643,o),
(810,1701,o),
(810,1770,cs),
(810,1844,o),
(769,1900,o),
(705,1900,cs),
(642,1900,o),
(603,1844,o),
(603,1770,cs),
(603,1701,o),
(642,1643,o),
(705,1643,cs)
);
}
);
};
layerId = "7C8D72FA-6E62-4564-8BB2-D9F9BC4EB15A";
shapes = (
{
ref = G;
},
{
pos = (494,0);
ref = dotaccentcomb.case;
}
);
width = 1289;
}
);
unicode = 288;
},
{
glyphname = H;
kernLeft = I;
kernRight = I;
layers = (
{
anchors = (
{
name = bottom;
pos = (731,0);
},
{
name = center;
pos = (731,1142);
},
{
name = top;
pos = (731,1523);
},
{
name = topleft;
pos = (20,1523);
}
);
background = {
anchors = (
{
name = bottom;
pos = (730,0);
},
{
name = topcap;
pos = (730,1643);
}
);
shapes = (
{
closed = 1;
nodes = (
(1396,0,l),
(1396,73,l),
(1262,115,l),
(1262,1412,l),
(1396,1451,l),
(1396,1523,l),
(855,1523,l),
(855,1451,l),
(990,1412,l),
(990,115,l),
(855,73,l),
(855,0,l)
);
},
{
closed = 1;
nodes = (
(606,0,l),
(606,73,l),
(474,115,l),
(474,1412,l),
(606,1451,l),
(606,1523,l),
(66,1523,l),
(66,1451,l),
(202,1412,l),
(202,115,l),
(66,73,l),
(66,0,l)
);
},
{
closed = 1;
nodes = (
(1148,747,l),
(1148,861,l),
(318,861,l),
(318,747,l)
);
}
);
};
layerId = "FA6D65B5-4623-4FAC-A199-3F662257AC29";
shapes = (
{
closed = 1;
nodes = (
(1396,0,l),
(1396,73,l),
(1262,115,l),
(1262,1412,l),
(1396,1451,l),
(1396,1523,l),
(855,1523,l),
(855,1451,l),
(990,1412,l),
(990,115,l),
(855,73,l),
(855,0,l)
);
},
{
closed = 1;
nodes = (
(606,0,l),
(606,73,l),
(474,115,l),
(474,1412,l),
(606,1451,l),
(606,1523,l),
(66,1523,l),
(66,1451,l),
(202,1412,l),
(202,115,l),
(66,73,l),
(66,0,l)
);
},
{
closed = 1;
nodes = (
(1148,747,l),
(1148,861,l),
(318,861,l),
(318,747,l)
);
}
);
width = 1461;
},
{
anchors = (
{
name = bottom;
pos = (854,0);
},
{
name = topcap;
pos = (854,1643);
}
);
associatedMasterId = "FA6D65B5-4623-4FAC-A199-3F662257AC29";
layerId = "CBD44848-52BD-4DC5-BFA6-577546B7224D";
shapes = (
{
closed = 1;
nodes = (
(1607,0,l),
(1607,41,l),
(1430,83,l),
(1430,1441,l),
(1607,1474,l),
(1607,1523,l),
(1044,1523,l),
(1044,1479,l),
(1224,1441,l),
(1224,83,l),
(1044,45,l),
(1044,0,l)
);
},
{
closed = 1;
nodes = (
(651,0,l),
(651,45,l),
(474,83,l),
(474,1441,l),
(651,1479,l),
(651,1523,l),
(89,1523,l),
(89,1479,l),
(267,1441,l),
(267,83,l),
(89,45,l),
(89,0,l)
);
},
{
closed = 1;
nodes = (
(1307,762,l),
(1307,841,l),
(396,841,l),
(396,762,l)
);
}
);
width = 1696;
},
{
anchors = (
{
name = bottom;
pos = (685,0);
},
{
name = center;
pos = (685,1142);
},
{
name = top;
pos = (685,1523);
},
{
name = topleft;
pos = (20,1523);
}
);
background = {
anchors = (
{
name = bottom;
pos = (690,0);
},
{
name = topcap;
pos = (690,1643);
}
);
shapes = (
{
closed = 1;
nodes = (
(1300,0,l),
(1300,46,l),
(1160,88,l),
(1160,1437,l),
(1300,1472,l),
(1300,1523,l),
(838,1523,l),
(838,1475,l),
(980,1437,l),
(980,88,l),
(838,48,l),
(838,0,l)
);
},
{
closed = 1;
nodes = (
(533,0,l),
(533,48,l),
(393,88,l),
(393,1437,l),
(533,1475,l),
(533,1523,l),
(70,1523,l),
(70,1475,l),
(213,1437,l),
(213,88,l),
(70,48,l),
(70,0,l)
);
},
{
closed = 1;
nodes = (
(1059,760,l),
(1059,844,l),
(317,844,l),
(317,760,l)
);
}
);
};
layerId = "7C8D72FA-6E62-4564-8BB2-D9F9BC4EB15A";
shapes = (
{
closed = 1;
nodes = (
(1300,0,l),
(1300,46,l),
(1160,88,l),
(1160,1437,l),
(1300,1472,l),
(1300,1523,l),
(838,1523,l),
(838,1475,l),
(980,1437,l),
(980,88,l),
(838,48,l),
(838,0,l)
);
},
{
closed = 1;
nodes = (
(533,0,l),
(533,48,l),
(393,88,l),
(393,1437,l),
(533,1475,l),
(533,1523,l),
(70,1523,l),
(70,1475,l),
(213,1437,l),
(213,88,l),
(70,48,l),
(70,0,l)
);
},
{
closed = 1;
nodes = (
(1059,760,l),
(1059,844,l),
(317,844,l),
(317,760,l)
);
}
);
width = 1370;
}
);
unicode = 72;
},
{
glyphname = Hbar;
kernLeft = I;
kernRight = I;
layers = (
{
background = {
shapes = (
{
closed = 1;
nodes = (
(608,0,l),
(608,73,l),
(475,115,l),
(475,747,l),
(991,747,l),
(991,115,l),
(857,73,l),
(857,0,l),
(1397,0,l),
(1397,73,l),
(1263,115,l),
(1263,1063,l),
(1386,1063,l),
(1386,1211,l),
(1263,1211,l),
(1263,1412,l),
(1397,1451,l),
(1397,1523,l),
(857,1523,l),
(857,1451,l),
(991,1412,l),
(991,1211,l),
(475,1211,l),
(475,1412,l),
(608,1451,l),
(608,1523,l),
(68,1523,l),
(68,1451,l),
(202,1412,l),
(202,1211,l),
(84,1211,l),
(84,1063,l),
(202,1063,l),
(202,115,l),
(68,73,l),
(68,0,l)
);
},
{
closed = 1;
nodes = (
(475,1063,l),
(991,1063,l),
(991,861,l),
(475,861,l)
);
}
);
};
layerId = "FA6D65B5-4623-4FAC-A199-3F662257AC29";
shapes = (
{
closed = 1;
nodes = (
(608,0,l),
(608,73,l),
(475,115,l),
(475,747,l),
(991,747,l),
(991,115,l),
(857,73,l),
(857,0,l),
(1397,0,l),
(1397,73,l),
(1263,115,l),
(1263,1063,l),
(1386,1063,l),
(1386,1211,l),
(1263,1211,l),
(1263,1412,l),
(1397,1451,l),
(1397,1523,l),
(857,1523,l),
(857,1451,l),
(991,1412,l),
(991,1211,l),
(475,1211,l),
(475,1412,l),
(608,1451,l),
(608,1523,l),
(68,1523,l),
(68,1451,l),
(202,1412,l),
(202,1211,l),
(84,1211,l),
(84,1063,l),
(202,1063,l),
(202,115,l),
(68,73,l),
(68,0,l)
);
},
{
closed = 1;
nodes = (
(475,1063,l),
(991,1063,l),
(991,861,l),
(475,861,l)
);
}
);
width = 1465;
},
{
associatedMasterId = "FA6D65B5-4623-4FAC-A199-3F662257AC29";
layerId = "CBD44848-52BD-4DC5-BFA6-577546B7224D";
shapes = (
{
closed = 1;
nodes = (
(651,0,l),
(651,45,l),
(474,83,l),
(474,762,l),
(1224,762,l),
(1224,83,l),
(1044,45,l),
(1044,0,l),
(1607,0,l),
(1607,41,l),
(1430,83,l),
(1430,1082,l),
(1609,1082,l),
(1609,1211,l),
(1430,1211,l),
(1430,1441,l),
(1607,1474,l),
(1607,1523,l),
(1044,1523,l),
(1044,1479,l),
(1224,1441,l),
(1224,1211,l),
(474,1211,l),
(474,1441,l),
(651,1479,l),
(651,1523,l),
(89,1523,l),
(89,1479,l),
(267,1441,l),
(267,1211,l),
(109,1211,l),
(109,1082,l),
(267,1082,l),
(267,83,l),
(89,45,l),
(89,0,l)
);
},
{
closed = 1;
nodes = (
(474,1082,l),
(1224,1082,l),
(1224,841,l),
(474,841,l)
);
}
);
width = 1698;
},
{
background = {
shapes = (
{
closed = 1;
nodes = (
(533,0,l),
(533,48,l),
(393,88,l),
(393,760,l),
(980,760,l),
(980,88,l),
(838,48,l),
(838,0,l),
(1301,0,l),
(1301,46,l),
(1160,88,l),
(1160,1080,l),
(1301,1080,l),
(1301,1211,l),
(1160,1211,l),
(1160,1437,l),
(1301,1472,l),
(1301,1523,l),
(838,1523,l),
(838,1475,l),
(980,1437,l),
(980,1211,l),
(393,1211,l),
(393,1437,l),
(533,1475,l),
(533,1523,l),
(71,1523,l),
(71,1475,l),
(213,1437,l),
(213,1211,l),
(86,1211,l),
(86,1080,l),
(213,1080,l),
(213,88,l),
(71,48,l),
(71,0,l)
);
},
{
closed = 1;
nodes = (
(393,1080,l),
(980,1080,l),
(980,844,l),
(393,844,l)
);
}
);
};
layerId = "7C8D72FA-6E62-4564-8BB2-D9F9BC4EB15A";
shapes = (
{
closed = 1;
nodes = (
(533,0,l),
(533,48,l),
(393,88,l),
(393,760,l),
(980,760,l),
(980,88,l),
(838,48,l),
(838,0,l),
(1301,0,l),
(1301,46,l),
(1160,88,l),
(1160,1080,l),
(1301,1080,l),
(1301,1211,l),
(1160,1211,l),
(1160,1437,l),
(1301,1472,l),
(1301,1523,l),
(838,1523,l),
(838,1475,l),
(980,1437,l),
(980,1211,l),
(393,1211,l),
(393,1437,l),
(533,1475,l),
(533,1523,l),
(71,1523,l),
(71,1475,l),
(213,1437,l),
(213,1211,l),
(86,1211,l),
(86,1080,l),
(213,1080,l),
(213,88,l),
(71,48,l),
(71,0,l)
);
},
{
closed = 1;
nodes = (
(393,1080,l),
(980,1080,l),
(980,844,l),
(393,844,l)
);
}
);
width = 1373;
}
);
unicode = 294;
},
{
glyphname = Hcircumflex;
kernLeft = I;
kernRight = I;
layers = (
{
background = {
anchors = (
{
name = bottom;
pos = (730,0);
},
{
name = topcap;
pos = (730,1643);
}
);
shapes = (
{
closed = 1;
nodes = (
(1396,0,l),
(1396,73,l),
(1262,115,l),
(1262,1412,l),
(1396,1451,l),
(1396,1523,l),
(855,1523,l),
(855,1451,l),
(990,1412,l),
(990,115,l),
(855,73,l),
(855,0,l)
);
},
{
closed = 1;
nodes = (
(606,0,l),
(606,73,l),
(474,115,l),
(474,1412,l),
(606,1451,l),
(606,1523,l),
(66,1523,l),
(66,1451,l),
(202,1412,l),
(202,115,l),
(66,73,l),
(66,0,l)
);
},
{
closed = 1;
nodes = (
(1148,747,l),
(1148,861,l),
(318,861,l),
(318,747,l)
);
},
{
closed = 1;
nodes = (
(730,1705,l),
(978,1625,l),
(1004,1669,l),
(840,1835,ls),
(797,1878,o),
(766,1900,o),
(731,1900,cs),
(690,1900,o),
(660,1878,o),
(617,1835,cs),
(457,1669,l),
(482,1625,l)
);
}
);
};
layerId = "FA6D65B5-4623-4FAC-A199-3F662257AC29";
shapes = (
{
ref = H;
},
{
ref = circumflexcomb.case;
}
);
width = 1461;
},
{
associatedMasterId = "FA6D65B5-4623-4FAC-A199-3F662257AC29";
layerId = "CBD44848-52BD-4DC5-BFA6-577546B7224D";
shapes = (
{
alignment = -1;
ref = H;
},
{
alignment = -1;
pos = (360,0);
ref = circumflexcomb.case;
}
);
width = 1696;
},
{
background = {
anchors = (
{
name = bottom;
pos = (690,0);
},
{
name = topcap;
pos = (690,1643);
}
);
shapes = (
{
closed = 1;
nodes = (
(1300,0,l),
(1300,46,l),
(1160,88,l),
(1160,1437,l),
(1300,1472,l),
(1300,1523,l),
(838,1523,l),
(838,1475,l),
(980,1437,l),
(980,88,l),
(838,48,l),
(838,0,l)
);
},
{
closed = 1;
nodes = (
(533,0,l),
(533,48,l),
(393,88,l),
(393,1437,l),
(533,1475,l),
(533,1523,l),
(70,1523,l),
(70,1475,l),
(213,1437,l),
(213,88,l),
(70,48,l),
(70,0,l)
);
},
{
closed = 1;
nodes = (
(1059,760,l),
(1059,844,l),
(317,844,l),
(317,760,l)
);
},
{
closed = 1;
nodes = (
(690,1733,l),
(900,1622,l),
(930,1658,l),
(781,1845,ls),
(748,1884,o),
(727,1900,o),
(690,1900,cs),
(650,1900,o),
(631,1880,o),
(602,1845,cs),
(453,1658,l),
(483,1622,l)
);
}
);
};
layerId = "7C8D72FA-6E62-4564-8BB2-D9F9BC4EB15A";
shapes = (
{
ref = H;
},
{
pos = (366,0);
ref = circumflexcomb.case;
}
);
width = 1370;
}
);
unicode = 292;
},
{
glyphname = Hdotbelow;
kernLeft = I;
kernRight = I;
layers = (
{
background = {
anchors = (
{
name = bottom;
pos = (730,0);
},
{
name = topcap;
pos = (730,1643);
}
);
shapes = (
{
closed = 1;
nodes = (
(1396,0,l),
(1396,73,l),
(1262,115,l),
(1262,1412,l),
(1396,1451,l),
(1396,1523,l),
(855,1523,l),
(855,1451,l),
(990,1412,l),
(990,115,l),
(855,73,l),
(855,0,l)
);
},
{
closed = 1;
nodes = (
(606,0,l),
(606,73,l),
(474,115,l),
(474,1412,l),
(606,1451,l),
(606,1523,l),
(66,1523,l),
(66,1451,l),
(202,1412,l),
(202,115,l),
(66,73,l),
(66,0,l)
);
},
{
closed = 1;
nodes = (
(1148,747,l),
(1148,861,l),
(318,861,l),
(318,747,l)
);
},
{
closed = 1;
nodes = (
(968,-515,o),
(1015,-433,o),
(1015,-352,cs),
(1015,-265,o),
(961,-188,o),
(874,-188,cs),
(788,-188,o),
(739,-265,o),
(739,-352,cs),
(739,-433,o),
(784,-515,o),
(874,-515,cs)
);
}
);
};
layerId = "FA6D65B5-4623-4FAC-A199-3F662257AC29";
shapes = (
{
ref = H;
},
{
pos = (578,0);
ref = dotbelow;
}
);
width = 1461;
},
{
associatedMasterId = "FA6D65B5-4623-4FAC-A199-3F662257AC29";
layerId = "CBD44848-52BD-4DC5-BFA6-577546B7224D";
shapes = (
{
alignment = -1;
ref = H;
},
{
alignment = -1;
pos = (582,0);
ref = dotbelow;
}
);
width = 1696;
},
{
background = {
anchors = (
{
name = bottom;
pos = (690,0);
},
{
name = topcap;
pos = (690,1643);
}
);
shapes = (
{
closed = 1;
nodes = (
(1300,0,l),
(1300,46,l),
(1160,88,l),
(1160,1437,l),
(1300,1472,l),
(1300,1523,l),
(838,1523,l),
(838,1475,l),
(980,1437,l),
(980,88,l),
(838,48,l),
(838,0,l)
);
},
{
closed = 1;
nodes = (
(533,0,l),
(533,48,l),
(393,88,l),
(393,1437,l),
(533,1475,l),
(533,1523,l),
(70,1523,l),
(70,1475,l),
(213,1437,l),
(213,88,l),
(70,48,l),
(70,0,l)
);
},
{
closed = 1;
nodes = (
(1059,760,l),
(1059,844,l),
(317,844,l),
(317,760,l)
);
},
{
closed = 1;
nodes = (
(900,-508,o),
(940,-448,o),
(940,-377,cs),
(940,-302,o),
(899,-243,o),
(832,-243,cs),
(767,-243,o),
(727,-302,o),
(727,-377,cs),
(727,-448,o),
(767,-508,o),
(832,-508,cs)
);
}
);
};
layerId = "7C8D72FA-6E62-4564-8BB2-D9F9BC4EB15A";
shapes = (
{
ref = H;
},
{
pos = (563,0);
ref = dotbelow;
}
);
width = 1370;
}
);
unicode = 7716;
},
{
color = 4;
glyphname = I;
kernLeft = I;
kernRight = I;
layers = (
{
anchors = (
{
name = bottom;
pos = (337,0);
},
{
name = ogonek;
pos = (606,10);
},
{
name = top;
pos = (337,1523);
},
{
name = topleft;
pos = (20,1523);
}
);
background = {
anchors = (
{
name = bottom;
pos = (336,0);
},
{
name = ogonekcap;
pos = (606,0);
},
{
name = topcap;
pos = (336,1643);
}
);
shapes = (
{
closed = 1;
nodes = (
(606,0,l),
(606,73,l),
(474,115,l),
(474,1412,l),
(606,1451,l),
(606,1523,l),
(66,1523,l),
(66,1451,l),
(202,1412,l),
(202,115,l),
(66,73,l),
(66,0,l)
);
}
);
};
layerId = "FA6D65B5-4623-4FAC-A199-3F662257AC29";
shapes = (
{
closed = 1;
nodes = (
(606,0,l),
(606,73,l),
(474,115,l),
(474,1412,l),
(606,1451,l),
(606,1523,l),
(66,1523,l),
(66,1451,l),
(202,1412,l),
(202,115,l),
(66,73,l),
(66,0,l)
);
}
);
width = 673;
},
{
anchors = (
{
name = bottom;
pos = (372,0);
},
{
name = topcap;
pos = (372,1643);
}
);
associatedMasterId = "FA6D65B5-4623-4FAC-A199-3F662257AC29";
layerId = "CBD44848-52BD-4DC5-BFA6-577546B7224D";
shapes = (
{
closed = 1;
nodes = (
(651,0,l),
(651,45,l),
(474,83,l),
(474,1441,l),
(651,1479,l),
(651,1523,l),
(89,1523,l),
(89,1479,l),
(267,1441,l),
(267,83,l),
(89,45,l),
(89,0,l)
);
}
);
width = 740;
},
{
anchors = (
{
name = bottom;
pos = (301,0);
},
{
name = ogonek;
pos = (542,10);
},
{
name = top;
pos = (301,1523);
},
{
name = topleft;
pos = (20,1523);
}
);
background = {
anchors = (
{
name = bottom;
pos = (303,0);
},
{
name = ogonekcap;
pos = (533,0);
},
{
name = topcap;
pos = (303,1643);
}
);
shapes = (
{
closed = 1;
nodes = (
(533,0,l),
(533,48,l),
(393,88,l),
(393,1437,l),
(533,1475,l),
(533,1523,l),
(70,1523,l),
(70,1475,l),
(213,1437,l),
(213,88,l),
(70,48,l),
(70,0,l)
);
}
);
};
layerId = "7C8D72FA-6E62-4564-8BB2-D9F9BC4EB15A";
shapes = (
{
closed = 1;
nodes = (
(533,0,l),
(533,48,l),
(393,88,l),
(393,1437,l),
(533,1475,l),
(533,1523,l),
(70,1523,l),
(70,1475,l),
(213,1437,l),
(213,88,l),
(70,48,l),
(70,0,l)
);
}
);
width = 602;
}
);
unicode = 73;
},
{
glyphname = IJ;
kernLeft = I;
kernRight = J;
layers = (
{
background = {
anchors = (
{
name = bottom;
pos = (336,0);
},
{
name = ogonekcap;
pos = (606,0);
},
{
name = topcap;
pos = (997,1643);
}
);
shapes = (
{
closed = 1;
nodes = (
(606,0,l),
(606,73,l),
(474,115,l),
(474,1412,l),
(606,1451,l),
(606,1523,l),
(66,1523,l),
(66,1451,l),
(202,1412,l),
(202,115,l),
(66,73,l),
(66,0,l)
);
},
{
closed = 1;
nodes = (
(846,-515,o),
(996,-425,o),
(1079,-260,cs),
(1125,-154,o),
(1134,-81,o),
(1134,307,cs),
(1134,1412,l),
(1267,1451,l),
(1267,1523,l),
(727,1523,l),
(727,1451,l),
(861,1412,l),
(861,-85,ls),
(861,-299,o),
(811,-402,o),
(747,-402,cs),
(709,-402,o),
(683,-364,o),
(659,-275,cs),
(638,-204,o),
(608,-153,o),
(543,-153,cs),
(479,-153,o),
(429,-204,o),
(429,-303,cs),
(429,-432,o),
(526,-515,o),
(696,-515,cs)
);
}
);
};
layerId = "FA6D65B5-4623-4FAC-A199-3F662257AC29";
shapes = (
{
ref = I;
},
{
pos = (673,0);
ref = J;
}
);
width = 1321;
},
{
associatedMasterId = "FA6D65B5-4623-4FAC-A199-3F662257AC29";
layerId = "CBD44848-52BD-4DC5-BFA6-577546B7224D";
shapes = (
{
alignment = -1;
ref = I;
},
{
alignment = -1;
pos = (740,0);
ref = J;
}
);
width = 1456;
},
{
background = {
anchors = (
{
name = bottom;
pos = (303,0);
},
{
name = ogonekcap;
pos = (533,0);
},
{
name = topcap;
pos = (894,1643);
}
);
shapes = (
{
closed = 1;
nodes = (
(533,0,l),
(533,48,l),
(393,88,l),
(393,1437,l),
(533,1475,l),
(533,1523,l),
(70,1523,l),
(70,1475,l),
(213,1437,l),
(213,88,l),
(70,48,l),
(70,0,l)
);
},
{
closed = 1;
nodes = (
(724,-515,o),
(855,-425,o),
(929,-260,cs),
(975,-154,o),
(984,-81,o),
(984,307,cs),
(984,1437,l),
(1124,1475,l),
(1124,1523,l),
(662,1523,l),
(662,1475,l),
(803,1437,l),
(803,-93,ls),
(803,-307,o),
(747,-410,o),
(675,-410,cs),
(634,-410,o),
(602,-378,o),
(580,-301,cs),
(561,-240,o),
(536,-206,o),
(488,-206,cs),
(431,-206,o),
(393,-256,o),
(393,-336,cs),
(393,-448,o),
(468,-515,o),
(592,-515,cs)
);
}
);
};
layerId = "7C8D72FA-6E62-4564-8BB2-D9F9BC4EB15A";
shapes = (
{
ref = I;
},
{
pos = (602,0);
ref = J;
}
);
width = 1185;
}
);
unicode = 306;
},
{
color = 4;
glyphname = Iacute;
kernLeft = I;
kernRight = I;
layers = (
{
background = {
anchors = (
{
name = bottom;
pos = (336,0);
},
{
name = ogonekcap;
pos = (606,0);
},
{
name = topcap;
pos = (336,1643);
}
);
shapes = (
{
closed = 1;
nodes = (
(606,0,l),
(606,73,l),
(474,115,l),
(474,1412,l),
(606,1451,l),
(606,1523,l),
(66,1523,l),
(66,1451,l),
(202,1412,l),
(202,115,l),
(66,73,l),
(66,0,l)
);
},
{
closed = 1;
nodes = (
(482,1680,ls),
(548,1696,o),
(576,1750,o),
(576,1800,cs),
(576,1854,o),
(543,1906,o),
(488,1906,cs),
(462,1906,o),
(428,1893,o),
(392,1859,cs),
(195,1672,l),
(221,1617,l)
);
}
);
};
layerId = "FA6D65B5-4623-4FAC-A199-3F662257AC29";
shapes = (
{
ref = I;
},
{
pos = (119,1);
ref = acutecomb.case;
}
);
width = 673;
},
{
associatedMasterId = "FA6D65B5-4623-4FAC-A199-3F662257AC29";
layerId = "CBD44848-52BD-4DC5-BFA6-577546B7224D";
shapes = (
{
alignment = -1;
ref = I;
},
{
alignment = -1;
pos = (127,21);
ref = acutecomb.case;
}
);
width = 740;
},
{
background = {
anchors = (
{
name = bottom;
pos = (303,0);
},
{
name = ogonekcap;
pos = (533,0);
},
{
name = topcap;
pos = (303,1643);
}
);
shapes = (
{
closed = 1;
nodes = (
(533,0,l),
(533,48,l),
(393,88,l),
(393,1437,l),
(533,1475,l),
(533,1523,l),
(70,1523,l),
(70,1475,l),
(213,1437,l),
(213,88,l),
(70,48,l),
(70,0,l)
);
},
{
closed = 1;
nodes = (
(389,1717,ls),
(469,1744,o),
(494,1783,o),
(494,1829,cs),
(494,1880,o),
(461,1918,o),
(423,1918,cs),
(398,1918,o),
(377,1908,o),
(350,1884,cs),
(128,1675,l),
(146,1633,l)
);
}
);
};
layerId = "7C8D72FA-6E62-4564-8BB2-D9F9BC4EB15A";
shapes = (
{
ref = I;
},
{
pos = (44,0);
ref = acutecomb.case;
}
);
width = 602;
}
);
unicode = 205;
},
{
glyphname = Ibreve;
kernLeft = I;
kernRight = I;
layers = (
{
background = {
anchors = (
{
name = bottom;
pos = (336,0);
},
{
name = ogonekcap;
pos = (606,0);
},
{
name = topcap;
pos = (336,1643);
}
);
shapes = (
{
closed = 1;
nodes = (
(606,0,l),
(606,73,l),
(474,115,l),
(474,1412,l),
(606,1451,l),
(606,1523,l),
(66,1523,l),
(66,1451,l),
(202,1412,l),
(202,115,l),
(66,73,l),
(66,0,l)
);
},
{
closed = 1;
nodes = (
(409,1643,o),
(530,1671,o),
(585,1911,c),
(506,1911,l),
(472,1866,o),
(409,1849,o),
(341,1849,cs),
(272,1849,o),
(208,1866,o),
(183,1911,c),
(104,1911,l),
(122,1710,o),
(237,1643,o),
(336,1643,cs)
);
}
);
};
layerId = "FA6D65B5-4623-4FAC-A199-3F662257AC29";
shapes = (
{
ref = I;
},
{
pos = (-5,1);
ref = brevecomb.case;
}
);
width = 673;
},
{
associatedMasterId = "FA6D65B5-4623-4FAC-A199-3F662257AC29";
layerId = "CBD44848-52BD-4DC5-BFA6-577546B7224D";
shapes = (
{
alignment = -1;
ref = I;
},
{
alignment = -1;
pos = (71,0);
ref = brevecomb.case;
}
);
width = 740;
},
{
background = {
anchors = (
{
name = bottom;
pos = (303,0);
},
{
name = ogonekcap;
pos = (533,0);
},
{
name = topcap;
pos = (303,1643);
}
);
shapes = (
{
closed = 1;
nodes = (
(533,0,l),
(533,48,l),
(393,88,l),
(393,1437,l),
(533,1475,l),
(533,1523,l),
(70,1523,l),
(70,1475,l),
(213,1437,l),
(213,88,l),
(70,48,l),
(70,0,l)
);
},
{
closed = 1;
nodes = (
(364,1642,o),
(479,1670,o),
(531,1900,c),
(474,1900,l),
(438,1826,o),
(371,1796,o),
(303,1796,cs),
(229,1796,o),
(160,1826,o),
(135,1900,c),
(78,1900,l),
(94,1707,o),
(203,1642,o),
(296,1642,cs)
);
}
);
};
layerId = "7C8D72FA-6E62-4564-8BB2-D9F9BC4EB15A";
shapes = (
{
ref = I;
},
{
pos = (-3,0);
ref = brevecomb.case;
}
);
width = 602;
}
);
unicode = 300;
},
{
glyphname = Icircumflex;
kernLeft = I;
kernRight = I;
layers = (
{
background = {
anchors = (
{
name = bottom;
pos = (336,0);
},
{
name = ogonekcap;
pos = (606,0);
},
{
name = topcap;
pos = (336,1643);
}
);
shapes = (
{
closed = 1;
nodes = (
(606,0,l),
(606,73,l),
(474,115,l),
(474,1412,l),
(606,1451,l),
(606,1523,l),
(66,1523,l),
(66,1451,l),
(202,1412,l),
(202,115,l),
(66,73,l),
(66,0,l)
);
},
{
closed = 1;
nodes = (
(336,1705,l),
(584,1625,l),
(610,1669,l),
(446,1835,ls),
(403,1878,o),
(372,1900,o),
(337,1900,cs),
(296,1900,o),
(266,1878,o),
(223,1835,cs),
(63,1669,l),
(88,1625,l)
);
}
);
};
layerId = "FA6D65B5-4623-4FAC-A199-3F662257AC29";
shapes = (
{
ref = I;
},
{
pos = (-46,1);
ref = circumflexcomb.case;
}
);
width = 673;
},
{
associatedMasterId = "FA6D65B5-4623-4FAC-A199-3F662257AC29";
layerId = "CBD44848-52BD-4DC5-BFA6-577546B7224D";
shapes = (
{
alignment = -1;
ref = I;
},
{
alignment = -1;
pos = (62,2);
ref = circumflexcomb.case;
}
);
width = 740;
},
{
background = {
anchors = (
{
name = bottom;
pos = (303,0);
},
{
name = ogonekcap;
pos = (533,0);
},
{
name = topcap;
pos = (303,1643);
}
);
shapes = (
{
closed = 1;
nodes = (
(533,0,l),
(533,48,l),
(393,88,l),
(393,1437,l),
(533,1475,l),
(533,1523,l),
(70,1523,l),
(70,1475,l),
(213,1437,l),
(213,88,l),
(70,48,l),
(70,0,l)
);
},
{
closed = 1;
nodes = (
(303,1735,l),
(513,1624,l),
(543,1660,l),
(394,1847,ls),
(361,1886,o),
(340,1902,o),
(303,1902,cs),
(263,1902,o),
(244,1882,o),
(215,1847,cs),
(66,1660,l),
(96,1624,l)
);
}
);
};
layerId = "7C8D72FA-6E62-4564-8BB2-D9F9BC4EB15A";
shapes = (
{
ref = I;
},
{
pos = (-18,0);
ref = circumflexcomb.case;
}
);
width = 602;
}
);
unicode = 206;
},
{
glyphname = Idieresis;
kernLeft = I;
kernRight = I;
layers = (
{
background = {
anchors = (
{
name = bottom;
pos = (336,0);
},
{
name = ogonekcap;
pos = (606,0);
},
{
name = topcap;
pos = (336,1643);
}
);
shapes = (
{
closed = 1;
nodes = (
(606,0,l),
(606,73,l),
(474,115,l),
(474,1412,l),
(606,1451,l),
(606,1523,l),
(66,1523,l),
(66,1451,l),
(202,1412,l),
(202,115,l),
(66,73,l),
(66,0,l)
);
},
{
closed = 1;
nodes = (
(577,1643,o),
(614,1712,o),
(614,1775,cs),
(614,1847,o),
(570,1911,o),
(499,1911,cs),
(428,1911,o),
(387,1847,o),
(387,1775,cs),
(387,1712,o),
(426,1643,o),
(499,1643,cs)
);
},
{
closed = 1;
nodes = (
(248,1643,o),
(287,1712,o),
(287,1775,cs),
(287,1847,o),
(243,1911,o),
(172,1911,cs),
(100,1911,o),
(60,1847,o),
(60,1775,cs),
(60,1712,o),
(97,1643,o),
(172,1643,cs)
);
}
);
};
layerId = "FA6D65B5-4623-4FAC-A199-3F662257AC29";
shapes = (
{
ref = I;
},
{
pos = (-51,1);
ref = dieresiscomb.case;
}
);
width = 673;
},
{
associatedMasterId = "FA6D65B5-4623-4FAC-A199-3F662257AC29";
layerId = "CBD44848-52BD-4DC5-BFA6-577546B7224D";
shapes = (
{
alignment = -1;
ref = I;
},
{
alignment = -1;
pos = (60,0);
ref = dieresiscomb.case;
}
);
width = 740;
},
{
background = {
anchors = (
{
name = bottom;
pos = (303,0);
},
{
name = ogonekcap;
pos = (533,0);
},
{
name = topcap;
pos = (303,1643);
}
);
shapes = (
{
closed = 1;
nodes = (
(533,0,l),
(533,48,l),
(393,88,l),
(393,1437,l),
(533,1475,l),
(533,1523,l),
(70,1523,l),
(70,1475,l),
(213,1437,l),
(213,88,l),
(70,48,l),
(70,0,l)
);
},
{
closed = 1;
nodes = (
(510,1688,o),
(545,1741,o),
(545,1801,cs),
(545,1864,o),
(509,1914,o),
(454,1914,cs),
(399,1914,o),
(363,1864,o),
(363,1801,cs),
(363,1741,o),
(398,1688,o),
(454,1688,cs)
);
},
{
closed = 1;
nodes = (
(210,1688,o),
(244,1741,o),
(244,1801,cs),
(244,1864,o),
(209,1914,o),
(153,1914,cs),
(98,1914,o),
(64,1864,o),
(64,1801,cs),
(64,1741,o),
(97,1688,o),
(153,1688,cs)
);
}
);
};
layerId = "7C8D72FA-6E62-4564-8BB2-D9F9BC4EB15A";
shapes = (
{
ref = I;
},
{
pos = (-21,0);
ref = dieresiscomb.case;
}
);
width = 602;
}
);
unicode = 207;
},
{
glyphname = Idotaccent;
kernLeft = I;
kernRight = I;
layers = (
{
background = {
anchors = (
{
name = bottom;
pos = (336,0);
},
{
name = ogonekcap;
pos = (606,0);
},
{
name = topcap;
pos = (336,1643);
}
);
shapes = (
{
closed = 1;
nodes = (
(606,0,l),
(606,73,l),
(474,115,l),
(474,1412,l),
(606,1451,l),
(606,1523,l),
(66,1523,l),
(66,1451,l),
(202,1412,l),
(202,115,l),
(66,73,l),
(66,0,l)
);
},
{
closed = 1;
nodes = (
(412,1643,o),
(451,1708,o),
(451,1777,cs),
(451,1847,o),
(407,1911,o),
(336,1911,cs),
(264,1911,o),
(224,1847,o),
(224,1777,cs),
(224,1708,o),
(263,1643,o),
(336,1643,cs)
);
}
);
};
layerId = "FA6D65B5-4623-4FAC-A199-3F662257AC29";
shapes = (
{
ref = I;
},
{
pos = (154,1);
ref = dotaccentcomb.case;
}
);
width = 673;
},
{
associatedMasterId = "FA6D65B5-4623-4FAC-A199-3F662257AC29";
layerId = "CBD44848-52BD-4DC5-BFA6-577546B7224D";
shapes = (
{
alignment = -1;
ref = I;
},
{
alignment = -1;
pos = (226,0);
ref = dotaccentcomb.case;
}
);
width = 740;
},
{
background = {
anchors = (
{
name = bottom;
pos = (303,0);
},
{
name = ogonekcap;
pos = (533,0);
},
{
name = topcap;
pos = (303,1643);
}
);
shapes = (
{
closed = 1;
nodes = (
(533,0,l),
(533,48,l),
(393,88,l),
(393,1437,l),
(533,1475,l),
(533,1523,l),
(70,1523,l),
(70,1475,l),
(213,1437,l),
(213,88,l),
(70,48,l),
(70,0,l)
);
},
{
closed = 1;
nodes = (
(368,1643,o),
(408,1701,o),
(408,1770,cs),
(408,1844,o),
(367,1900,o),
(303,1900,cs),
(240,1900,o),
(201,1844,o),
(201,1770,cs),
(201,1701,o),
(240,1643,o),
(303,1643,cs)
);
}
);
};
layerId = "7C8D72FA-6E62-4564-8BB2-D9F9BC4EB15A";
shapes = (
{
ref = I;
},
{
pos = (150,0);
ref = dotaccentcomb.case;
}
);
width = 602;
}
);
unicode = 304;
},
{
glyphname = Idotbelow;
kernLeft = I;
kernRight = I;
layers = (
{
background = {
anchors = (
{
name = bottom;
pos = (336,0);
},
{
name = ogonekcap;
pos = (606,0);
},
{
name = topcap;
pos = (336,1643);
}
);
shapes = (
{
closed = 1;
nodes = (
(606,0,l),
(606,73,l),
(474,115,l),
(474,1412,l),
(606,1451,l),
(606,1523,l),
(66,1523,l),
(66,1451,l),
(202,1412,l),
(202,115,l),
(66,73,l),
(66,0,l)
);
},
{
closed = 1;
nodes = (
(477,-515,o),
(524,-433,o),
(524,-352,cs),
(524,-265,o),
(470,-188,o),
(383,-188,cs),
(297,-188,o),
(248,-265,o),
(248,-352,cs),
(248,-433,o),
(293,-515,o),
(383,-515,cs)
);
}
);
};
layerId = "FA6D65B5-4623-4FAC-A199-3F662257AC29";
shapes = (
{
ref = I;
},
{
pos = (185,0);
ref = dotbelow;
}
);
width = 673;
},
{
associatedMasterId = "FA6D65B5-4623-4FAC-A199-3F662257AC29";
layerId = "CBD44848-52BD-4DC5-BFA6-577546B7224D";
shapes = (
{
alignment = -1;
ref = I;
},
{
alignment = -1;
pos = (226,0);
ref = dotbelow;
}
);
width = 740;
},
{
background = {
anchors = (
{
name = bottom;
pos = (303,0);
},
{
name = ogonekcap;
pos = (533,0);
},
{
name = topcap;
pos = (303,1643);
}
);
shapes = (
{
closed = 1;
nodes = (
(533,0,l),
(533,48,l),
(393,88,l),
(393,1437,l),
(533,1475,l),
(533,1523,l),
(70,1523,l),
(70,1475,l),
(213,1437,l),
(213,88,l),
(70,48,l),
(70,0,l)
);
},
{
closed = 1;
nodes = (
(417,-508,o),
(457,-448,o),
(457,-377,cs),
(457,-302,o),
(416,-243,o),
(349,-243,cs),
(284,-243,o),
(244,-302,o),
(244,-377,cs),
(244,-448,o),
(284,-508,o),
(349,-508,cs)
);
}
);
};
layerId = "7C8D72FA-6E62-4564-8BB2-D9F9BC4EB15A";
shapes = (
{
ref = I;
},
{
pos = (179,0);
ref = dotbelow;
}
);
width = 602;
}
);
unicode = 7882;
},
{
glyphname = Igrave;
kernLeft = I;
kernRight = I;
layers = (
{
background = {
anchors = (
{
name = bottom;
pos = (336,0);
},
{
name = ogonekcap;
pos = (606,0);
},
{
name = topcap;
pos = (336,1643);
}
);
shapes = (
{
closed = 1;
nodes = (
(606,0,l),
(606,73,l),
(474,115,l),
(474,1412,l),
(606,1451,l),
(606,1523,l),
(66,1523,l),
(66,1451,l),
(202,1412,l),
(202,115,l),
(66,73,l),
(66,0,l)
);
},
{
closed = 1;
nodes = (
(504,1672,l),
(306,1859,ls),
(269,1893,o),
(236,1906,o),
(208,1906,cs),
(156,1906,o),
(123,1854,o),
(123,1800,cs),
(123,1750,o),
(149,1696,o),
(215,1680,cs),
(476,1617,l)
);
}
);
};
layerId = "FA6D65B5-4623-4FAC-A199-3F662257AC29";
shapes = (
{
ref = I;
},
{
pos = (58,1);
ref = gravecomb.case;
}
);
width = 673;
},
{
associatedMasterId = "FA6D65B5-4623-4FAC-A199-3F662257AC29";
layerId = "CBD44848-52BD-4DC5-BFA6-577546B7224D";
shapes = (
{
alignment = -1;
ref = I;
},
{
alignment = -1;
pos = (124,0);
ref = gravecomb.case;
}
);
width = 740;
},
{
background = {
anchors = (
{
name = bottom;
pos = (303,0);
},
{
name = ogonekcap;
pos = (533,0);
},
{
name = topcap;
pos = (303,1643);
}
);
shapes = (
{
closed = 1;
nodes = (
(533,0,l),
(533,48,l),
(393,88,l),
(393,1437,l),
(533,1475,l),
(533,1523,l),
(70,1523,l),
(70,1475,l),
(213,1437,l),
(213,88,l),
(70,48,l),
(70,0,l)
);
},
{
closed = 1;
nodes = (
(484,1658,l),
(261,1867,ls),
(235,1891,o),
(212,1901,o),
(187,1901,cs),
(151,1901,o),
(118,1863,o),
(118,1812,cs),
(118,1766,o),
(143,1727,o),
(223,1700,cs),
(466,1616,l)
);
}
);
};
layerId = "7C8D72FA-6E62-4564-8BB2-D9F9BC4EB15A";
shapes = (
{
ref = I;
},
{
pos = (51,0);
ref = gravecomb.case;
}
);
width = 602;
}
);
unicode = 204;
},
{
glyphname = Imacron;
kernLeft = I;
kernRight = I;
layers = (
{
background = {
anchors = (
{
name = bottom;
pos = (336,0);
},
{
name = ogonekcap;
pos = (606,0);
},
{
name = topcap;
pos = (336,1643);
}
);
shapes = (
{
closed = 1;
nodes = (
(606,0,l),
(606,73,l),
(474,115,l),
(474,1412,l),
(606,1451,l),
(606,1523,l),
(66,1523,l),
(66,1451,l),
(202,1412,l),
(202,115,l),
(66,73,l),
(66,0,l)
);
},
{
closed = 1;
nodes = (
(578,1712,l),
(578,1902,l),
(93,1902,l),
(93,1712,l)
);
}
);
};
layerId = "FA6D65B5-4623-4FAC-A199-3F662257AC29";
shapes = (
{
ref = I;
},
{
pos = (-8,1);
ref = macroncomb.case;
}
);
width = 673;
},
{
associatedMasterId = "FA6D65B5-4623-4FAC-A199-3F662257AC29";
layerId = "CBD44848-52BD-4DC5-BFA6-577546B7224D";
shapes = (
{
alignment = -1;
ref = I;
},
{
alignment = -1;
pos = (70,0);
ref = macroncomb.case;
}
);
width = 740;
},
{
background = {
anchors = (
{
name = bottom;
pos = (303,0);
},
{
name = ogonekcap;
pos = (533,0);
},
{
name = topcap;
pos = (303,1643);
}
);
shapes = (
{
closed = 1;
nodes = (
(533,0,l),
(533,48,l),
(393,88,l),
(393,1437,l),
(533,1475,l),
(533,1523,l),
(70,1523,l),
(70,1475,l),
(213,1437,l),
(213,88,l),
(70,48,l),
(70,0,l)
);
},
{
closed = 1;
nodes = (
(534,1734,l),
(534,1880,l),
(77,1880,l),
(77,1734,l)
);
}
);
};
layerId = "7C8D72FA-6E62-4564-8BB2-D9F9BC4EB15A";
shapes = (
{
ref = I;
},
{
pos = (-6,0);
ref = macroncomb.case;
}
);
width = 602;
}
);
unicode = 298;
},
{
glyphname = Iogonek;
kernLeft = I;
kernRight = I;
layers = (
{
background = {
anchors = (
{
name = bottom;
pos = (336,0);
},
{
name = ogonekcap;
pos = (606,0);
},
{
name = topcap;
pos = (336,1643);
}
);
shapes = (
{
closed = 1;
nodes = (
(606,0,l),
(606,73,l),
(474,115,l),
(474,1412,l),
(606,1451,l),
(606,1523,l),
(66,1523,l),
(66,1451,l),
(202,1412,l),
(202,115,l),
(66,73,l),
(66,0,l)
);
},
{
closed = 1;
nodes = (
(502,-533,o),
(572,-496,o),
(636,-416,c),
(614,-332,l),
(578,-357,o),
(552,-368,o),
(521,-368,cs),
(471,-368,o),
(445,-337,o),
(445,-278,cs),
(445,-197,o),
(497,-106,o),
(606,0,c),
(545,14,l),
(292,-70,o),
(172,-183,o),
(172,-332,cs),
(172,-472,o),
(268,-533,o),
(398,-533,cs)
);
}
);
};
layerId = "FA6D65B5-4623-4FAC-A199-3F662257AC29";
shapes = (
{
ref = I;
},
{
pos = (178,-4);
ref = ogonekcomb.case;
}
);
width = 673;
},
{
associatedMasterId = "FA6D65B5-4623-4FAC-A199-3F662257AC29";
layerId = "CBD44848-52BD-4DC5-BFA6-577546B7224D";
shapes = (
{
alignment = -1;
ref = I;
},
{
alignment = -1;
pos = (81,0);
ref = ogonek;
}
);
width = 740;
},
{
background = {
anchors = (
{
name = bottom;
pos = (303,0);
},
{
name = ogonekcap;
pos = (533,0);
},
{
name = topcap;
pos = (303,1643);
}
);
shapes = (
{
closed = 1;
nodes = (
(533,0,l),
(533,48,l),
(393,88,l),
(393,1437,l),
(533,1475,l),
(533,1523,l),
(70,1523,l),
(70,1475,l),
(213,1437,l),
(213,88,l),
(70,48,l),
(70,0,l)
);
},
{
closed = 1;
nodes = (
(452,-529,o),
(514,-484,o),
(558,-423,c),
(535,-373,l),
(500,-397,o),
(476,-410,o),
(446,-410,cs),
(399,-410,o),
(375,-377,o),
(375,-302,cs),
(375,-215,o),
(427,-92,o),
(533,0,c),
(478,18,l),
(295,-89,o),
(200,-222,o),
(200,-354,cs),
(200,-476,o),
(270,-529,o),
(363,-529,cs)
);
}
);
};
layerId = "7C8D72FA-6E62-4564-8BB2-D9F9BC4EB15A";
shapes = (
{
ref = I;
},
{
pos = (121,-8);
ref = ogonekcomb.case;
}
);
width = 602;
}
);
unicode = 302;
},
{
glyphname = Itilde;
kernLeft = I;
kernRight = I;
layers = (
{
background = {
anchors = (
{
name = bottom;
pos = (336,0);
},
{
name = ogonekcap;
pos = (606,0);
},
{
name = topcap;
pos = (336,1643);
}
);
shapes = (
{
closed = 1;
nodes = (
(606,0,l),
(606,73,l),
(474,115,l),
(474,1412,l),
(606,1451,l),
(606,1523,l),
(66,1523,l),
(66,1451,l),
(202,1412,l),
(202,115,l),
(66,73,l),
(66,0,l)
);
},
{
closed = 1;
nodes = (
(541,1624,o),
(595,1729,o),
(595,1911,c),
(533,1911,l),
(523,1864,o),
(488,1837,o),
(438,1837,cs),
(365,1837,o),
(328,1908,o),
(246,1908,cs),
(148,1908,o),
(78,1812,o),
(78,1627,c),
(139,1627,l),
(145,1672,o),
(180,1703,o),
(235,1703,cs),
(315,1703,o),
(345,1624,o),
(433,1624,cs)
);
}
);
};
layerId = "FA6D65B5-4623-4FAC-A199-3F662257AC29";
shapes = (
{
ref = I;
},
{
pos = (-27,1);
ref = tildecomb.case;
}
);
width = 673;
},
{
associatedMasterId = "FA6D65B5-4623-4FAC-A199-3F662257AC29";
layerId = "CBD44848-52BD-4DC5-BFA6-577546B7224D";
shapes = (
{
alignment = -1;
ref = I;
},
{
alignment = -1;
pos = (50,0);
ref = tildecomb.case;
}
);
width = 740;
},
{
background = {
anchors = (
{
name = bottom;
pos = (303,0);
},
{
name = ogonekcap;
pos = (533,0);
},
{
name = topcap;
pos = (303,1643);
}
);
shapes = (
{
closed = 1;
nodes = (
(533,0,l),
(533,48,l),
(393,88,l),
(393,1437,l),
(533,1475,l),
(533,1523,l),
(70,1523,l),
(70,1475,l),
(213,1437,l),
(213,88,l),
(70,48,l),
(70,0,l)
);
},
{
closed = 1;
nodes = (
(492,1661,o),
(548,1759,o),
(548,1902,c),
(508,1902,l),
(499,1854,o),
(472,1827,o),
(426,1827,cs),
(354,1827,o),
(269,1896,o),
(195,1896,cs),
(115,1896,o),
(59,1803,o),
(59,1664,c),
(99,1664,l),
(104,1711,o),
(135,1740,o),
(182,1740,cs),
(256,1740,o),
(335,1661,o),
(412,1661,cs)
);
}
);
};
layerId = "7C8D72FA-6E62-4564-8BB2-D9F9BC4EB15A";
shapes = (
{
ref = I;
},
{
pos = (-26,0);
ref = tildecomb.case;
}
);
width = 602;
}
);
unicode = 296;
},
{
glyphname = J;
kernLeft = J;
kernRight = J;
layers = (
{
anchors = (
{
name = bottom;
pos = (324,0);
},
{
name = top;
pos = (324,1523);
}
);
background = {
anchors = (
{
name = topcap;
pos = (324,1643);
}
);
shapes = (
{
closed = 1;
nodes = (
(173,-515,o),
(323,-425,o),
(406,-260,cs),
(452,-154,o),
(461,-81,o),
(461,307,cs),
(461,1412,l),
(594,1451,l),
(594,1523,l),
(54,1523,l),
(54,1451,l),
(188,1412,l),
(188,-85,ls),
(188,-299,o),
(138,-402,o),
(74,-402,cs),
(36,-402,o),
(10,-364,o),
(-14,-275,cs),
(-35,-204,o),
(-65,-153,o),
(-130,-153,cs),
(-194,-153,o),
(-244,-204,o),
(-244,-303,cs),
(-244,-432,o),
(-147,-515,o),
(23,-515,cs)
);
}
);
};
layerId = "FA6D65B5-4623-4FAC-A199-3F662257AC29";
shapes = (
{
closed = 1;
nodes = (
(173,-515,o),
(323,-425,o),
(406,-260,cs),
(452,-154,o),
(461,-81,o),
(461,307,cs),
(461,1412,l),
(594,1451,l),
(594,1523,l),
(54,1523,l),
(54,1451,l),
(188,1412,l),
(188,-85,ls),
(188,-299,o),
(138,-402,o),
(74,-402,cs),
(36,-402,o),
(10,-364,o),
(-14,-275,cs),
(-35,-204,o),
(-65,-153,o),
(-130,-153,cs),
(-194,-153,o),
(-244,-204,o),
(-244,-303,cs),
(-244,-432,o),
(-147,-515,o),
(23,-515,cs)
);
}
);
width = 648;
},
{
anchors = (
{
name = topcap;
pos = (359,1643);
}
);
associatedMasterId = "FA6D65B5-4623-4FAC-A199-3F662257AC29";
layerId = "CBD44848-52BD-4DC5-BFA6-577546B7224D";
shapes = (
{
closed = 1;
nodes = (
(144,-515,o),
(302,-425,o),
(394,-260,cs),
(451,-154,o),
(461,-81,o),
(461,307,cs),
(461,1441,l),
(638,1479,l),
(638,1523,l),
(75,1523,l),
(75,1479,l),
(253,1441,l),
(253,-94,ls),
(253,-310,o),
(182,-411,o),
(91,-411,cs),
(39,-411,o),
(-2,-380,o),
(-29,-305,cs),
(-52,-245,o),
(-83,-214,o),
(-138,-214,cs),
(-211,-214,o),
(-256,-264,o),
(-256,-342,cs),
(-256,-450,o),
(-165,-515,o),
(-18,-515,cs)
);
}
);
width = 716;
},
{
anchors = (
{
name = bottom;
pos = (292,0);
},
{
name = top;
pos = (292,1523);
}
);
background = {
anchors = (
{
name = topcap;
pos = (292,1643);
}
);
shapes = (
{
closed = 1;
nodes = (
(122,-515,o),
(253,-425,o),
(327,-260,cs),
(373,-154,o),
(382,-81,o),
(382,307,cs),
(382,1437,l),
(522,1475,l),
(522,1523,l),
(60,1523,l),
(60,1475,l),
(201,1437,l),
(201,-93,ls),
(201,-307,o),
(145,-410,o),
(73,-410,cs),
(32,-410,o),
(0,-378,o),
(-22,-301,cs),
(-41,-240,o),
(-66,-206,o),
(-114,-206,cs),
(-171,-206,o),
(-209,-256,o),
(-209,-336,cs),
(-209,-448,o),
(-134,-515,o),
(-10,-515,cs)
);
}
);
};
layerId = "7C8D72FA-6E62-4564-8BB2-D9F9BC4EB15A";
shapes = (
{
closed = 1;
nodes = (
(122,-515,o),
(253,-425,o),
(327,-260,cs),
(373,-154,o),
(382,-81,o),
(382,307,cs),
(382,1437,l),
(522,1475,l),
(522,1523,l),
(60,1523,l),
(60,1475,l),
(201,1437,l),
(201,-93,ls),
(201,-307,o),
(145,-410,o),
(73,-410,cs),
(32,-410,o),
(0,-378,o),
(-22,-301,cs),
(-41,-240,o),
(-66,-206,o),
(-114,-206,cs),
(-171,-206,o),
(-209,-256,o),
(-209,-336,cs),
(-209,-448,o),
(-134,-515,o),
(-10,-515,cs)
);
}
);
width = 583;
}
);
unicode = 74;
},
{
glyphname = Jcircumflex;
kernLeft = J;
kernRight = J;
layers = (
{
background = {
anchors = (
{
name = topcap;
pos = (324,1643);
}
);
shapes = (
{
closed = 1;
nodes = (
(173,-515,o),
(323,-425,o),
(406,-260,cs),
(452,-154,o),
(461,-81,o),
(461,307,cs),
(461,1412,l),
(594,1451,l),
(594,1523,l),
(54,1523,l),
(54,1451,l),
(188,1412,l),
(188,-85,ls),
(188,-299,o),
(138,-402,o),
(74,-402,cs),
(36,-402,o),
(10,-364,o),
(-14,-275,cs),
(-35,-204,o),
(-65,-153,o),
(-130,-153,cs),
(-194,-153,o),
(-244,-204,o),
(-244,-303,cs),
(-244,-432,o),
(-147,-515,o),
(23,-515,cs)
);
},
{
closed = 1;
nodes = (
(324,1705,l),
(572,1625,l),
(598,1669,l),
(434,1835,ls),
(391,1878,o),
(360,1900,o),
(325,1900,cs),
(284,1900,o),
(254,1878,o),
(211,1835,cs),
(51,1669,l),
(76,1625,l)
);
}
);
};
layerId = "FA6D65B5-4623-4FAC-A199-3F662257AC29";
shapes = (
{
ref = J;
},
{
ref = circumflexcomb.case;
}
);
width = 648;
},
{
associatedMasterId = "FA6D65B5-4623-4FAC-A199-3F662257AC29";
layerId = "CBD44848-52BD-4DC5-BFA6-577546B7224D";
shapes = (
{
alignment = -1;
ref = J;
},
{
alignment = -1;
pos = (48,0);
ref = circumflexcomb.case;
}
);
width = 716;
},
{
background = {
anchors = (
{
name = topcap;
pos = (292,1643);
}
);
shapes = (
{
closed = 1;
nodes = (
(122,-515,o),
(253,-425,o),
(327,-260,cs),
(373,-154,o),
(382,-81,o),
(382,307,cs),
(382,1437,l),
(522,1475,l),
(522,1523,l),
(60,1523,l),
(60,1475,l),
(201,1437,l),
(201,-93,ls),
(201,-307,o),
(145,-410,o),
(73,-410,cs),
(32,-410,o),
(0,-378,o),
(-22,-301,cs),
(-41,-240,o),
(-66,-206,o),
(-114,-206,cs),
(-171,-206,o),
(-209,-256,o),
(-209,-336,cs),
(-209,-448,o),
(-134,-515,o),
(-10,-515,cs)
);
},
{
closed = 1;
nodes = (
(292,1733,l),
(502,1622,l),
(532,1658,l),
(383,1845,ls),
(350,1884,o),
(329,1900,o),
(292,1900,cs),
(252,1900,o),
(233,1880,o),
(204,1845,cs),
(55,1658,l),
(85,1622,l)
);
}
);
};
layerId = "7C8D72FA-6E62-4564-8BB2-D9F9BC4EB15A";
shapes = (
{
ref = J;
},
{
pos = (-27,0);
ref = circumflexcomb.case;
}
);
width = 583;
}
);
unicode = 308;
},
{
glyphname = K;
kernLeft = I;
kernRight = K;
layers = (
{
anchors = (
{
name = bottom;
pos = (639,0);
},
{
name = top;
pos = (639,1523);
}
);
background = {
anchors = (
{
name = bottom;
pos = (693,0);
}
);
shapes = (
{
closed = 1;
nodes = (
(606,0,l),
(606,73,l),
(474,115,l),
(474,648,l),
(509,696,l),
(898,0,l),
(1321,0,l),
(1321,73,l),
(1176,112,l),
(695,948,l),
(974,1328,ls),
(1026,1399,o),
(1058,1421,o),
(1209,1451,c),
(1209,1523,l),
(754,1523,l),
(754,1453,l),
(834,1449,o),
(875,1432,o),
(875,1396,cs),
(875,1379,o),
(870,1356,o),
(854,1333,cs),
(474,823,l),
(474,1412,l),
(606,1451,l),
(606,1523,l),
(66,1523,l),
(66,1451,l),
(202,1412,l),
(202,115,l),
(66,73,l),
(66,0,l)
);
}
);
};
layerId = "FA6D65B5-4623-4FAC-A199-3F662257AC29";
shapes = (
{
closed = 1;
nodes = (
(606,0,l),
(606,73,l),
(474,115,l),
(474,648,l),
(509,696,l),
(898,0,l),
(1321,0,l),
(1321,73,l),
(1176,112,l),
(695,948,l),
(974,1328,ls),
(1026,1399,o),
(1058,1421,o),
(1209,1451,c),
(1209,1523,l),
(754,1523,l),
(754,1453,l),
(834,1449,o),
(875,1432,o),
(875,1396,cs),
(875,1379,o),
(870,1356,o),
(854,1333,cs),
(474,823,l),
(474,1412,l),
(606,1451,l),
(606,1523,l),
(66,1523,l),
(66,1451,l),
(202,1412,l),
(202,115,l),
(66,73,l),
(66,0,l)
);
}
);
width = 1278;
},
{
anchors = (
{
name = bottom;
pos = (784,0);
}
);
associatedMasterId = "FA6D65B5-4623-4FAC-A199-3F662257AC29";
layerId = "CBD44848-52BD-4DC5-BFA6-577546B7224D";
shapes = (
{
closed = 1;
nodes = (
(651,0,l),
(651,45,l),
(474,83,l),
(474,603,l),
(603,750,l),
(1168,0,l),
(1597,0,l),
(1597,45,l),
(1377,83,l),
(743,909,l),
(1133,1356,ls),
(1198,1429,o),
(1241,1447,o),
(1422,1479,c),
(1422,1523,l),
(900,1523,l),
(900,1479,l),
(1018,1470,o),
(1067,1453,o),
(1067,1419,cs),
(1067,1404,o),
(1057,1383,o),
(1034,1360,cs),
(474,732,l),
(474,1441,l),
(651,1479,l),
(651,1523,l),
(89,1523,l),
(89,1479,l),
(267,1441,l),
(267,83,l),
(89,45,l),
(89,0,l)
);
}
);
width = 1550;
},
{
anchors = (
{
name = bottom;
pos = (623,0);
},
{
name = top;
pos = (623,1523);
}
);
background = {
anchors = (
{
name = bottom;
pos = (636,0);
}
);
shapes = (
{
closed = 1;
nodes = (
(533,0,l),
(533,48,l),
(393,88,l),
(393,610,l),
(486,743,l),
(929,0,l),
(1283,0,l),
(1283,48,l),
(1112,88,l),
(607,914,l),
(916,1352,ls),
(967,1426,o),
(1002,1444,o),
(1148,1475,c),
(1148,1523,l),
(725,1523,l),
(725,1475,l),
(817,1468,o),
(857,1450,o),
(857,1416,cs),
(857,1400,o),
(850,1379,o),
(831,1356,cs),
(393,744,l),
(393,1437,l),
(533,1475,l),
(533,1523,l),
(70,1523,l),
(70,1475,l),
(213,1437,l),
(213,88,l),
(70,48,l),
(70,0,l)
);
}
);
};
layerId = "7C8D72FA-6E62-4564-8BB2-D9F9BC4EB15A";
shapes = (
{
closed = 1;
nodes = (
(533,0,l),
(533,48,l),
(393,88,l),
(393,610,l),
(486,743,l),
(929,0,l),
(1283,0,l),
(1283,48,l),
(1112,88,l),
(607,914,l),
(916,1352,ls),
(967,1426,o),
(1002,1444,o),
(1148,1475,c),
(1148,1523,l),
(725,1523,l),
(725,1475,l),
(817,1468,o),
(857,1450,o),
(857,1416,cs),
(857,1400,o),
(850,1379,o),
(831,1356,cs),
(393,744,l),
(393,1437,l),
(533,1475,l),
(533,1523,l),
(70,1523,l),
(70,1475,l),
(213,1437,l),
(213,88,l),
(70,48,l),
(70,0,l)
);
}
);
width = 1245;
}
);
unicode = 75;
},
{
glyphname = Kcommaaccent;
kernLeft = I;
kernRight = K;
layers = (
{
background = {
anchors = (
{
name = bottom;
pos = (693,0);
}
);
shapes = (
{
closed = 1;
nodes = (
(606,0,l),
(606,73,l),
(474,115,l),
(474,648,l),
(509,696,l),
(898,0,l),
(1321,0,l),
(1321,73,l),
(1176,112,l),
(695,948,l),
(974,1328,ls),
(1026,1399,o),
(1058,1421,o),
(1209,1451,c),
(1209,1523,l),
(754,1523,l),
(754,1453,l),
(834,1449,o),
(875,1432,o),
(875,1396,cs),
(875,1379,o),
(870,1356,o),
(854,1333,cs),
(474,823,l),
(474,1412,l),
(606,1451,l),
(606,1523,l),
(66,1523,l),
(66,1451,l),
(202,1412,l),
(202,115,l),
(66,73,l),
(66,0,l)
);
},
{
closed = 1;
nodes = (
(744,-461,o),
(801,-367,o),
(801,-258,cs),
(801,-162,o),
(759,-104,o),
(693,-104,cs),
(631,-104,o),
(588,-149,o),
(588,-208,cs),
(588,-292,o),
(661,-295,o),
(661,-352,cs),
(661,-382,o),
(639,-430,o),
(607,-466,c),
(644,-515,l)
);
}
);
};
layerId = "FA6D65B5-4623-4FAC-A199-3F662257AC29";
shapes = (
{
ref = K;
},
{
pos = (540,0);
ref = commaaccentcomb;
}
);
width = 1278;
},
{
associatedMasterId = "FA6D65B5-4623-4FAC-A199-3F662257AC29";
layerId = "CBD44848-52BD-4DC5-BFA6-577546B7224D";
shapes = (
{
alignment = -1;
ref = K;
},
{
alignment = -1;
pos = (760,21);
ref = commaaccentcomb;
}
);
width = 1550;
},
{
background = {
anchors = (
{
name = bottom;
pos = (636,0);
}
);
shapes = (
{
closed = 1;
nodes = (
(533,0,l),
(533,48,l),
(393,88,l),
(393,610,l),
(486,743,l),
(929,0,l),
(1283,0,l),
(1283,48,l),
(1112,88,l),
(607,914,l),
(916,1352,ls),
(967,1426,o),
(1002,1444,o),
(1148,1475,c),
(1148,1523,l),
(725,1523,l),
(725,1475,l),
(817,1468,o),
(857,1450,o),
(857,1416,cs),
(857,1400,o),
(850,1379,o),
(831,1356,cs),
(393,744,l),
(393,1437,l),
(533,1475,l),
(533,1523,l),
(70,1523,l),
(70,1475,l),
(213,1437,l),
(213,88,l),
(70,48,l),
(70,0,l)
);
},
{
closed = 1;
nodes = (
(749,-425,o),
(798,-337,o),
(798,-223,cs),
(798,-149,o),
(762,-89,o),
(710,-89,cs),
(658,-89,o),
(620,-134,o),
(620,-191,cs),
(620,-284,o),
(696,-269,o),
(696,-339,cs),
(696,-365,o),
(669,-409,o),
(629,-442,c),
(657,-491,l)
);
}
);
};
layerId = "7C8D72FA-6E62-4564-8BB2-D9F9BC4EB15A";
shapes = (
{
ref = K;
},
{
pos = (489,17);
ref = commaaccentcomb;
}
);
width = 1245;
}
);
unicode = 310;
},
{
color = 4;
glyphname = L;
kernLeft = I;
kernRight = L;
layers = (
{
anchors = (
{
name = bottom;
pos = (553,0);
},
{
name = center;
pos = (553,762);
},
{
name = top;
pos = (553,1523);
},
{
name = topright;
pos = (1086,1523);
}
);
background = {
anchors = (
{
name = bottom;
pos = (590,0);
},
{
name = topcap;
pos = (353,1643);
}
);
shapes = (
{
closed = 1;
nodes = (
(1027,0,l),
(1094,463,l),
(1012,463,l),
(972,328,o),
(930,222,o),
(867,113,c),
(474,113,l),
(474,1412,l),
(622,1451,l),
(622,1523,l),
(66,1523,l),
(66,1451,l),
(202,1414,l),
(202,112,l),
(66,73,l),
(66,0,l)
);
}
);
};
layerId = "FA6D65B5-4623-4FAC-A199-3F662257AC29";
shapes = (
{
closed = 1;
nodes = (
(1027,0,l),
(1094,463,l),
(1012,463,l),
(972,328,o),
(930,222,o),
(867,113,c),
(474,113,l),
(474,1412,l),
(622,1451,l),
(622,1523,l),
(66,1523,l),
(66,1451,l),
(202,1414,l),
(202,112,l),
(66,73,l),
(66,0,l)
);
}
);
width = 1106;
},
{
anchors = (
{
name = bottom;
pos = (524,0);
},
{
name = center;
pos = (524,762);
},
{
name = top;
pos = (524,1523);
},
{
name = topright;
pos = (1028,1523);
}
);
background = {
anchors = (
{
name = bottom;
pos = (552,0);
},
{
name = topcap;
pos = (309,1643);
}
);
shapes = (
{
closed = 1;
nodes = (
(962,0,l),
(1022,472,l),
(974,472,l),
(936,320,o),
(898,204,o),
(840,83,c),
(391,83,l),
(391,1437,l),
(542,1475,l),
(542,1523,l),
(75,1523,l),
(75,1475,l),
(211,1437,l),
(211,88,l),
(75,48,l),
(75,0,l)
);
}
);
};
layerId = "7C8D72FA-6E62-4564-8BB2-D9F9BC4EB15A";
shapes = (
{
closed = 1;
nodes = (
(962,0,l),
(1022,472,l),
(974,472,l),
(936,320,o),
(898,204,o),
(840,83,c),
(391,83,l),
(391,1437,l),
(542,1475,l),
(542,1523,l),
(75,1523,l),
(75,1475,l),
(211,1437,l),
(211,88,l),
(75,48,l),
(75,0,l)
);
}
);
width = 1048;
},
{
anchors = (
{
name = bottom;
pos = (690,0);
},
{
name = topcap;
pos = (386,1643);
}
);
associatedMasterId = "7C8D72FA-6E62-4564-8BB2-D9F9BC4EB15A";
layerId = "8ADAAAC7-AFE5-484B-8331-91EA8B26E085";
name = "Jan 7 19, 12:26";
shapes = (
{
closed = 1;
nodes = (
(1202,0,l),
(1277,472,l),
(1218,472,l),
(1173,342,o),
(1131,213,o),
(1050,83,c),
(489,83,l),
(489,1437,l),
(677,1475,l),
(677,1523,l),
(94,1523,l),
(94,1475,l),
(264,1437,l),
(264,88,l),
(94,48,l),
(94,0,l)
);
}
);
width = 1310;
},
{
anchors = (
{
name = bottom;
pos = (737,0);
},
{
name = topcap;
pos = (441,1643);
}
);
associatedMasterId = "FA6D65B5-4623-4FAC-A199-3F662257AC29";
layerId = "6D7EE985-9BFD-4474-8ADC-B784C8159E61";
name = "Jan 7 19, 12:27";
shapes = (
{
closed = 1;
nodes = (
(1284,0,l),
(1368,463,l),
(1265,463,l),
(1216,344,o),
(1170,229,o),
(1084,113,c),
(592,113,l),
(592,1412,l),
(778,1451,l),
(778,1523,l),
(83,1523,l),
(83,1451,l),
(252,1414,l),
(252,112,l),
(83,73,l),
(83,0,l)
);
}
);
visible = 1;
width = 1383;
}
);
unicode = 76;
},
{
glyphname = LJ;
layers = (
{
background = {
anchors = (
{
name = bottom;
pos = (590,0);
},
{
name = topcap;
pos = (1415,1643);
}
);
shapes = (
{
closed = 1;
nodes = (
(1027,0,l),
(1094,463,l),
(1012,463,l),
(972,328,o),
(930,222,o),
(867,113,c),
(474,113,l),
(474,1412,l),
(622,1451,l),
(622,1523,l),
(66,1523,l),
(66,1451,l),
(202,1414,l),
(202,112,l),
(66,73,l),
(66,0,l)
);
},
{
closed = 1;
nodes = (
(1264,-515,o),
(1414,-425,o),
(1497,-260,cs),
(1543,-154,o),
(1552,-81,o),
(1552,307,cs),
(1552,1412,l),
(1685,1451,l),
(1685,1523,l),
(1145,1523,l),
(1145,1451,l),
(1279,1412,l),
(1279,-85,ls),
(1279,-299,o),
(1229,-402,o),
(1165,-402,cs),
(1127,-402,o),
(1101,-364,o),
(1077,-275,cs),
(1056,-204,o),
(1026,-153,o),
(961,-153,cs),
(897,-153,o),
(847,-204,o),
(847,-303,cs),
(847,-432,o),
(944,-515,o),
(1114,-515,cs)
);
}
);
};
layerId = "FA6D65B5-4623-4FAC-A199-3F662257AC29";
shapes = (
{
ref = L;
},
{
pos = (1091,0);
ref = J;
}
);
width = 1739;
},
{
associatedMasterId = "FA6D65B5-4623-4FAC-A199-3F662257AC29";
layerId = "CBD44848-52BD-4DC5-BFA6-577546B7224D";
shapes = (
{
alignment = -1;
ref = L;
},
{
alignment = -1;
pos = (1368,0);
ref = J;
}
);
width = 2084;
},
{
background = {
anchors = (
{
name = bottom;
pos = (552,0);
},
{
name = topcap;
pos = (1327,1643);
}
);
shapes = (
{
closed = 1;
nodes = (
(962,0,l),
(1022,472,l),
(974,472,l),
(936,320,o),
(898,204,o),
(840,83,c),
(391,83,l),
(391,1437,l),
(542,1475,l),
(542,1523,l),
(75,1523,l),
(75,1475,l),
(211,1437,l),
(211,88,l),
(75,48,l),
(75,0,l)
);
},
{
closed = 1;
nodes = (
(1157,-515,o),
(1288,-425,o),
(1362,-260,cs),
(1408,-154,o),
(1417,-81,o),
(1417,307,cs),
(1417,1437,l),
(1557,1475,l),
(1557,1523,l),
(1095,1523,l),
(1095,1475,l),
(1236,1437,l),
(1236,-93,ls),
(1236,-307,o),
(1180,-410,o),
(1108,-410,cs),
(1067,-410,o),
(1035,-378,o),
(1013,-301,cs),
(994,-240,o),
(969,-206,o),
(921,-206,cs),
(864,-206,o),
(826,-256,o),
(826,-336,cs),
(826,-448,o),
(901,-515,o),
(1025,-515,cs)
);
}
);
};
layerId = "7C8D72FA-6E62-4564-8BB2-D9F9BC4EB15A";
shapes = (
{
ref = L;
},
{
pos = (1035,0);
ref = J;
}
);
width = 1618;
}
);
unicode = 455;
},
{
color = 4;
glyphname = Lacute;
kernLeft = I;
kernRight = L;
layers = (
{
background = {
anchors = (
{
name = bottom;
pos = (590,0);
},
{
name = topcap;
pos = (353,1643);
}
);
shapes = (
{
closed = 1;
nodes = (
(1027,0,l),
(1094,463,l),
(1012,463,l),
(972,328,o),
(930,222,o),
(867,113,c),
(474,113,l),
(474,1412,l),
(622,1451,l),
(622,1523,l),
(66,1523,l),
(66,1451,l),
(202,1414,l),
(202,112,l),
(66,73,l),
(66,0,l)
);
},
{
closed = 1;
nodes = (
(499,1680,ls),
(565,1696,o),
(593,1750,o),
(593,1800,cs),
(593,1854,o),
(560,1906,o),
(505,1906,cs),
(479,1906,o),
(445,1893,o),
(409,1859,cs),
(212,1672,l),
(238,1617,l)
);
}
);
};
layerId = "FA6D65B5-4623-4FAC-A199-3F662257AC29";
shapes = (
{
ref = L;
},
{
pos = (135,0);
ref = acutecomb.case;
}
);
width = 1106;
},
{
associatedMasterId = "FA6D65B5-4623-4FAC-A199-3F662257AC29";
layerId = "CBD44848-52BD-4DC5-BFA6-577546B7224D";
shapes = (
{
alignment = -1;
ref = L;
},
{
alignment = -1;
pos = (127,0);
ref = acutecomb.case;
}
);
width = 1299;
},
{
background = {
anchors = (
{
name = bottom;
pos = (552,0);
},
{
name = topcap;
pos = (309,1643);
}
);
shapes = (
{
closed = 1;
nodes = (
(962,0,l),
(1022,472,l),
(974,472,l),
(936,320,o),
(898,204,o),
(840,83,c),
(391,83,l),
(391,1437,l),
(542,1475,l),
(542,1523,l),
(75,1523,l),
(75,1475,l),
(211,1437,l),
(211,88,l),
(75,48,l),
(75,0,l)
);
},
{
closed = 1;
nodes = (
(392,1700,ls),
(472,1727,o),
(497,1766,o),
(497,1812,cs),
(497,1863,o),
(464,1901,o),
(426,1901,cs),
(401,1901,o),
(380,1891,o),
(353,1867,cs),
(131,1658,l),
(149,1616,l)
);
}
);
};
layerId = "7C8D72FA-6E62-4564-8BB2-D9F9BC4EB15A";
shapes = (
{
ref = L;
},
{
pos = (267,0);
ref = acutecomb.case;
}
);
width = 1048;
}
);
unicode = 313;
},
{
glyphname = Lcaron;
kernLeft = I;
kernRight = L;
layers = (
{
background = {
anchors = (
{
name = bottom;
pos = (590,0);
},
{
name = topcap;
pos = (353,1643);
}
);
shapes = (
{
closed = 1;
nodes = (
(1027,0,l),
(1094,463,l),
(1012,463,l),
(972,328,o),
(930,222,o),
(867,113,c),
(474,113,l),
(474,1412,l),
(622,1451,l),
(622,1523,l),
(66,1523,l),
(66,1451,l),
(202,1414,l),
(202,112,l),
(66,73,l),
(66,0,l)
);
},
{
closed = 1;
nodes = (
(388,1644,o),
(419,1665,o),
(462,1709,cs),
(626,1876,l),
(600,1920,l),
(352,1838,l),
(104,1920,l),
(79,1876,l),
(239,1709,ls),
(282,1665,o),
(312,1644,o),
(353,1644,cs)
);
}
);
};
layerId = "FA6D65B5-4623-4FAC-A199-3F662257AC29";
shapes = (
{
ref = L;
},
{
pos = (-30,0);
ref = caroncomb.case;
}
);
width = 1106;
},
{
associatedMasterId = "FA6D65B5-4623-4FAC-A199-3F662257AC29";
layerId = "CBD44848-52BD-4DC5-BFA6-577546B7224D";
shapes = (
{
alignment = -1;
ref = L;
},
{
alignment = -1;
pos = (130,0);
ref = caroncomb.case;
}
);
width = 1299;
},
{
background = {
anchors = (
{
name = bottom;
pos = (552,0);
},
{
name = topcap;
pos = (309,1643);
}
);
shapes = (
{
closed = 1;
nodes = (
(962,0,l),
(1022,472,l),
(974,472,l),
(936,320,o),
(898,204,o),
(840,83,c),
(391,83,l),
(391,1437,l),
(542,1475,l),
(542,1523,l),
(75,1523,l),
(75,1475,l),
(211,1437,l),
(211,88,l),
(75,48,l),
(75,0,l)
);
},
{
closed = 1;
nodes = (
(345,1643,o),
(366,1659,o),
(399,1698,cs),
(548,1885,l),
(518,1921,l),
(308,1810,l),
(101,1921,l),
(71,1885,l),
(220,1698,ls),
(249,1664,o),
(268,1643,o),
(308,1643,cs)
);
}
);
};
layerId = "7C8D72FA-6E62-4564-8BB2-D9F9BC4EB15A";
shapes = (
{
ref = L;
},
{
pos = (205,0);
ref = caroncomb.case;
}
);
width = 1048;
}
);
unicode = 317;
},
{
glyphname = Lcommaaccent;
kernLeft = I;
kernRight = L;
layers = (
{
background = {
anchors = (
{
name = bottom;
pos = (590,0);
},
{
name = topcap;
pos = (353,1643);
}
);
shapes = (
{
closed = 1;
nodes = (
(1027,0,l),
(1094,463,l),
(1012,463,l),
(972,328,o),
(930,222,o),
(867,113,c),
(474,113,l),
(474,1412,l),
(622,1451,l),
(622,1523,l),
(66,1523,l),
(66,1451,l),
(202,1414,l),
(202,112,l),
(66,73,l),
(66,0,l)
);
},
{
closed = 1;
nodes = (
(641,-461,o),
(698,-367,o),
(698,-258,cs),
(698,-162,o),
(656,-104,o),
(590,-104,cs),
(528,-104,o),
(485,-149,o),
(485,-208,cs),
(485,-292,o),
(558,-295,o),
(558,-352,cs),
(558,-382,o),
(536,-430,o),
(504,-466,c),
(541,-515,l)
);
}
);
};
layerId = "FA6D65B5-4623-4FAC-A199-3F662257AC29";
shapes = (
{
ref = L;
},
{
pos = (400,0);
ref = commaaccentcomb;
}
);
width = 1106;
},
{
associatedMasterId = "FA6D65B5-4623-4FAC-A199-3F662257AC29";
layerId = "CBD44848-52BD-4DC5-BFA6-577546B7224D";
shapes = (
{
alignment = -1;
ref = L;
},
{
alignment = -1;
pos = (607,21);
ref = commaaccentcomb;
}
);
width = 1383;
},
{
background = {
anchors = (
{
name = bottom;
pos = (552,0);
},
{
name = topcap;
pos = (309,1643);
}
);
shapes = (
{
closed = 1;
nodes = (
(962,0,l),
(1022,472,l),
(974,472,l),
(936,320,o),
(898,204,o),
(840,83,c),
(391,83,l),
(391,1437,l),
(542,1475,l),
(542,1523,l),
(75,1523,l),
(75,1475,l),
(211,1437,l),
(211,88,l),
(75,48,l),
(75,0,l)
);
},
{
closed = 1;
nodes = (
(591,-425,o),
(640,-337,o),
(640,-223,cs),
(640,-149,o),
(604,-89,o),
(552,-89,cs),
(500,-89,o),
(462,-134,o),
(462,-191,cs),
(462,-284,o),
(538,-269,o),
(538,-339,cs),
(538,-365,o),
(511,-409,o),
(471,-442,c),
(499,-491,l)
);
}
);
};
layerId = "7C8D72FA-6E62-4564-8BB2-D9F9BC4EB15A";
shapes = (
{
ref = L;
},
{
pos = (390,17);
ref = commaaccentcomb;
}
);
width = 1048;
}
);
unicode = 315;
},
{
glyphname = Ldot;
kernRight = L;
layers = (
{
background = {
anchors = (
{
name = bottom;
pos = (590,0);
},
{
name = topcap;
pos = (353,1643);
}
);
shapes = (
{
closed = 1;
nodes = (
(1027,0,l),
(1094,463,l),
(1012,463,l),
(972,328,o),
(930,222,o),
(867,113,c),
(474,113,l),
(474,1412,l),
(622,1451,l),
(622,1523,l),
(66,1523,l),
(66,1451,l),
(202,1414,l),
(202,112,l),
(66,73,l),
(66,0,l)
);
},
{
closed = 1;
nodes = (
(957,458,o),
(1017,529,o),
(1017,628,cs),
(1017,729,o),
(956,803,o),
(872,803,cs),
(789,803,o),
(733,729,o),
(733,628,cs),
(733,526,o),
(789,458,o),
(873,458,cs)
);
}
);
};
layerId = "FA6D65B5-4623-4FAC-A199-3F662257AC29";
shapes = (
{
ref = L;
},
{
ref = periodcentered;
}
);
width = 1106;
},
{
associatedMasterId = "FA6D65B5-4623-4FAC-A199-3F662257AC29";
layerId = "CBD44848-52BD-4DC5-BFA6-577546B7224D";
shapes = (
{
alignment = -1;
ref = L;
},
{
alignment = -1;
pos = (564,0);
ref = periodcentered;
}
);
width = 1299;
},
{
background = {
anchors = (
{
name = bottom;
pos = (552,0);
},
{
name = topcap;
pos = (309,1643);
}
);
shapes = (
{
closed = 1;
nodes = (
(962,0,l),
(1022,472,l),
(974,472,l),
(936,320,o),
(898,204,o),
(840,83,c),
(391,83,l),
(391,1437,l),
(542,1475,l),
(542,1523,l),
(75,1523,l),
(75,1475,l),
(211,1437,l),
(211,88,l),
(75,48,l),
(75,0,l)
);
},
{
closed = 1;
nodes = (
(869,436,o),
(914,500,o),
(914,576,cs),
(914,659,o),
(868,718,o),
(798,718,cs),
(731,718,o),
(686,659,o),
(686,576,cs),
(686,499,o),
(731,436,o),
(798,436,cs)
);
}
);
};
layerId = "7C8D72FA-6E62-4564-8BB2-D9F9BC4EB15A";
shapes = (
{
ref = L;
},
{
ref = periodcentered;
}
);
width = 1048;
}
);
unicode = 319;
},
{
glyphname = Lj;
layers = (
{
background = {
anchors = (
{
name = bottom;
pos = (590,0);
},
{
name = topcap;
pos = (353,1643);
}
);
shapes = (
{
closed = 1;
nodes = (
(1027,0,l),
(1094,463,l),
(1012,463,l),
(972,328,o),
(930,222,o),
(867,113,c),
(474,113,l),
(474,1412,l),
(622,1451,l),
(622,1523,l),
(66,1523,l),
(66,1451,l),
(202,1414,l),
(202,112,l),
(66,73,l),
(66,0,l)
);
},
{
closed = 1;
nodes = (
(1263,-515,o),
(1364,-446,o),
(1436,-289,cs),
(1488,-180,o),
(1504,-78,o),
(1504,136,cs),
(1504,1069,l),
(1471,1069,l),
(1124,974,l),
(1124,927,l),
(1258,873,l),
(1258,-94,l),
(1258,-310,o),
(1220,-411,o),
(1144,-411,cs),
(1100,-411,o),
(1075,-380,o),
(1038,-284,cs),
(1010,-214,o),
(983,-190,o),
(933,-190,cs),
(868,-190,o),
(827,-237,o),
(827,-312,cs),
(827,-433,o),
(940,-515,o),
(1108,-515,cs)
);
},
{
closed = 1;
nodes = (
(1472,1217,o),
(1519,1299,o),
(1519,1379,cs),
(1519,1466,o),
(1466,1544,o),
(1379,1544,cs),
(1293,1544,o),
(1241,1466,o),
(1241,1379,cs),
(1241,1299,o),
(1289,1217,o),
(1379,1217,cs)
);
}
);
};
layerId = "FA6D65B5-4623-4FAC-A199-3F662257AC29";
shapes = (
{
ref = L;
},
{
pos = (1106,0);
ref = j;
}
);
width = 1628;
},
{
associatedMasterId = "FA6D65B5-4623-4FAC-A199-3F662257AC29";
layerId = "CBD44848-52BD-4DC5-BFA6-577546B7224D";
shapes = (
{
alignment = -1;
ref = L;
},
{
alignment = -1;
pos = (1383,0);
ref = j;
}
);
width = 1937;
},
{
background = {
anchors = (
{
name = bottom;
pos = (552,0);
},
{
name = topcap;
pos = (309,1643);
}
);
shapes = (
{
closed = 1;
nodes = (
(962,0,l),
(1022,472,l),
(974,472,l),
(936,320,o),
(898,204,o),
(840,83,c),
(391,83,l),
(391,1437,l),
(542,1475,l),
(542,1523,l),
(75,1523,l),
(75,1475,l),
(211,1437,l),
(211,88,l),
(75,48,l),
(75,0,l)
);
},
{
closed = 1;
nodes = (
(1134,-515,o),
(1240,-427,o),
(1312,-264,cs),
(1359,-158,o),
(1366,-81,o),
(1366,284,cs),
(1366,1069,l),
(1351,1069,l),
(1085,974,l),
(1085,943,l),
(1204,890,l),
(1204,-94,ls),
(1204,-314,o),
(1162,-420,o),
(1074,-420,cs),
(1035,-420,o),
(1017,-397,o),
(992,-320,cs),
(974,-258,o),
(949,-228,o),
(902,-228,cs),
(849,-228,o),
(814,-273,o),
(814,-347,cs),
(814,-450,o),
(886,-515,o),
(1003,-515,cs)
);
},
{
closed = 1;
nodes = (
(1350,1279,o),
(1393,1336,o),
(1393,1412,cs),
(1393,1487,o),
(1348,1544,o),
(1285,1544,cs),
(1221,1544,o),
(1179,1487,o),
(1179,1412,cs),
(1179,1336,o),
(1220,1279,o),
(1285,1279,cs)
);
}
);
};
layerId = "7C8D72FA-6E62-4564-8BB2-D9F9BC4EB15A";
shapes = (
{
ref = L;
},
{
pos = (1048,0);
ref = j;
}
);
width = 1502;
}
);
unicode = 456;
},
{
glyphname = Lslash;
kernLeft = I;
kernRight = L;
layers = (
{
background = {
anchors = (
{
name = bottom;
pos = (592,0);
},
{
name = topcap;
pos = (355,1643);
}
);
shapes = (
{
closed = 1;
nodes = (
(590,875,l),
(590,1063,l),
(96,735,l),
(96,547,l)
);
},
{
closed = 1;
nodes = (
(1029,0,l),
(1096,463,l),
(1014,463,l),
(974,328,o),
(932,222,o),
(869,113,c),
(476,113,l),
(476,1412,l),
(624,1451,l),
(624,1523,l),
(68,1523,l),
(68,1451,l),
(204,1414,l),
(204,112,l),
(68,73,l),
(68,0,l)
);
}
);
};
layerId = "FA6D65B5-4623-4FAC-A199-3F662257AC29";
shapes = (
{
closed = 1;
nodes = (
(590,875,l),
(590,1063,l),
(96,735,l),
(96,547,l)
);
},
{
pos = (2,0);
ref = L;
}
);
width = 1108;
},
{
associatedMasterId = "FA6D65B5-4623-4FAC-A199-3F662257AC29";
layerId = "CBD44848-52BD-4DC5-BFA6-577546B7224D";
shapes = (
{
closed = 1;
nodes = (
(663,898,l),
(663,1027,l),
(117,735,l),
(117,606,l)
);
},
{
pos = (2,0);
ref = L;
}
);
width = 1300;
},
{
background = {
anchors = (
{
name = bottom;
pos = (554,0);
},
{
name = topcap;
pos = (311,1643);
}
);
shapes = (
{
closed = 1;
nodes = (
(539,896,l),
(539,1032,l),
(94,735,l),
(94,598,l)
);
},
{
closed = 1;
nodes = (
(964,0,l),
(1024,472,l),
(976,472,l),
(938,320,o),
(900,204,o),
(842,83,c),
(393,83,l),
(393,1437,l),
(544,1475,l),
(544,1523,l),
(77,1523,l),
(77,1475,l),
(213,1437,l),
(213,88,l),
(77,48,l),
(77,0,l)
);
}
);
};
layerId = "7C8D72FA-6E62-4564-8BB2-D9F9BC4EB15A";
shapes = (
{
closed = 1;
nodes = (
(539,896,l),
(539,1032,l),
(94,735,l),
(94,598,l)
);
},
{
alignment = -1;
pos = (2,0);
ref = L;
}
);
width = 1050;
}
);
unicode = 321;
},
{
glyphname = M;
kernLeft = N;
kernRight = I;
layers = (
{
anchors = (
{
name = bottom;
pos = (849,0);
},
{
name = top;
pos = (849,1523);
}
);
background = {
shapes = (
{
closed = 1;
nodes = (
(823,-21,l),
(1221,1176,l),
(1227,1176,l),
(1227,115,l),
(1093,73,l),
(1093,0,l),
(1632,0,l),
(1632,73,l),
(1500,115,l),
(1500,1412,l),
(1632,1451,l),
(1632,1523,l),
(1225,1523,l),
(882,503,l),
(872,503,l),
(543,1523,l),
(62,1523,l),
(62,1451,l),
(202,1414,l),
(202,112,l),
(62,73,l),
(62,0,l),
(451,0,l),
(451,73,l),
(312,112,l),
(312,1229,l),
(318,1229,l),
(748,-21,l)
);
}
);
};
layerId = "FA6D65B5-4623-4FAC-A199-3F662257AC29";
shapes = (
{
closed = 1;
nodes = (
(823,-21,l),
(1221,1176,l),
(1227,1176,l),
(1227,115,l),
(1093,73,l),
(1093,0,l),
(1632,0,l),
(1632,73,l),
(1500,115,l),
(1500,1412,l),
(1632,1451,l),
(1632,1523,l),
(1225,1523,l),
(882,503,l),
(872,503,l),
(543,1523,l),
(62,1523,l),
(62,1451,l),
(202,1414,l),
(202,112,l),
(62,73,l),
(62,0,l),
(451,0,l),
(451,73,l),
(312,112,l),
(312,1229,l),
(318,1229,l),
(748,-21,l)
);
}
);
width = 1698;
},
{
associatedMasterId = "FA6D65B5-4623-4FAC-A199-3F662257AC29";
layerId = "CBD44848-52BD-4DC5-BFA6-577546B7224D";
shapes = (
{
closed = 1;
nodes = (
(960,-21,l),
(1521,1299,l),
(1529,1299,l),
(1529,83,l),
(1352,45,l),
(1352,0,l),
(1914,0,l),
(1914,45,l),
(1738,83,l),
(1738,1441,l),
(1914,1479,l),
(1914,1523,l),
(1500,1523,l),
(1008,351,l),
(997,351,l),
(504,1523,l),
(89,1523,l),
(89,1479,l),
(267,1441,l),
(267,83,l),
(89,45,l),
(89,0,l),
(523,0,l),
(523,45,l),
(347,83,l),
(347,1307,l),
(355,1307,l),
(906,-21,l)
);
}
);
width = 2002;
},
{
anchors = (
{
name = bottom;
pos = (808,0);
},
{
name = top;
pos = (808,1523);
}
);
background = {
shapes = (
{
closed = 1;
nodes = (
(776,-21,l),
(1218,1283,l),
(1224,1283,l),
(1224,88,l),
(1082,48,l),
(1082,0,l),
(1545,0,l),
(1545,48,l),
(1405,88,l),
(1405,1437,l),
(1545,1475,l),
(1545,1523,l),
(1203,1523,l),
(816,371,l),
(808,371,l),
(423,1523,l),
(70,1523,l),
(70,1475,l),
(213,1437,l),
(213,88,l),
(70,48,l),
(70,0,l),
(423,0,l),
(423,48,l),
(282,88,l),
(282,1297,l),
(288,1297,l),
(728,-21,l)
);
}
);
};
layerId = "7C8D72FA-6E62-4564-8BB2-D9F9BC4EB15A";
shapes = (
{
closed = 1;
nodes = (
(776,-21,l),
(1218,1283,l),
(1224,1283,l),
(1224,88,l),
(1082,48,l),
(1082,0,l),
(1545,0,l),
(1545,48,l),
(1405,88,l),
(1405,1437,l),
(1545,1475,l),
(1545,1523,l),
(1203,1523,l),
(816,371,l),
(808,371,l),
(423,1523,l),
(70,1523,l),
(70,1475,l),
(213,1437,l),
(213,88,l),
(70,48,l),
(70,0,l),
(423,0,l),
(423,48,l),
(282,88,l),
(282,1297,l),
(288,1297,l),
(728,-21,l)
);
}
);
width = 1615;
}
);
unicode = 77;
},
{
color = 4;
glyphname = N;
kernLeft = N;
kernRight = N;
layers = (
{
anchors = (
{
name = bottom;
pos = (695,0);
},
{
name = top;
pos = (695,1523);
}
);
background = {
anchors = (
{
name = bottom;
pos = (695,0);
},
{
name = topcap;
pos = (722,1643);
}
);
shapes = (
{
closed = 1;
nodes = (
(1200,-21,l),
(1200,1414,l),
(1342,1451,l),
(1342,1523,l),
(951,1523,l),
(951,1451,l),
(1092,1414,l),
(1092,584,l),
(492,1523,l),
(62,1523,l),
(62,1451,l),
(202,1414,l),
(202,112,l),
(62,73,l),
(62,0,l),
(451,0,l),
(451,73,l),
(312,112,l),
(312,1208,l),
(1092,-21,l)
);
}
);
};
layerId = "FA6D65B5-4623-4FAC-A199-3F662257AC29";
shapes = (
{
closed = 1;
nodes = (
(1200,-21,l),
(1200,1414,l),
(1342,1451,l),
(1342,1523,l),
(951,1523,l),
(951,1451,l),
(1092,1414,l),
(1092,584,l),
(492,1523,l),
(62,1523,l),
(62,1451,l),
(202,1414,l),
(202,112,l),
(62,73,l),
(62,0,l),
(451,0,l),
(451,73,l),
(312,112,l),
(312,1208,l),
(1092,-21,l)
);
}
);
width = 1390;
},
{
anchors = (
{
name = bottom;
pos = (801,0);
},
{
name = topcap;
pos = (829,1643);
}
);
associatedMasterId = "FA6D65B5-4623-4FAC-A199-3F662257AC29";
layerId = "CBD44848-52BD-4DC5-BFA6-577546B7224D";
shapes = (
{
closed = 1;
nodes = (
(1383,-39,l),
(1383,1441,l),
(1561,1479,l),
(1561,1523,l),
(1127,1523,l),
(1127,1479,l),
(1305,1441,l),
(1305,404,l),
(489,1523,l),
(89,1523,l),
(89,1479,l),
(267,1441,l),
(267,83,l),
(89,45,l),
(89,0,l),
(523,0,l),
(523,45,l),
(347,83,l),
(347,1320,l),
(1322,-39,l)
);
}
);
width = 1639;
},
{
anchors = (
{
name = bottom;
pos = (661,0);
},
{
name = top;
pos = (661,1523);
}
);
background = {
anchors = (
{
name = bottom;
pos = (649,0);
},
{
name = topcap;
pos = (670,1643);
}
);
shapes = (
{
closed = 1;
nodes = (
(1119,-37,l),
(1119,1437,l),
(1262,1475,l),
(1262,1523,l),
(910,1523,l),
(910,1475,l),
(1050,1437,l),
(1050,427,l),
(405,1523,l),
(70,1523,l),
(70,1475,l),
(213,1437,l),
(213,88,l),
(70,48,l),
(70,0,l),
(423,0,l),
(423,48,l),
(282,88,l),
(282,1305,l),
(1062,-37,l)
);
}
);
};
layerId = "7C8D72FA-6E62-4564-8BB2-D9F9BC4EB15A";
shapes = (
{
closed = 1;
nodes = (
(1119,-37,l),
(1119,1437,l),
(1262,1475,l),
(1262,1523,l),
(910,1523,l),
(910,1475,l),
(1050,1437,l),
(1050,427,l),
(405,1523,l),
(70,1523,l),
(70,1475,l),
(213,1437,l),
(213,88,l),
(70,48,l),
(70,0,l),
(423,0,l),
(423,48,l),
(282,88,l),
(282,1305,l),
(1062,-37,l)
);
}
);
width = 1321;
}
);
unicode = 78;
},
{
glyphname = NJ;
layers = (
{
background = {
anchors = (
{
name = bottom;
pos = (695,0);
},
{
name = topcap;
pos = (1714,1643);
}
);
shapes = (
{
closed = 1;
nodes = (
(1200,-21,l),
(1200,1414,l),
(1342,1451,l),
(1342,1523,l),
(951,1523,l),
(951,1451,l),
(1092,1414,l),
(1092,584,l),
(492,1523,l),
(62,1523,l),
(62,1451,l),
(202,1414,l),
(202,112,l),
(62,73,l),
(62,0,l),
(451,0,l),
(451,73,l),
(312,112,l),
(312,1208,l),
(1092,-21,l)
);
},
{
closed = 1;
nodes = (
(1563,-515,o),
(1713,-425,o),
(1796,-260,cs),
(1842,-154,o),
(1851,-81,o),
(1851,307,cs),
(1851,1412,l),
(1984,1451,l),
(1984,1523,l),
(1444,1523,l),
(1444,1451,l),
(1578,1412,l),
(1578,-85,ls),
(1578,-299,o),
(1528,-402,o),
(1464,-402,cs),
(1426,-402,o),
(1400,-364,o),
(1376,-275,cs),
(1355,-204,o),
(1325,-153,o),
(1260,-153,cs),
(1196,-153,o),
(1146,-204,o),
(1146,-303,cs),
(1146,-432,o),
(1243,-515,o),
(1413,-515,cs)
);
}
);
};
layerId = "FA6D65B5-4623-4FAC-A199-3F662257AC29";
shapes = (
{
ref = N;
},
{
pos = (1390,0);
ref = J;
}
);
width = 2038;
},
{
associatedMasterId = "FA6D65B5-4623-4FAC-A199-3F662257AC29";
layerId = "CBD44848-52BD-4DC5-BFA6-577546B7224D";
shapes = (
{
alignment = -1;
ref = N;
},
{
alignment = -1;
pos = (1639,0);
ref = J;
}
);
width = 2355;
},
{
background = {
anchors = (
{
name = bottom;
pos = (649,0);
},
{
name = topcap;
pos = (1613,1643);
}
);
shapes = (
{
closed = 1;
nodes = (
(1119,-37,l),
(1119,1437,l),
(1262,1475,l),
(1262,1523,l),
(910,1523,l),
(910,1475,l),
(1050,1437,l),
(1050,427,l),
(405,1523,l),
(70,1523,l),
(70,1475,l),
(213,1437,l),
(213,88,l),
(70,48,l),
(70,0,l),
(423,0,l),
(423,48,l),
(282,88,l),
(282,1305,l),
(1062,-37,l)
);
},
{
closed = 1;
nodes = (
(1443,-515,o),
(1574,-425,o),
(1648,-260,cs),
(1694,-154,o),
(1703,-81,o),
(1703,307,cs),
(1703,1437,l),
(1843,1475,l),
(1843,1523,l),
(1381,1523,l),
(1381,1475,l),
(1522,1437,l),
(1522,-93,ls),
(1522,-307,o),
(1466,-410,o),
(1394,-410,cs),
(1353,-410,o),
(1321,-378,o),
(1299,-301,cs),
(1280,-240,o),
(1255,-206,o),
(1207,-206,cs),
(1150,-206,o),
(1112,-256,o),
(1112,-336,cs),
(1112,-448,o),
(1187,-515,o),
(1311,-515,cs)
);
}
);
};
layerId = "7C8D72FA-6E62-4564-8BB2-D9F9BC4EB15A";
shapes = (
{
ref = N;
},
{
pos = (1321,0);
ref = J;
}
);
width = 1904;
}
);
unicode = 458;
},
